<?xml version="1.0" standalone="no"?>
<!DOCTYPE svg PUBLIC "-//W3C//DTD SVG 20010904//EN"
 "http://www.w3.org/TR/2001/REC-SVG-20010904/DTD/svg10.dtd">
<svg version="1.0" xmlns="http://www.w3.org/2000/svg"
 width="2952.000000pt" height="2952.000000pt" viewBox="0 0 2952.000000 2952.000000"
 preserveAspectRatio="xMidYMid meet">
<metadata>
Created by potrace 1.14, written by Peter Selinger 2001-2017
</metadata>
<g transform="translate(0.000000,2952.000000) scale(0.100000,-0.100000)"
fill="#000000" stroke="none">
<path d="M18371 29443 c0 -43 6 -109 13 -146 11 -68 12 -68 61 -95 28 -15 70
-41 95 -58 25 -18 113 -65 195 -107 236 -118 290 -171 321 -318 21 -99 15
-239 -14 -294 -35 -70 -108 -119 -227 -154 -86 -25 -166 -87 -340 -264 -66
-67 -140 -135 -164 -152 l-44 -30 -26 32 c-14 17 -64 103 -110 190 -206 389
-279 519 -333 591 -32 42 -66 97 -75 122 -27 72 -85 150 -195 262 -110 112
-158 148 -198 148 -14 0 -56 -12 -95 -26 -38 -14 -90 -33 -115 -42 -25 -8 -52
-20 -60 -27 -20 -16 -108 -45 -137 -45 -13 0 -50 14 -83 30 -78 40 -120 39
-154 0 -33 -39 -40 -83 -32 -183 8 -90 38 -175 150 -414 114 -244 145 -374
102 -422 -27 -30 -64 -26 -146 16 -90 46 -155 103 -170 148 -13 38 -35 55 -73
55 -30 0 -120 -92 -131 -134 -18 -74 -84 -116 -182 -116 -69 0 -114 19 -198
83 -33 25 -91 58 -130 74 -112 45 -178 35 -296 -46 -126 -86 -209 -110 -380
-111 -123 -1 -267 -13 -344 -31 l-55 -12 -20 -86 c-11 -47 -25 -126 -31 -176
-15 -122 -25 -151 -78 -207 -81 -87 -325 -252 -412 -279 -131 -40 -654 -35
-719 8 -30 19 -242 77 -349 94 -42 7 -90 20 -107 30 -65 38 -363 50 -477 19
-91 -25 -139 -134 -157 -352 -13 -154 -31 -205 -105 -302 -104 -136 -206 -222
-331 -281 -113 -53 -240 -150 -405 -312 -183 -179 -183 -179 -281 -226 -58
-28 -102 -60 -180 -134 -107 -100 -244 -213 -258 -213 -5 0 -78 -47 -164 -105
-182 -121 -212 -138 -292 -159 -41 -10 -67 -24 -81 -42 -19 -23 -32 -27 -100
-34 -95 -10 -126 -21 -171 -61 -19 -16 -77 -50 -128 -74 -117 -56 -137 -80
-185 -221 -20 -60 -58 -154 -84 -209 -57 -119 -106 -247 -106 -278 -1 -38 -36
-102 -89 -161 -28 -30 -65 -84 -82 -118 -47 -94 -104 -162 -313 -378 -209
-214 -231 -247 -260 -380 -17 -78 -40 -273 -51 -420 -19 -267 -82 -493 -162
-581 -43 -47 -50 -89 -62 -349 -5 -113 -15 -221 -22 -240 -7 -19 -16 -96 -20
-170 -4 -74 -12 -177 -17 -229 -9 -92 -9 -97 19 -161 15 -37 35 -99 43 -139 9
-40 27 -93 41 -118 44 -73 66 -152 76 -264 4 -59 14 -119 21 -135 20 -49 23
-622 4 -775 -37 -293 -42 -755 -14 -1334 l11 -240 48 -120 c60 -149 75 -207
84 -321 8 -98 26 -158 55 -189 41 -44 52 -94 61 -274 9 -179 18 -227 52 -272
12 -17 22 -54 27 -100 11 -92 35 -162 100 -289 62 -123 86 -212 99 -363 6 -85
15 -128 30 -157 27 -52 38 -161 45 -430 4 -127 12 -243 21 -283 8 -39 44 -132
85 -217 39 -82 76 -174 83 -205 16 -77 99 -185 311 -404 259 -267 371 -395
401 -459 15 -31 51 -88 80 -127 61 -79 105 -167 105 -207 0 -45 30 -108 59
-123 27 -13 41 -40 76 -138 10 -27 70 -118 141 -213 144 -192 173 -240 237
-387 26 -59 59 -126 74 -149 16 -22 36 -52 46 -67 9 -14 22 -43 27 -63 6 -20
31 -61 55 -89 49 -58 102 -143 160 -259 49 -97 111 -191 176 -265 60 -68 101
-99 145 -109 44 -10 101 -61 146 -130 95 -146 276 -538 294 -632 10 -59 38
-107 102 -177 96 -107 141 -225 162 -431 12 -117 9 -428 -4 -458 -4 -9 -20
-21 -36 -27 -16 -5 -56 -35 -90 -66 -34 -31 -78 -63 -97 -72 -20 -8 -90 -18
-157 -23 -66 -4 -133 -12 -147 -18 -51 -20 -119 -129 -119 -190 0 -41 -60
-129 -185 -267 -136 -152 -150 -173 -174 -267 -11 -42 -29 -94 -39 -115 -31
-60 -51 -139 -67 -262 -19 -144 -57 -258 -146 -439 -59 -119 -81 -154 -132
-206 -54 -54 -76 -68 -167 -105 -150 -61 -161 -74 -181 -204 -14 -94 -51 -187
-106 -266 -25 -35 -158 -174 -296 -310 -138 -135 -297 -291 -353 -346 -572
-563 -929 -907 -1044 -1005 -41 -35 -91 -80 -110 -100 -19 -19 -77 -71 -127
-114 -51 -43 -93 -81 -93 -85 0 -4 -48 -47 -106 -96 -58 -49 -109 -94 -112
-101 -15 -23 -277 -241 -337 -279 -16 -10 -74 -54 -127 -97 -53 -43 -100 -78
-104 -78 -3 0 -57 -40 -119 -90 -62 -49 -116 -90 -119 -90 -4 0 -51 -35 -104
-78 -53 -43 -110 -86 -127 -97 -16 -10 -74 -54 -127 -97 -53 -43 -100 -78
-105 -78 -4 0 -28 -16 -53 -36 -25 -20 -54 -40 -65 -45 -11 -5 -40 -23 -65
-39 -25 -16 -58 -36 -75 -45 -16 -8 -48 -26 -70 -40 -22 -14 -47 -28 -55 -32
-8 -3 -22 -11 -30 -18 -8 -7 -40 -26 -70 -42 -30 -17 -71 -40 -90 -51 -19 -12
-51 -31 -70 -42 -19 -11 -53 -32 -75 -45 -22 -14 -49 -30 -60 -35 -11 -5 -38
-21 -60 -35 -22 -13 -56 -34 -75 -45 -19 -11 -53 -32 -75 -45 -22 -14 -49 -30
-60 -35 -11 -5 -38 -21 -60 -35 -22 -13 -56 -34 -75 -45 -19 -11 -48 -29 -65
-39 -35 -21 -102 -60 -130 -75 -12 -6 -51 -35 -87 -63 -36 -29 -69 -53 -73
-53 -3 0 -38 -24 -75 -52 -38 -29 -108 -80 -154 -113 -47 -33 -117 -84 -155
-112 -38 -29 -72 -53 -76 -53 -3 0 -37 -25 -75 -55 -38 -30 -72 -55 -75 -55
-4 0 -37 -22 -73 -50 -196 -146 -242 -180 -248 -180 -4 0 -37 -25 -75 -55 -37
-30 -71 -55 -75 -55 -4 0 -34 -20 -65 -45 -32 -25 -60 -45 -64 -45 -4 0 -33
-20 -65 -45 -32 -25 -61 -45 -65 -45 -4 0 -32 -20 -64 -45 -31 -25 -60 -45
-64 -45 -5 0 -31 -18 -183 -130 -27 -19 -59 -41 -74 -49 -14 -8 -46 -31 -71
-52 -26 -22 -50 -39 -55 -39 -4 0 -34 -20 -65 -45 -32 -25 -60 -45 -64 -45 -4
0 -33 -20 -65 -45 -32 -25 -61 -45 -65 -45 -4 0 -32 -20 -64 -45 -31 -25 -60
-45 -64 -45 -3 0 -35 -21 -71 -47 -35 -27 -86 -64 -112 -83 -50 -36 -167 -103
-289 -166 -38 -19 -128 -66 -200 -104 -71 -38 -161 -85 -200 -105 -38 -20
-142 -74 -230 -120 -88 -46 -392 -199 -675 -340 -283 -141 -522 -260 -530
-265 -8 -5 -30 -17 -47 -25 -18 -8 -48 -22 -65 -30 -18 -8 -40 -20 -48 -25 -8
-5 -78 -39 -155 -76 -77 -37 -153 -77 -170 -89 -16 -12 -69 -45 -116 -73 -130
-78 -164 -113 -210 -216 -21 -48 -39 -92 -39 -97 0 -5 6103 -9 14456 -9
l14456 0 -6 23 c-4 12 -12 56 -18 97 -10 80 -39 178 -81 276 -16 36 -30 96
-36 149 -31 268 -139 398 -579 695 -167 112 -239 177 -298 265 -82 124 -318
280 -544 359 -83 29 -110 45 -337 197 -280 188 -385 243 -838 435 -329 140
-349 150 -422 202 -17 12 -34 22 -37 22 -4 0 -19 8 -34 18 -15 11 -45 31 -68
46 -23 15 -56 48 -74 74 -75 106 -119 135 -260 171 -85 21 -133 42 -290 126
-47 25 -107 52 -135 61 -73 24 -349 151 -595 274 -242 121 -397 191 -645 292
-93 38 -199 87 -235 108 -36 22 -112 58 -170 80 -177 70 -303 139 -620 340
-63 40 -131 80 -150 88 -53 22 -314 187 -405 256 -122 93 -275 227 -428 376
-119 116 -145 137 -188 149 -47 13 -75 38 -114 103 -5 9 -40 55 -76 102 -36
47 -86 123 -111 168 -77 138 -165 253 -265 345 -104 95 -133 140 -133 207 0
24 -5 46 -11 48 -9 3 -9 18 -3 53 11 61 36 76 129 76 51 0 84 -8 162 -39 120
-48 195 -67 343 -86 170 -22 765 -56 994 -56 l89 0 197 198 c166 167 201 208
229 265 18 37 54 91 80 120 26 28 57 66 69 83 29 42 52 134 52 209 0 71 14
128 42 165 11 15 26 58 34 96 8 37 25 86 38 109 13 22 26 60 30 85 3 25 10 65
16 90 19 96 30 179 34 280 9 198 60 306 216 460 86 86 260 220 284 220 3 0 30
11 59 25 57 25 87 56 241 242 142 171 266 372 282 459 9 46 0 70 -86 249 -81
169 -104 235 -97 281 15 91 112 238 201 303 80 59 147 132 179 192 15 30 65
126 111 214 l83 160 7 490 c5 446 17 740 32 836 3 24 18 48 42 72 103 98 479
296 597 314 22 3 51 16 65 29 14 12 37 26 52 29 15 4 66 45 115 92 48 46 103
95 121 109 17 14 32 31 32 39 0 7 21 39 46 70 l46 57 -5 321 c-6 349 -14 417
-65 532 -37 82 -118 188 -253 331 -129 135 -227 263 -314 406 -70 117 -121
186 -193 263 -78 84 -92 115 -92 210 0 44 7 116 16 160 12 63 15 143 14 373 0
161 4 331 10 378 20 156 75 275 144 308 46 21 64 20 85 -6 l18 -22 28 28 c24
25 26 32 21 78 -9 71 -37 115 -120 191 -40 35 -83 85 -96 111 l-25 46 24 45
c24 46 223 246 321 324 30 24 74 52 98 62 52 23 146 109 177 164 12 22 26 56
29 76 4 21 17 53 31 73 48 71 49 74 21 114 -34 51 -45 127 -52 382 -6 244 -18
341 -46 387 -15 26 -22 63 -29 175 -13 190 -31 285 -75 392 -22 54 -40 119
-45 160 -4 39 -12 103 -18 141 -16 117 -34 532 -28 656 7 133 23 185 73 228
33 30 49 34 153 46 30 3 102 21 160 40 58 18 133 41 165 50 100 28 143 95 106
165 -54 101 -59 117 -66 215 -12 182 15 241 197 425 146 149 254 239 324 270
108 48 295 248 295 315 0 83 300 351 532 475 178 95 256 197 278 365 20 152
29 185 74 275 26 50 46 99 46 109 0 31 -37 107 -59 123 -26 19 -51 77 -51 121
0 54 27 117 76 179 78 100 112 204 138 429 25 213 34 383 47 862 l13 448 -55
55 c-79 81 -135 117 -194 125 -28 4 -100 30 -161 58 -60 29 -160 68 -223 87
-63 19 -124 42 -134 52 -34 30 -98 131 -137 216 -42 91 -64 166 -79 276 -7 52
-21 96 -46 143 -49 95 -55 131 -65 387 -10 242 -31 369 -67 396 -43 33 -134
39 -186 12 -53 -27 -85 -229 -45 -290 14 -20 19 -67 28 -220 6 -106 15 -269
20 -363 5 -93 10 -193 10 -221 l0 -52 -65 -16 c-87 -22 -99 -21 -138 13 -41
37 -123 69 -206 81 -54 8 -70 15 -103 47 -104 101 -134 198 -124 403 7 144 17
219 37 288 12 37 11 47 -3 75 -9 17 -23 74 -31 126 -12 70 -23 105 -46 140
-16 25 -57 101 -90 168 -33 68 -69 136 -80 152 -11 15 -37 59 -57 97 -52 98
-131 217 -203 304 -34 41 -66 91 -71 110 -25 84 -154 210 -321 312 -52 32
-106 69 -122 83 -15 14 -35 25 -45 25 -9 0 -48 18 -87 38 -215 117 -449 250
-510 291 -99 67 -145 92 -265 146 -151 68 -274 103 -401 115 -72 7 -133 19
-180 37 -76 28 -77 28 -180 -8 -36 -13 -37 -15 -43 -74 -4 -33 -11 -328 -15
-655 -6 -402 -12 -607 -20 -632 -8 -27 -23 -43 -56 -62 -51 -31 -80 -66 -132
-162 -43 -79 -74 -99 -165 -110 -123 -14 -181 12 -233 108 -41 76 -43 157 -10
478 37 352 37 493 1 623 -34 125 -47 151 -95 182 -122 77 -161 26 -181 -235
-17 -229 -42 -360 -75 -405 -13 -16 -31 -57 -40 -90 -28 -98 -35 -105 -110
-105 -35 0 -66 4 -69 8 -3 5 1 33 10 63 45 167 60 435 28 494 -22 40 -54 160
-54 201 0 40 -35 154 -65 215 -52 102 -134 174 -184 162 -68 -16 -137 -76
-176 -154 -34 -67 -128 -149 -169 -149 -78 0 -371 136 -443 206 -72 69 -62
101 65 202 52 41 54 67 8 136 -41 62 -105 123 -168 160 -55 32 -231 96 -265
96 -15 0 -42 -17 -71 -44 -45 -43 -47 -47 -47 -99 0 -48 4 -60 33 -94 75 -88
103 -139 109 -196 5 -53 -9 -117 -27 -117 -13 0 -39 -64 -45 -112 -8 -62 -21
-72 -78 -57 -69 17 -97 52 -108 138 -11 91 -27 120 -82 150 -42 23 -49 24 -94
12 -94 -24 -171 -32 -210 -22 -22 6 -72 39 -117 77 -44 36 -115 84 -159 105
-136 66 -273 185 -352 306 -89 134 -257 309 -356 370 -69 43 -189 83 -288 97
-107 15 -135 26 -151 56 -10 18 -21 20 -105 20 -65 0 -95 -4 -98 -12 -4 -10
-6 -10 -6 0 -1 6 -12 12 -26 12 -25 0 -25 -1 -24 -77z"/>
</g>
</svg>
