<?xml version="1.0" standalone="no"?>
<!DOCTYPE svg PUBLIC "-//W3C//DTD SVG 20010904//EN"
 "http://www.w3.org/TR/2001/REC-SVG-20010904/DTD/svg10.dtd">
<svg version="1.0" xmlns="http://www.w3.org/2000/svg"
 width="3000.000000pt" height="3000.000000pt" viewBox="0 0 3000.000000 3000.000000"
 preserveAspectRatio="xMidYMid meet">
<metadata>
Created by potrace 1.14, written by Peter Selinger 2001-2017
</metadata>
<g transform="translate(0.000000,3000.000000) scale(0.100000,-0.100000)"
fill="#000000" stroke="none">
<path d="M19141 29683 c0 -43 6 -109 13 -147 10 -60 15 -70 41 -83 17 -9 59
-35 95 -58 36 -23 138 -79 228 -125 237 -120 287 -175 313 -341 23 -146 -1
-270 -63 -325 -37 -34 -108 -71 -170 -89 -89 -25 -168 -84 -327 -243 -172
-172 -223 -211 -246 -192 -23 19 -77 114 -205 360 -131 251 -217 400 -271 464
-20 26 -45 68 -55 94 -28 74 -86 153 -197 266 -108 110 -156 146 -197 146 -14
0 -56 -12 -95 -26 -38 -14 -90 -33 -115 -42 -25 -8 -52 -20 -60 -27 -21 -17
-108 -45 -140 -45 -15 0 -52 14 -83 30 -75 40 -117 40 -151 0 -32 -39 -40 -83
-32 -182 8 -91 36 -169 146 -406 120 -259 150 -382 106 -431 -26 -28 -54 -27
-139 9 -79 33 -177 110 -177 140 0 31 -28 50 -74 50 -38 0 -48 -5 -84 -44 -22
-24 -43 -57 -46 -73 -9 -39 -58 -89 -103 -104 -53 -17 -160 -6 -224 23 -30 14
-78 44 -106 67 -140 111 -224 113 -373 12 -126 -86 -209 -110 -380 -111 -123
-1 -267 -13 -344 -31 l-55 -12 -20 -86 c-11 -47 -25 -129 -31 -181 -14 -117
-34 -162 -96 -221 -100 -93 -315 -235 -397 -261 -127 -39 -652 -33 -715 8 -40
26 -80 35 -209 44 -126 8 -140 13 -235 72 -58 36 -185 53 -338 44 -142 -8
-180 -18 -219 -58 -49 -50 -71 -125 -87 -288 -17 -180 -31 -222 -104 -318
-106 -141 -204 -224 -345 -292 -110 -54 -269 -177 -400 -311 -141 -144 -201
-193 -262 -213 -51 -17 -94 -50 -275 -214 -57 -52 -122 -106 -146 -120 -24
-15 -114 -74 -200 -131 -173 -114 -235 -147 -300 -157 -31 -5 -49 -14 -66 -36
-21 -27 -31 -31 -102 -38 -92 -10 -129 -22 -164 -55 -14 -13 -71 -47 -128 -75
-65 -33 -112 -64 -129 -85 -15 -18 -43 -82 -63 -141 -20 -60 -58 -154 -84
-209 -57 -119 -106 -247 -106 -278 -1 -38 -36 -102 -89 -161 -28 -30 -65 -84
-82 -118 -47 -94 -104 -162 -315 -379 -208 -214 -231 -248 -258 -376 -16 -73
-41 -286 -51 -423 -19 -266 -82 -493 -162 -581 -43 -48 -51 -90 -62 -349 -8
-182 -12 -214 -36 -285 -29 -88 -78 -180 -99 -188 -7 -3 -16 -24 -20 -47 -6
-38 -1 -52 44 -136 68 -128 97 -199 114 -284 9 -40 27 -92 41 -117 44 -73 66
-152 76 -264 4 -59 14 -119 21 -135 20 -49 23 -610 4 -769 -37 -309 -42 -760
-14 -1340 l11 -240 48 -120 c60 -149 75 -207 84 -321 8 -98 26 -158 55 -189
41 -44 52 -94 61 -274 9 -178 18 -227 51 -271 10 -15 22 -56 27 -101 12 -91
49 -196 107 -304 57 -108 73 -166 89 -328 8 -85 20 -150 30 -170 31 -58 35
-99 45 -374 6 -164 15 -300 24 -343 9 -43 43 -129 85 -218 39 -82 76 -173 82
-203 18 -81 97 -183 308 -403 278 -288 376 -400 406 -464 15 -31 51 -89 80
-128 61 -79 105 -166 105 -206 0 -45 30 -108 59 -123 27 -13 41 -40 76 -138
10 -27 70 -118 141 -213 144 -192 173 -239 237 -388 27 -60 70 -142 97 -184
28 -41 50 -83 50 -92 0 -20 33 -70 76 -117 16 -18 57 -83 89 -143 165 -305
269 -438 361 -461 90 -23 153 -106 293 -387 83 -165 144 -314 160 -390 13 -63
28 -89 101 -167 120 -131 170 -320 170 -638 0 -161 12 -225 47 -256 21 -18 35
-22 63 -18 99 13 159 74 344 352 126 188 226 359 247 420 22 66 93 151 287
342 l184 181 -7 90 c-10 128 13 992 31 1137 22 185 28 386 14 495 -7 52 -15
147 -17 210 l-5 114 -98 106 c-132 141 -213 245 -335 430 -348 528 -634 1200
-696 1639 -15 108 -6 365 15 446 41 152 90 219 307 420 47 44 94 96 104 115
10 19 24 83 31 143 15 121 27 174 46 200 8 10 38 22 78 28 77 14 113 30 157
72 l33 31 40 -33 c67 -53 110 -65 250 -65 153 0 208 14 385 93 168 76 214 91
281 91 65 0 118 -24 160 -72 78 -89 142 -115 379 -153 339 -54 436 -76 584
-137 104 -42 168 -80 251 -149 75 -62 132 -99 151 -99 30 0 162 -153 243 -280
109 -173 266 -381 350 -466 128 -128 247 -167 384 -125 90 27 108 26 144 -5
17 -14 40 -24 52 -22 18 3 22 12 26 58 3 33 14 70 28 92 19 30 25 57 29 130
12 198 -45 617 -92 681 -7 10 -22 17 -32 15 -35 -6 -44 -70 -54 -363 -10 -310
-14 -359 -36 -377 -20 -16 -138 -47 -186 -47 -47 -1 -64 23 -111 169 -46 139
-54 173 -67 270 -9 72 -8 85 11 126 11 25 42 71 70 101 27 30 52 67 55 81 11
51 46 108 116 188 39 43 87 103 107 133 25 37 46 57 66 62 86 23 291 310 346
484 41 128 244 468 343 573 37 39 61 41 83 6 15 -22 16 -34 6 -84 -24 -133
-111 -286 -248 -440 -112 -126 -118 -153 -42 -194 35 -19 35 -19 80 2 64 32
199 160 254 243 87 132 133 292 153 543 31 364 100 562 255 724 62 65 92 88
326 254 74 53 160 122 191 155 62 64 134 197 171 312 27 86 60 152 98 195 44
49 68 112 75 191 9 95 24 162 41 176 25 20 17 65 -17 93 -17 14 -35 26 -40 26
-18 0 -38 -47 -54 -130 -36 -179 -70 -249 -90 -187 -4 12 -11 195 -14 407 -7
370 -13 440 -39 440 -15 0 -39 -33 -61 -85 -38 -86 -92 -126 -145 -106 -31 12
-51 52 -61 124 -4 26 -11 47 -15 47 -4 0 -10 -39 -13 -86 -6 -108 -18 -122
-110 -134 -36 -4 -70 -11 -76 -15 -24 -14 -7 -47 65 -126 82 -90 108 -132 119
-196 4 -24 10 -43 15 -43 9 0 24 55 40 150 6 36 18 90 26 120 16 54 16 54 29
29 31 -58 55 -586 36 -800 -11 -130 -29 -187 -91 -286 -100 -158 -181 -238
-236 -231 -46 5 -49 23 -35 180 7 79 9 156 6 171 -16 63 -109 36 -147 -41 -20
-40 -24 -67 -28 -192 -7 -189 -19 -210 -134 -234 -121 -26 -122 -27 -160 -301
-32 -224 -50 -261 -98 -200 -27 34 -81 48 -174 44 -85 -4 -156 -32 -162 -62
-3 -15 5 -16 70 -11 66 5 76 4 108 -18 73 -49 90 -139 42 -220 -42 -73 -177
-222 -275 -305 -117 -97 -152 -120 -211 -133 -27 -6 -58 -16 -70 -22 -31 -16
-76 -59 -92 -90 -15 -28 -20 -128 -6 -128 4 0 25 29 45 64 52 88 59 93 97 66
85 -61 66 -124 -82 -273 -80 -80 -100 -107 -109 -143 -8 -30 -22 -51 -46 -70
-19 -14 -50 -49 -68 -78 -37 -57 -83 -103 -136 -134 -42 -25 -81 -79 -139
-190 -52 -100 -72 -116 -133 -107 -52 8 -61 -1 -70 -74 -6 -45 -62 -171 -77
-171 -15 0 -114 89 -142 128 -16 22 -27 50 -28 71 0 35 12 49 133 158 52 48
87 108 87 151 0 51 29 116 72 160 50 50 34 55 -35 10 -57 -37 -104 -96 -113
-143 -10 -56 -41 -76 -128 -82 -42 -3 -83 -11 -92 -18 -12 -8 -18 -33 -22 -89
-2 -42 -8 -78 -11 -81 -12 -7 -186 60 -220 84 -20 14 -28 27 -24 35 12 18 86
82 190 165 113 89 180 161 193 210 11 42 55 87 117 121 61 33 73 71 73 223 0
141 -11 197 -40 197 -33 0 -51 -43 -61 -146 -12 -136 -20 -154 -95 -219 -46
-41 -64 -64 -64 -81 0 -14 -7 -38 -15 -53 -20 -39 -119 -127 -149 -133 -15 -3
-48 5 -80 20 -30 13 -61 22 -69 19 -8 -3 -16 -25 -19 -52 -8 -65 -25 -79 -98
-80 -48 0 -64 4 -81 21 l-21 22 37 92 c33 82 36 98 30 149 -9 79 11 176 44
213 22 25 37 30 102 37 84 9 117 25 126 59 11 46 -9 47 -142 12 -111 -29 -129
-37 -150 -65 -43 -55 -68 -126 -76 -213 -9 -102 -24 -127 -96 -158 -160 -71
-603 -46 -780 45 -85 43 -61 70 77 86 115 14 173 39 178 76 8 70 -109 86 -217
30 -58 -30 -111 -41 -111 -22 0 15 -66 41 -131 53 -100 17 -179 0 -337 -76
-161 -76 -243 -100 -316 -92 -181 21 -188 21 -282 -19 -127 -53 -149 -58 -176
-44 -13 7 -53 39 -91 71 -41 35 -77 58 -91 58 -45 0 -156 -119 -156 -167 0
-11 -30 -81 -67 -154 l-67 -134 -1 -107 c-2 -101 -4 -110 -31 -145 -15 -21
-35 -44 -44 -51 -20 -18 -112 -62 -128 -62 -7 0 -28 25 -47 55 -82 127 -117
92 -129 -130 -3 -60 -13 -139 -22 -175 -26 -111 -33 -156 -44 -293 -19 -221
-14 -403 15 -613 32 -230 45 -283 94 -382 22 -42 53 -124 71 -182 41 -133 76
-202 133 -262 24 -26 49 -60 55 -75 5 -15 17 -48 26 -73 9 -25 28 -58 42 -75
31 -37 52 -84 65 -149 12 -63 47 -126 114 -205 30 -35 65 -87 78 -115 28 -58
67 -110 210 -275 109 -127 177 -225 196 -284 8 -24 10 -60 6 -100 -6 -53 -3
-75 20 -142 25 -76 27 -88 22 -225 -3 -115 -10 -172 -35 -275 -16 -71 -38
-179 -48 -240 -21 -134 -24 -382 -6 -515 7 -52 17 -151 22 -220 l8 -125 -51
-49 c-71 -66 -228 -192 -305 -243 -75 -51 -102 -53 -187 -18 -78 32 -102 32
-117 0 -24 -52 47 -135 115 -135 46 0 67 -17 67 -53 0 -62 -128 -293 -207
-376 l-45 -46 -20 25 c-24 29 -20 61 22 159 39 91 39 105 0 96 -26 -6 -31 -3
-42 22 -50 119 -92 197 -137 253 -69 85 -94 135 -87 171 8 43 -16 108 -71 190
-27 41 -85 144 -129 229 -139 270 -230 385 -368 465 -92 53 -143 114 -212 248
-71 138 -120 220 -184 303 -58 75 -122 191 -183 329 -68 153 -96 245 -111 358
-14 110 -27 147 -51 147 -24 0 -35 -35 -35 -112 l-1 -73 -34 60 c-46 80 -53
119 -29 163 24 45 22 146 -3 222 -41 123 -92 75 -93 -87 0 -35 -4 -63 -9 -63
-22 0 -85 117 -130 242 -50 140 -71 178 -128 236 -18 18 -52 67 -75 110 -51
93 -163 233 -318 400 -275 296 -373 424 -435 571 -41 98 -83 181 -101 202 -20
23 -31 141 -39 399 -7 272 -16 334 -60 425 -25 53 -36 93 -45 165 -26 223 -43
289 -110 434 -17 38 -39 105 -49 150 -19 85 -39 134 -65 156 -26 20 -54 137
-60 245 -4 55 -13 136 -21 180 -65 358 -65 357 -160 675 -29 96 -37 227 -17
276 8 19 27 38 48 48 27 12 35 22 32 39 -3 20 -9 22 -63 22 l-60 0 -13 40
c-11 32 -13 145 -9 560 4 541 6 571 48 624 38 48 51 119 56 296 6 196 -10 315
-51 398 -39 77 -46 109 -55 252 -9 137 -16 162 -67 236 -33 50 -50 103 -59
191 -5 42 -14 67 -35 93 -17 21 -32 55 -36 80 -11 78 34 264 72 296 13 11 19
9 33 -10 21 -28 47 -25 72 9 41 56 109 377 109 514 0 75 -9 96 -43 96 -30 0
-49 -64 -58 -200 -9 -145 -23 -210 -51 -245 -24 -31 -44 -32 -52 -2 -12 45 -6
312 9 382 13 61 20 74 54 102 21 18 42 45 46 60 7 31 55 101 125 183 95 112
96 116 44 233 -57 131 -62 200 -16 251 26 28 32 59 42 198 6 80 15 130 28 161
24 55 134 168 192 197 46 23 94 85 210 267 41 65 105 162 143 216 81 115 114
185 127 263 5 31 17 68 27 82 44 61 53 79 53 107 0 44 51 126 112 179 29 26
101 76 160 112 112 68 198 142 198 170 0 14 -7 16 -37 11 -21 -3 -46 -8 -55
-12 -27 -11 -23 30 5 50 12 8 67 29 122 46 198 61 437 193 542 301 28 29 70
64 92 78 46 27 159 110 261 190 91 71 178 118 239 130 94 18 175 80 188 144
13 64 228 252 414 363 145 86 285 215 411 380 70 90 113 170 137 251 12 39 25
72 29 72 4 0 29 -11 56 -25 75 -38 156 -30 156 15 0 10 -27 41 -62 72 -94 81
-150 138 -145 151 7 22 65 27 202 17 248 -19 504 -64 563 -100 41 -25 40 -38
-3 -56 -53 -22 -231 -63 -305 -70 -36 -4 -79 -12 -97 -19 -59 -24 -81 -95 -34
-110 10 -3 75 -10 143 -14 71 -5 141 -16 162 -25 21 -9 46 -16 55 -16 29 0
115 52 172 104 143 132 321 183 388 112 13 -13 25 -42 28 -64 5 -34 1 -45 -20
-66 -18 -17 -37 -26 -59 -26 -58 0 -183 -88 -275 -192 -76 -87 -71 -134 22
-186 35 -19 72 -50 88 -72 19 -27 40 -43 65 -50 65 -18 199 -11 312 15 58 14
117 25 131 25 14 0 52 -17 85 -37 136 -84 139 -85 242 -78 l94 7 49 -51 c54
-56 65 -61 74 -30 21 64 106 115 153 90 19 -10 20 -20 19 -113 -1 -97 0 -107
32 -175 19 -40 39 -73 46 -73 9 0 14 37 17 133 7 205 32 234 193 224 127 -8
152 -19 165 -70 22 -85 32 -107 57 -127 32 -25 108 -48 188 -56 81 -8 105 4
225 121 52 51 109 99 126 108 37 19 191 37 320 37 159 0 284 30 333 79 30 30
28 85 -4 116 -27 27 -43 30 -95 15 -66 -19 -196 -31 -440 -40 -135 -5 -264
-12 -286 -16 -48 -7 -59 -23 -69 -107 -5 -39 -14 -62 -30 -77 -28 -26 -100
-42 -141 -31 -24 6 -30 16 -47 79 -11 40 -17 76 -14 79 12 11 93 22 167 23
l75 1 -72 69 c-66 63 -77 70 -114 70 -22 0 -73 -11 -112 -24 -128 -43 -262
-61 -542 -72 -199 -7 -406 8 -498 36 -76 24 -146 25 -218 3 -101 -30 -364 -12
-448 32 -61 31 -29 86 64 110 33 8 126 19 206 24 139 9 208 24 223 50 10 15
-9 45 -36 58 -13 6 -48 22 -78 37 -60 27 -90 65 -90 113 0 52 24 67 138 89
169 32 297 88 497 218 245 160 257 164 567 175 218 8 284 19 276 43 -6 17 -63
32 -274 72 -189 37 -242 54 -263 88 -7 11 -15 69 -18 129 l-6 109 138 0 c76 0
136 -3 132 -6 -3 -4 -39 -21 -79 -38 -88 -38 -98 -59 -36 -77 62 -19 582 -19
600 -1 21 21 -3 46 -58 59 -27 7 -104 17 -171 22 -153 12 -178 23 -103 45 29
9 59 16 66 16 27 0 173 55 230 86 33 19 74 34 90 34 16 0 67 -17 114 -36 205
-87 211 -88 375 -89 133 0 150 -2 153 -17 2 -12 -7 -20 -36 -27 -21 -6 -60
-27 -86 -47 -95 -72 -270 -303 -302 -398 -15 -42 -15 -49 0 -71 32 -49 136
-41 136 11 0 25 66 128 113 174 17 18 46 38 63 46 42 18 91 75 153 175 100
165 163 229 221 229 15 0 56 -15 91 -34 147 -77 258 -48 317 84 l20 45 18 -45
c99 -243 300 -572 379 -619 20 -11 38 -28 42 -37 3 -8 -7 -57 -23 -107 -35
-114 -40 -246 -11 -290 26 -40 96 -87 129 -87 33 0 35 14 12 68 -39 89 -56
203 -34 217 6 4 28 -9 50 -28 96 -82 219 -87 372 -15 166 79 270 159 394 301
26 31 48 47 63 47 22 0 23 -3 18 -45 -6 -37 -3 -48 18 -73 13 -15 42 -37 64
-47 23 -10 41 -22 41 -26 0 -15 -85 -77 -265 -194 -247 -161 -305 -220 -240
-245 36 -14 99 2 225 57 175 76 255 127 360 235 104 106 172 158 204 158 12 0
35 -16 53 -37 l31 -38 0 56 c-1 66 37 160 72 179 26 14 29 11 55 -43 38 -80
72 -55 104 79 49 198 46 285 -9 292 -55 8 -90 68 -90 154 0 91 40 139 171 206
40 20 77 45 83 55 18 28 -4 52 -52 55 -77 6 -186 -65 -274 -176 -85 -109 -259
-201 -413 -217 -51 -6 -64 -4 -84 12 l-24 19 32 37 c18 20 74 60 124 89 52 29
114 75 142 104 54 55 90 77 144 88 19 3 76 26 127 51 82 39 96 50 121 92 27
46 28 54 26 157 -2 75 2 116 11 134 l13 25 18 -27 c10 -16 31 -62 45 -104 28
-78 50 -104 50 -58 0 75 55 18 103 -107 67 -175 85 -317 67 -516 -14 -159 -6
-217 36 -262 17 -18 34 -60 54 -138 92 -350 260 -383 178 -36 -33 143 -34 168
-5 217 14 24 62 86 107 138 48 55 96 125 118 169 34 68 37 82 36 155 0 94 -27
169 -65 181 -30 10 -45 -12 -52 -76 -8 -66 -41 -133 -89 -181 -32 -32 -42 -37
-54 -27 -24 19 -44 108 -44 193 0 155 -24 241 -100 357 -38 59 -49 106 -26
115 50 19 220 -115 231 -184 22 -132 97 -166 296 -137 76 11 115 13 123 6 15
-13 40 -181 40 -271 0 -56 -5 -76 -37 -137 -20 -39 -57 -130 -82 -203 -56
-164 -93 -240 -150 -311 -46 -55 -59 -102 -31 -112 21 -8 70 8 132 43 29 16
62 30 73 30 23 0 99 -86 131 -147 43 -83 11 -108 -125 -96 -49 4 -124 7 -165
8 l-75 0 3 -47 c2 -26 -2 -57 -8 -68 -25 -46 -173 -91 -365 -110 -175 -18
-175 -18 -175 -45 0 -13 12 -38 27 -57 53 -64 167 -193 172 -195 3 -1 26 27
51 64 49 71 81 93 171 118 43 11 68 26 109 66 70 68 134 96 261 114 193 29
205 36 225 145 16 82 7 142 -31 229 -45 99 -47 145 -15 341 16 96 32 223 35
283 5 74 12 112 22 122 11 11 41 15 123 15 60 0 120 4 133 9 33 13 51 60 45
123 -6 57 12 124 45 171 10 15 24 26 30 24 6 -2 19 -27 29 -57 10 -30 28 -65
41 -78 61 -68 373 -237 492 -267 73 -19 155 -19 198 -1 55 22 120 105 162 206
21 50 41 93 45 95 15 9 107 -141 128 -205 11 -36 23 -97 26 -136 3 -38 13 -92
21 -120 10 -33 15 -94 15 -191 0 -125 -4 -163 -35 -310 -20 -92 -42 -177 -50
-190 -28 -42 -118 -49 -183 -14 -57 30 -66 109 -48 416 8 135 8 141 -13 168
-13 15 -28 27 -35 27 -25 0 -96 60 -96 81 0 29 -53 79 -84 79 -13 0 -27 4 -30
9 -8 12 -75 -14 -145 -56 -66 -40 -101 -47 -195 -41 -61 4 -87 12 -154 46
-132 68 -322 95 -371 53 l-22 -19 104 -104 c133 -133 149 -162 155 -295 6
-129 1 -138 -77 -128 -31 4 -82 15 -114 25 -58 18 -87 17 -87 -2 0 -26 45 -79
93 -109 29 -18 67 -46 85 -63 27 -26 42 -31 97 -34 80 -5 295 7 295 17 0 4
-26 19 -57 35 -105 51 -173 96 -173 116 0 25 65 80 94 80 13 0 48 -11 78 -25
66 -31 83 -31 133 0 31 19 54 24 102 25 55 0 66 -3 97 -30 43 -38 66 -95 73
-181 5 -54 3 -67 -10 -72 -17 -7 -88 5 -155 25 -57 17 -85 1 -127 -70 -47 -80
-80 -110 -141 -128 -109 -31 -238 12 -374 125 -40 34 -81 60 -89 59 -39 -9 4
-132 79 -226 52 -66 113 -92 249 -103 120 -10 224 -32 278 -60 29 -15 59 -19
130 -19 51 0 93 -3 93 -6 0 -3 -12 -22 -27 -42 -89 -123 -142 -148 -290 -139
-77 4 -105 11 -158 36 -102 49 -211 37 -227 -26 -10 -40 -39 -49 -168 -57
-109 -6 -192 -28 -302 -81 -86 -41 -106 -42 -301 -15 -91 13 -102 13 -145 -4
-115 -44 -277 -75 -399 -78 -58 -1 -73 17 -73 86 0 62 -31 128 -75 162 -43 32
-125 61 -217 75 -40 6 -99 20 -131 31 -55 20 -60 20 -93 4 -25 -11 -75 -18
-172 -22 -203 -9 -237 -21 -194 -73 26 -33 86 -42 347 -51 135 -4 257 -13 279
-20 59 -18 83 -48 91 -115 18 -143 -51 -152 -127 -18 -16 29 -34 56 -40 59 -6
4 -20 -5 -32 -19 -31 -39 -87 -47 -391 -57 -288 -10 -392 -21 -483 -49 -31
-10 -91 -26 -132 -35 -130 -29 -154 -37 -200 -66 -56 -34 -126 -56 -206 -64
-83 -9 -161 -39 -201 -78 -83 -81 -146 -223 -168 -383 -11 -76 -26 -132 -57
-207 -40 -97 -43 -109 -43 -201 0 -92 2 -100 24 -118 13 -11 29 -18 35 -16 18
5 73 115 102 202 51 151 92 215 141 215 48 0 112 40 153 94 22 28 64 102 95
163 81 161 129 202 315 262 116 37 253 68 510 116 402 75 489 82 565 42 48
-25 180 -45 367 -57 95 -6 196 -15 224 -21 59 -11 77 -6 153 45 66 45 131 49
201 14 50 -26 62 -61 23 -66 -32 -5 -29 -19 17 -68 50 -54 56 -79 43 -184 -6
-47 -10 -86 -9 -87 0 -1 210 -4 466 -8 487 -7 1407 -39 1547 -55 112 -12 177
-41 205 -91 16 -28 37 -47 76 -66 47 -23 72 -27 210 -35 220 -14 493 -5 557
18 61 21 200 153 210 200 10 44 21 64 75 132 55 70 64 108 30 142 -40 40 -130
17 -130 -33 0 -24 -40 -47 -81 -47 -27 0 -54 12 -100 43 -60 40 -68 42 -134
41 -38 0 -106 -4 -149 -10 l-79 -9 -34 -60 c-38 -69 -70 -161 -59 -172 4 -4
28 1 54 11 208 80 262 93 360 81 84 -10 90 -15 72 -66 -8 -23 -26 -50 -40 -60
-54 -38 -324 -52 -453 -23 -79 18 -118 34 -252 100 -112 55 -185 66 -363 53
-174 -11 -478 -11 -647 1 -315 24 -693 74 -754 101 l-44 19 5 45 c8 71 -3 79
-121 83 -109 5 -191 -4 -191 -19 0 -5 15 -18 33 -30 24 -15 42 -19 77 -14 94
11 93 11 108 -15 13 -22 12 -30 -1 -63 -23 -53 -90 -83 -222 -95 -140 -14
-145 -11 -145 111 0 69 -5 103 -20 135 -10 23 -17 49 -13 58 3 8 26 31 51 50
96 73 220 91 777 114 229 10 293 19 415 60 42 14 86 20 150 20 97 0 160 18
160 45 0 21 -40 35 -99 35 -54 0 -87 19 -78 43 16 43 220 137 297 137 61 0
109 -88 95 -177 -8 -56 -54 -110 -101 -119 -19 -3 -36 -9 -39 -13 -5 -9 17
-43 73 -111 42 -52 56 -100 28 -100 -8 0 -27 5 -43 11 -39 15 -108 27 -253 45
-154 19 -195 30 -215 61 -23 34 -69 29 -73 -8 -2 -15 -11 -34 -20 -42 -17 -15
-90 -40 -149 -52 -32 -6 -50 -21 -40 -31 3 -3 41 -10 84 -15 220 -26 338 -43
438 -65 173 -37 293 -54 382 -54 72 0 85 3 111 25 24 20 41 25 84 25 115 0
215 -41 342 -139 l80 -62 67 68 c608 620 692 713 759 843 65 127 94 233 85
308 -12 103 -16 619 -4 599 15 -25 29 -172 29 -307 0 -138 18 -217 62 -273 39
-49 40 -81 4 -167 -42 -100 -48 -110 -75 -123 -27 -13 -41 -47 -20 -47 24 0
186 84 249 130 36 26 114 80 173 119 127 85 257 196 294 253 21 31 32 38 52
36 21 -2 28 -11 36 -43 15 -59 21 -65 67 -61 33 3 49 12 78 43 27 30 50 43 88
52 28 7 56 10 62 6 16 -10 12 -82 -5 -89 -16 -6 -21 -36 -6 -36 5 0 31 -20 58
-45 65 -62 55 -67 -122 -59 -159 8 -178 3 -234 -61 -39 -45 -56 -86 -76 -180
-29 -142 -14 -231 45 -255 16 -7 57 -15 91 -19 67 -8 89 -25 89 -71 0 -35 -22
-63 -72 -93 -58 -34 -210 -81 -342 -106 -112 -22 -182 -47 -202 -72 -21 -26
-26 -75 -9 -89 35 -29 293 19 377 70 23 14 42 18 65 14 43 -8 98 20 192 96 41
33 75 60 76 60 5 0 106 -131 124 -162 l22 -36 -55 -25 c-38 -17 -86 -57 -160
-129 -91 -90 -106 -109 -106 -136 0 -61 72 -55 153 13 78 66 123 87 198 93
117 8 178 -30 166 -104 -7 -42 -22 -63 -54 -75 -32 -12 -46 -54 -38 -117 9
-69 29 -117 71 -166 38 -45 42 -61 17 -71 -10 -3 -111 -13 -224 -20 -230 -16
-286 -26 -344 -58 -100 -56 -193 -279 -140 -337 18 -20 21 -50 11 -106 -9 -49
0 -58 64 -68 25 -4 72 -20 105 -36 106 -51 236 -75 262 -49 25 25 -16 69 -132
145 -181 118 -208 157 -169 240 27 56 57 74 113 67 34 -4 78 2 152 21 165 41
177 40 265 -20 81 -56 148 -94 164 -94 7 0 30 -14 51 -31 46 -36 70 -102 62
-171 -4 -30 0 -55 11 -76 25 -49 22 -241 -6 -365 -27 -117 -22 -131 44 -135
32 -2 51 2 68 16 21 17 24 31 31 124 15 211 88 282 108 105 12 -106 36 -141
120 -179 148 -65 156 -70 161 -108 l5 -35 85 -12 c139 -20 300 -32 575 -43
256 -10 353 -16 407 -26 53 -10 58 -120 8 -166 -24 -23 -25 -53 -5 -103 17
-38 21 -117 16 -273 -3 -72 0 -97 13 -117 36 -56 107 -78 146 -47 23 19 24 21
10 63 -12 34 -15 100 -15 279 0 257 8 350 30 350 18 0 40 -43 49 -95 4 -22 16
-60 27 -85 25 -56 27 -122 5 -152 -62 -87 -69 -99 -60 -117 10 -21 110 -111
124 -111 5 0 15 12 22 28 12 24 20 27 65 30 94 5 118 -29 63 -92 -39 -44 -55
-93 -64 -189 -9 -107 -10 -107 -65 -104 -40 2 -46 -1 -49 -19 -2 -12 12 -41
33 -69 34 -43 36 -50 25 -76 -16 -37 -77 -91 -98 -87 -10 2 -32 33 -51 71 -24
48 -40 69 -58 73 -42 11 -43 -2 -20 -151 35 -222 49 -657 23 -718 -8 -20 -36
-49 -67 -72 -69 -49 -196 -157 -324 -275 l-100 -93 -35 43 c-99 122 -110 125
-110 32 0 -66 30 -129 70 -149 28 -14 82 -16 155 -3 28 4 51 6 53 5 2 -2 -4
-14 -13 -28 -11 -17 -15 -42 -13 -78 l3 -53 -50 -9 c-68 -11 -88 -31 -82 -79
3 -21 16 -51 30 -68 28 -33 70 -134 65 -158 -4 -21 -166 -100 -220 -108 -65
-9 -94 20 -103 102 -7 67 -20 104 -35 104 -18 0 -50 -64 -50 -100 0 -57 -19
-110 -53 -145 -45 -47 -71 -52 -102 -21 -31 31 -31 50 1 159 30 104 27 122
-19 113 -74 -15 -90 -78 -67 -264 17 -138 19 -136 -142 -129 -104 5 -118 4
-123 -11 -3 -9 -29 -31 -58 -49 -117 -71 -197 -161 -197 -222 0 -29 -13 -54
-67 -124 -49 -66 -66 -96 -65 -119 2 -66 -42 -128 -90 -128 -16 0 -38 -5 -49
-10 -23 -13 -73 10 -89 40 -6 11 -17 20 -25 20 -12 0 -15 -23 -15 -134 0 -73
3 -160 6 -193 l6 -59 99 -11 c107 -12 192 -44 244 -92 51 -47 62 -52 141 -71
42 -11 81 -23 87 -29 6 -6 -3 -40 -26 -98 -47 -119 -55 -179 -62 -448 -3 -126
-8 -258 -11 -292 -6 -58 -5 -63 13 -63 27 0 53 -32 97 -121 24 -50 38 -93 40
-125 1 -27 10 -76 18 -109 46 -175 50 -210 43 -342 -7 -142 3 -233 36 -307 27
-62 44 -364 31 -545 -9 -132 -18 -151 -67 -151 -21 0 -75 47 -75 66 0 6 -14
20 -30 33 -30 22 -30 22 -73 3 -23 -10 -71 -48 -105 -83 -63 -63 -211 -243
-286 -347 l-38 -52 30 17 c28 16 30 16 81 -17 29 -19 58 -45 65 -58 13 -24 13
-23 60 43 68 94 266 295 293 295 23 0 103 -81 103 -104 0 -29 -58 -62 -141
-80 -41 -9 -112 -69 -204 -173 -58 -65 -84 -101 -80 -113 7 -22 -34 -82 -69
-98 -18 -9 -25 -19 -22 -29 8 -20 -19 -69 -49 -89 -26 -17 -40 -57 -70 -194
-10 -41 -30 -108 -46 -148 -16 -41 -29 -84 -29 -96 0 -38 -12 -38 -53 1 l-39
38 6 -35 c28 -176 41 -239 66 -340 58 -232 79 -452 80 -855 1 -115 5 -230 11
-255 6 -25 14 -66 18 -91 4 -27 18 -60 34 -78 15 -18 27 -38 27 -44 0 -7 14
-30 30 -51 17 -22 30 -47 30 -56 0 -25 76 -124 177 -229 320 -336 420 -477
492 -699 45 -138 85 -427 63 -455 -5 -6 -12 -41 -14 -77 -3 -36 -13 -81 -23
-100 -20 -40 -74 -100 -89 -100 -6 0 -22 -19 -36 -41 -46 -76 -155 -142 -366
-223 -67 -26 -150 -65 -185 -86 -35 -22 -112 -65 -171 -95 -149 -76 -227 -159
-279 -294 -17 -47 -17 -51 -1 -83 9 -18 18 -64 20 -103 2 -38 8 -74 13 -80 5
-5 9 -26 9 -47 0 -28 4 -38 16 -38 11 0 14 -5 9 -17 -37 -93 -50 -193 -70
-536 -27 -477 -46 -533 -262 -758 -118 -123 -173 -197 -229 -309 -112 -225
-108 -320 30 -591 l74 -147 -65 -103 c-91 -144 -181 -258 -291 -367 -70 -69
-97 -90 -103 -80 -7 10 -9 10 -9 -2 0 -8 -35 -38 -77 -67 -148 -97 -410 -366
-473 -484 -51 -96 -62 -176 -54 -380 8 -202 4 -236 -33 -275 -31 -34 -53 -84
-53 -122 0 -45 -27 -110 -59 -148 -37 -42 -50 -84 -60 -199 -11 -112 -28 -154
-90 -220 -26 -28 -54 -68 -61 -90 -33 -103 -266 -357 -376 -411 l-59 -29 -325
0 c-449 1 -746 32 -945 100 -208 72 -398 72 -465 0 -29 -30 -40 -32 -40 -5 0
12 -7 34 -15 49 -14 29 -142 152 -154 149 -3 -1 -23 4 -44 11 -49 16 -63 10
-72 -31 -4 -18 -13 -42 -20 -53 -24 -38 31 -1394 58 -1421 3 -3 43 9 90 26
l84 32 7 136 c11 244 7 390 -14 467 -47 168 -60 228 -80 360 -25 165 -25 340
0 340 8 0 24 -16 37 -35 12 -19 28 -41 34 -48 6 -7 30 -54 54 -105 43 -93 65
-164 65 -212 0 -14 11 -48 25 -74 24 -48 50 -72 110 -101 67 -33 167 -152 249
-296 90 -158 159 -260 241 -354 76 -86 136 -167 159 -212 60 -118 667 -572
976 -730 69 -35 215 -123 326 -195 204 -133 324 -203 350 -203 16 0 161 -65
384 -173 85 -41 180 -83 210 -92 74 -24 223 -92 600 -275 362 -175 572 -270
597 -270 25 0 109 -43 165 -84 26 -19 77 -44 112 -56 35 -11 70 -28 76 -36 7
-8 17 -14 22 -14 6 0 24 -10 41 -22 18 -13 41 -28 52 -34 44 -23 72 -41 121
-76 28 -20 84 -55 125 -77 95 -52 134 -75 189 -111 66 -43 269 -140 293 -140
7 0 53 -21 102 -46 50 -26 113 -55 142 -65 188 -64 596 -318 759 -471 64 -60
118 -84 219 -97 96 -12 144 -31 249 -100 43 -28 87 -51 98 -51 11 0 51 -34 96
-82 200 -215 299 -300 526 -453 118 -80 223 -185 279 -282 70 -119 108 -225
187 -513 17 -63 38 -139 46 -167 l15 -53 91 0 c89 0 90 0 84 23 -4 12 -12 56
-18 97 -10 80 -39 178 -81 276 -16 36 -30 96 -36 149 -31 268 -139 398 -579
695 -167 112 -239 177 -298 265 -82 124 -318 280 -544 359 -83 29 -110 45
-337 197 -280 188 -385 243 -838 435 -329 140 -349 150 -422 202 -17 12 -34
22 -37 22 -4 0 -19 8 -34 18 -15 11 -45 31 -68 46 -23 15 -56 48 -74 74 -75
106 -119 135 -260 171 -85 21 -133 42 -290 126 -47 25 -107 52 -135 61 -73 24
-349 151 -595 274 -242 121 -397 191 -645 292 -93 38 -199 87 -235 108 -36 22
-112 58 -170 80 -177 70 -303 139 -620 340 -63 40 -131 80 -150 88 -53 22
-314 187 -405 256 -123 93 -276 227 -428 376 -96 94 -149 139 -175 147 -20 6
-86 27 -147 45 l-110 33 73 5 73 5 -68 87 c-37 48 -83 113 -102 145 -129 220
-198 310 -315 416 -86 78 -116 126 -116 190 0 36 -4 46 -20 50 -15 4 -20 13
-20 39 0 43 8 54 54 73 68 29 152 21 263 -23 120 -48 195 -67 343 -86 169 -22
765 -56 991 -56 l85 0 200 198 c174 171 205 206 232 263 17 36 52 90 79 120
27 30 59 68 71 85 29 42 52 134 52 209 0 73 14 125 44 170 13 19 27 56 31 82
8 59 36 124 63 149 11 10 43 48 71 83 59 74 63 98 26 171 -35 69 -49 169 -35
256 23 146 88 261 216 383 143 137 270 220 372 241 47 11 52 15 76 63 14 29
64 97 111 152 103 120 209 274 261 381 59 118 56 144 -34 327 -79 158 -112
245 -112 286 1 68 104 243 177 298 123 94 179 170 316 428 l84 160 7 488 c6
453 18 752 32 837 4 19 18 48 33 64 83 90 485 304 605 322 23 4 52 17 66 30
14 12 37 25 51 29 14 4 64 42 110 86 46 44 98 91 116 104 33 26 74 103 100
190 32 103 14 556 -27 718 -42 161 -103 253 -325 487 -81 85 -160 173 -174
195 -14 22 -41 52 -59 68 -18 16 -58 68 -89 116 -31 47 -73 106 -93 131 -20
25 -49 74 -64 110 -16 36 -35 75 -42 87 -19 31 -18 197 2 298 12 63 15 143 14
373 -1 307 9 430 40 519 10 30 14 55 9 58 -13 9 -11 59 3 73 9 9 9 15 0 24
-18 18 -14 63 6 81 11 10 35 17 57 17 35 0 46 -7 92 -56 l53 -55 25 25 c14 14
25 36 25 49 0 41 -49 123 -124 209 -40 46 -87 103 -104 127 l-32 43 23 32 c77
109 344 354 432 395 100 48 194 157 209 243 4 20 22 59 41 87 19 28 35 54 35
58 0 4 -11 23 -24 42 -34 50 -45 128 -52 381 -6 241 -17 337 -46 393 -16 29
-23 70 -29 170 -12 181 -32 287 -74 389 -23 55 -39 116 -45 170 -6 45 -17 101
-25 123 -32 91 -56 537 -36 674 23 158 75 244 153 255 147 20 196 30 232 45
22 10 79 28 126 40 104 28 132 42 155 77 26 39 23 86 -7 131 -38 55 -45 79
-53 179 -8 95 4 182 30 238 23 48 167 205 297 324 81 73 133 112 186 137 119
58 302 251 302 320 0 83 294 346 528 472 120 65 196 133 235 209 33 65 45 112
56 223 9 79 17 106 60 198 28 58 51 116 51 129 0 12 -16 44 -36 70 -98 128
-97 220 2 346 129 164 159 381 185 1306 l13 433 -55 55 c-91 93 -133 118 -215
125 -63 5 -92 15 -230 82 -88 41 -176 79 -197 83 -50 9 -85 39 -137 119 -79
121 -127 252 -149 409 -7 46 -24 97 -50 150 -47 93 -61 181 -61 376 0 216 -31
365 -83 404 -22 16 -42 20 -86 19 -76 -1 -98 -14 -123 -71 -28 -62 -31 -195
-6 -234 14 -21 20 -89 37 -398 12 -204 21 -391 21 -415 l0 -43 -71 -17 c-81
-20 -127 -12 -176 29 -45 38 -88 55 -156 65 -36 5 -74 14 -85 20 -45 24 -100
101 -123 173 -21 65 -24 89 -22 223 1 153 12 247 34 323 11 37 11 47 -3 75 -9
17 -22 68 -28 112 -14 96 -36 149 -82 201 -41 45 -58 75 -58 101 0 34 -59 143
-143 266 -47 67 -103 156 -127 197 -23 41 -66 100 -95 130 -39 42 -56 70 -69
112 -26 91 -114 176 -301 292 -49 31 -102 67 -118 81 -15 14 -34 25 -42 25
-40 0 -445 220 -570 308 -216 155 -486 264 -699 283 -74 6 -128 17 -170 34
-75 30 -98 31 -155 5 -24 -11 -49 -20 -56 -20 -21 0 -25 -94 -34 -720 -6 -402
-12 -607 -20 -632 -8 -26 -23 -43 -54 -61 -56 -33 -74 -54 -128 -150 -59 -106
-87 -122 -215 -122 -82 0 -94 3 -131 27 -97 64 -109 163 -68 558 31 301 37
504 16 565 -19 57 -76 170 -111 220 -55 80 -126 69 -154 -25 -8 -28 -20 -117
-26 -198 -16 -202 -43 -345 -74 -392 -13 -20 -34 -69 -45 -108 -14 -45 -30
-77 -44 -87 -26 -18 -97 -20 -120 -2 -15 11 -15 17 2 85 30 114 43 237 40 357
-4 96 -7 114 -27 141 -18 24 -27 56 -37 140 -20 156 -58 257 -130 345 -46 55
-90 81 -124 72 -69 -16 -131 -71 -180 -158 -41 -72 -124 -145 -166 -145 -79 0
-366 133 -440 203 -74 72 -65 103 63 205 31 24 42 40 42 61 0 52 -69 121 -218
217 -113 74 -174 103 -226 110 -41 6 -47 4 -90 -36 -78 -72 -75 -128 13 -239
61 -76 81 -122 81 -184 0 -36 -17 -87 -30 -87 -13 0 -39 -65 -45 -112 -3 -25
-12 -51 -20 -58 -20 -16 -88 4 -126 38 -26 23 -32 37 -39 99 -11 89 -30 126
-69 143 -39 16 -127 16 -211 1 -88 -16 -132 -3 -207 61 -78 68 -151 114 -217
139 -55 20 -165 98 -239 168 -21 20 -54 69 -74 110 -29 61 -55 94 -156 195
-193 192 -301 254 -488 281 -105 14 -133 25 -149 55 -8 16 -21 20 -59 20 l-48
0 -18 -61 -17 -62 -36 62 c-28 46 -42 61 -59 61 -22 0 -23 -3 -22 -77z m256
-123 c62 0 95 -15 91 -43 -2 -14 -11 -23 -26 -25 -29 -4 -104 33 -139 70 l-28
29 30 -15 c17 -9 49 -16 72 -16z m-1262 -364 c31 -42 181 -350 194 -403 6 -22
20 -89 30 -147 13 -70 30 -126 52 -168 17 -35 38 -85 45 -113 20 -72 28 -205
15 -238 -9 -24 -15 -27 -38 -21 -16 4 -57 24 -92 46 -36 21 -69 34 -73 30 -15
-15 22 -110 67 -171 24 -33 83 -102 131 -153 168 -180 264 -315 264 -369 0
-33 -28 -44 -130 -53 -158 -15 -266 43 -119 63 30 4 60 10 67 15 31 19 2 66
-81 129 -102 77 -373 552 -411 720 -9 38 -68 184 -134 330 -66 144 -127 284
-137 310 -33 88 -111 124 -158 73 -31 -33 -61 -40 -82 -20 -22 22 -36 60 -29
78 8 21 53 28 94 16 49 -14 166 -12 225 4 28 7 75 26 105 41 100 51 156 51
195 1z m436 -544 c28 -50 51 -105 58 -142 10 -48 17 -63 35 -72 23 -10 46 -46
46 -71 0 -34 24 -88 49 -114 34 -33 71 -99 71 -128 1 -37 26 -65 105 -118 89
-58 127 -77 155 -77 11 0 20 -3 20 -8 0 -4 -65 -72 -145 -152 l-145 -145 -40
45 c-74 84 -85 119 -84 255 1 94 5 127 18 154 25 48 15 100 -43 218 -26 54
-54 116 -61 138 -7 22 -25 63 -41 91 -39 69 -81 184 -74 201 9 26 28 8 76 -75z
m5655 -76 c11 -8 35 -28 53 -45 41 -39 86 -51 231 -61 141 -11 165 -18 312
-86 64 -30 131 -57 150 -61 53 -10 80 -27 167 -108 60 -55 95 -78 129 -88 57
-17 65 -41 26 -86 -36 -43 -77 -63 -130 -63 -59 0 -104 28 -134 84 -14 25 -31
52 -38 61 -26 31 -99 56 -183 62 -77 7 -86 5 -111 -15 -16 -12 -28 -28 -28
-35 0 -8 16 -43 35 -78 19 -35 35 -73 35 -85 0 -32 -44 -77 -95 -96 -71 -28
-57 -56 29 -56 57 0 104 32 138 95 32 59 84 94 106 71 18 -18 21 -171 3 -212
-8 -20 -24 -35 -46 -42 -18 -7 -64 -41 -102 -75 -162 -150 -256 -214 -293
-202 -20 6 -70 79 -95 137 -9 23 -15 66 -15 110 1 127 45 218 187 384 176 206
194 266 85 272 -92 5 -138 -36 -176 -160 -12 -40 -29 -76 -39 -82 -28 -17 -68
37 -102 137 -39 113 -71 175 -116 224 -62 68 -49 145 17 99z m-946 -876 c-13
-73 -111 -285 -179 -386 -49 -73 -173 -194 -256 -249 -47 -30 -69 -39 -105
-40 -42 0 -46 2 -62 36 -10 19 -19 59 -20 88 -3 62 14 81 72 81 23 0 49 9 68
23 92 66 154 107 217 141 96 52 119 76 150 162 15 41 43 93 61 115 19 23 35
53 36 67 1 15 3 45 4 67 1 22 6 83 10 135 l9 95 3 -135 c2 -74 -2 -164 -8
-200z m-3541 229 c13 -23 12 -30 -9 -74 -29 -60 -132 -170 -184 -197 -29 -15
-53 -19 -91 -16 -54 5 -84 22 -124 70 -23 29 -23 30 -5 48 10 10 66 45 124 78
236 134 260 142 289 91z m5812 -335 c75 -38 103 -125 49 -154 -40 -21 -199 60
-200 102 0 9 12 30 26 47 23 28 30 31 63 25 20 -4 48 -13 62 -20z m437 -14
c125 -63 270 -265 439 -609 58 -118 116 -229 129 -246 53 -69 57 -99 55 -385
-1 -254 9 -391 31 -435 6 -11 25 -36 43 -55 18 -19 38 -55 45 -78 13 -49 76
-124 124 -149 17 -9 62 -22 100 -29 46 -9 80 -23 103 -41 84 -67 75 -65 226
-58 110 5 137 4 137 -7 0 -7 -13 -40 -29 -73 -27 -58 -79 -115 -104 -115 -7 0
-22 -3 -34 -6 -16 -5 -35 7 -82 50 -34 31 -86 72 -116 92 -86 54 -218 115
-239 110 -25 -6 -86 25 -125 65 -43 43 -67 94 -76 159 -15 124 -44 180 -91
180 -20 0 -33 -19 -85 -127 -78 -163 -126 -236 -230 -349 -130 -141 -195 -194
-241 -194 -21 0 -29 6 -34 26 -12 47 11 96 63 134 55 41 62 62 37 125 -16 43
-16 48 1 93 10 26 39 81 65 122 226 358 273 673 165 1100 -37 144 -101 308
-145 372 -22 32 -55 91 -74 131 -38 84 -76 119 -148 137 -51 13 -94 50 -85 74
11 29 104 21 175 -14z m-2734 -407 c24 -48 66 -192 66 -229 0 -44 -35 -119
-68 -144 -19 -16 -40 -20 -93 -20 -37 0 -80 -5 -94 -10 -15 -6 -63 -45 -108
-88 -88 -84 -146 -123 -215 -143 -47 -14 -92 -1 -92 25 0 22 103 129 178 185
37 27 105 72 152 101 47 28 98 64 113 78 33 31 74 108 108 205 13 37 27 67 31
67 4 0 14 -12 22 -27z m2021 -14 c181 -89 435 -362 435 -469 0 -39 -47 -125
-88 -161 -65 -57 -169 -89 -188 -57 -4 6 -8 34 -9 62 -1 38 -10 68 -38 117
-31 55 -37 76 -37 125 -1 103 -53 185 -149 234 -64 32 -73 41 -90 89 -9 29 -8
37 6 54 41 44 77 46 158 6z m769 -261 c8 -13 19 -61 25 -108 9 -68 20 -102 56
-172 46 -88 56 -143 33 -166 -47 -47 -202 45 -227 133 -14 52 -13 231 2 275
19 56 85 79 111 38z m-50 -622 c41 -17 48 -28 48 -70 0 -48 -24 -78 -93 -117
-114 -64 -126 -80 -72 -94 44 -11 83 -44 83 -70 0 -47 -222 -314 -252 -303 -8
4 -20 27 -27 53 -15 58 -32 279 -24 315 3 18 30 48 79 90 55 46 83 78 104 121
44 87 82 105 154 75z m1615 -400 c5 -28 14 -91 20 -141 9 -83 16 -102 90 -250
90 -183 133 -234 215 -261 67 -22 139 -58 157 -79 8 -10 25 -40 39 -69 18 -37
43 -64 90 -101 36 -27 108 -93 161 -147 81 -81 101 -109 123 -164 38 -94 51
-198 40 -314 l-9 -95 -44 129 c-79 232 -159 363 -252 411 -43 23 -137 31 -184
15 -28 -9 -41 -21 -52 -49 -28 -65 2 -226 58 -317 26 -43 124 -124 150 -124
15 0 19 7 19 33 0 30 -17 68 -104 230 -53 100 -49 125 18 105 76 -24 196 -195
196 -279 0 -21 -12 -63 -26 -92 -34 -68 -29 -90 36 -162 61 -67 79 -101 86
-162 8 -69 24 -113 39 -113 55 0 -6 -402 -81 -540 -14 -25 -41 -67 -61 -94
l-36 -50 -98 105 c-138 146 -159 178 -159 249 0 127 74 335 173 489 51 77 77
125 77 139 0 16 -51 32 -103 32 -29 0 -97 -7 -152 -15 -155 -23 -163 -22 -182
22 -10 24 -20 105 -28 228 -14 198 -16 213 -47 257 -10 15 -28 64 -40 110 -22
91 -32 112 -103 236 -41 71 -49 95 -56 160 -12 107 -24 692 -15 728 7 27 8 28
21 10 8 -10 19 -42 24 -70z m-804 -480 c155 -49 288 -152 347 -269 16 -33 45
-83 64 -111 41 -63 92 -198 100 -269 8 -71 -8 -89 -66 -76 -23 5 -53 17 -68
27 -20 13 -58 18 -172 23 -132 6 -152 9 -222 38 -88 36 -142 39 -239 14 -90
-23 -116 -14 -282 96 -150 100 -174 124 -153 155 16 25 170 106 201 106 26 0
99 52 145 103 16 17 44 59 61 92 18 33 43 70 57 84 21 21 30 23 85 18 34 -3
98 -17 142 -31z m1157 -2141 c39 -36 75 -65 80 -65 19 0 148 -92 171 -122 37
-50 85 -151 102 -215 48 -185 -30 -356 -277 -604 -176 -178 -458 -391 -635
-480 -141 -71 -203 -69 -203 8 0 66 55 140 147 197 62 38 77 66 70 131 -5 45
-2 60 16 86 40 58 208 159 290 175 22 3 58 21 82 39 58 45 79 55 111 55 43 0
91 39 131 105 20 33 69 108 109 166 112 163 114 180 17 187 -72 5 -133 -10
-174 -45 -17 -15 -71 -80 -121 -145 -49 -66 -95 -118 -101 -115 -7 2 -20 19
-29 38 -37 71 -14 279 42 395 27 55 30 73 30 153 0 109 4 121 41 121 21 0 47
-17 101 -65z m-1126 -1884 c17 -10 34 -28 37 -40 8 -30 -33 -102 -72 -126 -80
-49 -93 -66 -96 -130 -1 -40 -10 -75 -26 -105 -30 -56 -30 -134 1 -270 26
-112 43 -279 34 -333 -8 -50 -38 -67 -67 -39 -17 18 -21 40 -28 201 -9 189
-13 207 -72 346 -34 80 -63 253 -58 348 l1 28 30 -21 c17 -12 48 -24 69 -27
32 -4 41 -1 55 18 9 13 16 33 16 44 1 29 38 69 90 99 54 31 48 30 86 7z m-602
-554 c55 -31 69 -73 70 -224 1 -116 0 -122 -24 -148 -36 -39 -120 -85 -156
-85 -63 0 -118 71 -90 115 22 33 95 65 150 65 53 0 106 23 106 46 0 30 -29 71
-59 84 -21 8 -73 11 -168 9 -135 -4 -138 -4 -141 18 -4 29 61 101 113 124 58
27 149 25 199 -4z"/>
<path d="M26580 25060 c-80 -9 -108 -20 -154 -60 -42 -37 -47 -73 -14 -91 30
-16 152 -16 206 -1 23 7 57 26 76 42 18 17 44 30 56 30 12 0 57 -16 101 -35
224 -98 309 -99 296 -1 -4 26 -14 46 -29 57 -35 27 -136 49 -271 59 -135 11
-172 11 -267 0z"/>
<path d="M17396 28043 c-26 -52 -66 -173 -116 -353 -40 -143 -49 -160 -121
-235 -93 -97 -107 -154 -43 -175 62 -21 213 33 256 90 13 18 22 55 28 116 5
49 28 152 50 229 48 165 58 285 27 343 -26 47 -52 42 -81 -15z"/>
<path d="M20132 27627 c-30 -32 -51 -87 -45 -118 6 -35 -14 -73 -75 -136 -75
-78 -159 -129 -225 -136 -106 -11 -177 -70 -177 -148 0 -48 17 -54 88 -29 55
19 209 52 303 65 75 11 100 33 154 136 57 107 94 154 130 163 49 12 26 90 -52
176 -50 56 -69 61 -101 27z"/>
<path d="M16064 27494 c-45 -7 -110 -24 -145 -38 -35 -13 -105 -40 -154 -60
-54 -21 -124 -39 -174 -45 -134 -17 -207 -63 -171 -107 41 -49 341 -68 480
-31 86 23 167 74 212 133 43 56 70 73 118 74 49 0 107 18 113 34 20 52 -102
70 -279 40z"/>
<path d="M16487 27400 c-31 -27 -57 -36 -164 -56 -55 -10 -138 -125 -131 -181
6 -47 24 -48 180 -14 237 52 314 44 469 -50 149 -91 262 -125 380 -117 45 3
65 9 75 23 8 11 13 24 11 30 -6 19 -81 54 -192 91 -60 20 -123 43 -140 51 -39
20 -93 71 -111 106 -18 34 -70 67 -104 67 -41 0 -100 20 -120 40 -50 50 -104
53 -153 10z"/>
<path d="M24703 27180 c-111 -49 -370 -234 -446 -319 -78 -87 -82 -102 -82
-326 0 -155 4 -219 18 -285 18 -85 38 -123 56 -105 30 32 97 351 107 510 8
113 33 171 105 245 55 56 99 80 177 100 53 14 120 73 153 135 21 39 22 47 9
55 -22 14 -49 11 -97 -10z"/>
<path d="M13595 27026 c-32 -14 -114 -96 -135 -136 -25 -46 -32 -88 -39 -232
-9 -162 -19 -191 -68 -201 -87 -17 -143 -133 -114 -236 12 -43 28 -34 67 36
47 86 82 133 98 133 6 0 27 -11 46 -25 41 -30 61 -31 84 -6 30 33 45 107 57
269 6 86 17 171 24 189 14 32 16 33 74 33 55 0 61 2 61 21 0 25 -48 124 -69
143 -26 22 -54 26 -86 12z"/>
<path d="M17738 26933 c-55 -59 -63 -88 -63 -223 -1 -119 -2 -129 -28 -172
-15 -26 -46 -62 -70 -81 -97 -79 -193 -107 -377 -107 -143 0 -167 -5 -175 -31
-15 -47 18 -76 100 -89 82 -13 169 3 269 51 142 68 214 64 260 -17 48 -86 74
-47 134 198 33 137 37 167 37 288 0 197 -25 249 -87 183z"/>
<path d="M13987 26796 c-21 -8 -55 -25 -77 -40 -73 -48 -131 -214 -77 -224 23
-5 127 71 224 162 67 64 76 77 67 93 -14 23 -85 28 -137 9z"/>
<path d="M14760 26426 c-134 -47 -257 -121 -372 -221 -34 -31 -135 -104 -223
-163 -174 -117 -275 -205 -275 -240 0 -25 31 -47 80 -57 64 -13 80 -30 80 -85
0 -58 14 -100 34 -100 25 0 73 -48 104 -103 36 -64 123 -146 186 -176 70 -32
166 -25 166 14 0 7 -34 29 -75 49 -92 43 -144 95 -168 164 -12 35 -37 73 -77
116 -33 35 -60 72 -60 82 0 29 148 220 232 300 100 95 141 122 338 220 136 68
173 91 189 118 23 37 27 76 9 94 -19 19 -97 14 -168 -12z"/>
<path d="M13745 26288 c-11 -6 -34 -24 -51 -39 -39 -37 -85 -51 -124 -38 -61
22 -65 15 -65 -106 0 -110 0 -111 -42 -196 -24 -47 -43 -96 -43 -108 0 -13 20
-44 50 -74 60 -64 73 -59 105 33 23 69 95 217 127 262 10 15 38 36 61 46 50
22 103 79 112 121 7 34 -15 85 -44 101 -25 13 -61 12 -86 -2z"/>
<path d="M19085 26241 c-274 -50 -489 -141 -586 -249 -50 -56 -169 -281 -195
-367 -29 -103 -3 -242 44 -233 23 4 38 38 61 145 23 100 56 179 79 188 8 3 24
-3 35 -12 37 -33 57 -98 68 -214 5 -62 12 -122 15 -134 9 -36 61 -79 164 -135
180 -99 216 -132 257 -235 19 -47 36 -73 52 -82 31 -15 58 -2 67 31 13 53 -38
116 -280 346 -96 92 -101 103 -100 235 0 92 4 118 23 160 47 105 159 237 251
299 36 24 91 67 122 95 83 76 127 92 266 97 138 6 162 10 162 27 0 7 -17 22
-37 32 -56 28 -328 31 -468 6z"/>
<path d="M16082 26148 c-66 -116 -104 -223 -110 -304 -4 -67 -3 -73 25 -104
25 -28 32 -31 50 -22 25 14 38 46 57 147 33 174 47 355 28 355 -5 0 -27 -33
-50 -72z"/>
<path d="M14949 26126 c-41 -12 -95 -34 -120 -48 -130 -78 -393 -361 -454
-490 -34 -70 2 -88 75 -39 55 37 105 100 140 178 32 70 60 92 95 73 28 -15 45
-7 135 65 150 119 270 250 249 269 -16 14 -55 12 -120 -8z"/>
<path d="M17601 26120 c-40 -25 -87 -39 -192 -55 -87 -13 -373 -182 -473 -279
-72 -70 -62 -122 23 -120 66 2 128 24 291 99 159 74 218 95 265 95 43 0 65
-29 65 -86 0 -52 10 -104 20 -104 27 0 52 182 48 351 l-3 126 -44 -27z"/>
<path d="M15598 26089 c-47 -24 -68 -64 -102 -193 -29 -107 -124 -368 -153
-419 -10 -18 -35 -40 -56 -50 -31 -16 -43 -17 -71 -7 -57 18 -146 134 -146
188 0 11 22 62 49 113 26 52 51 106 55 122 16 69 -53 93 -98 34 -60 -78 -126
-269 -126 -364 0 -59 20 -103 70 -153 55 -55 157 -104 196 -94 17 4 71 48 129
104 119 116 165 142 228 134 57 -8 62 1 70 123 7 94 47 316 66 366 17 44 13
66 -15 92 -32 30 -47 30 -96 4z"/>
<path d="M19495 26086 c-102 -17 -143 -34 -199 -86 -55 -51 -107 -126 -99
-146 8 -21 68 -28 106 -13 17 7 55 34 82 59 70 65 95 80 131 80 71 0 63 -26
-58 -178 -32 -40 -70 -94 -85 -119 -46 -79 -51 -203 -8 -203 8 0 22 -11 31
-25 14 -22 15 -30 3 -56 -9 -24 -27 -38 -76 -60 -64 -29 -78 -50 -51 -77 25
-25 162 -7 185 24 18 25 32 76 43 162 15 110 69 215 175 337 48 55 107 129
131 165 68 100 54 143 -25 79 -31 -24 -46 -30 -77 -27 -37 3 -40 5 -50 48 -10
42 -13 45 -45 47 -19 1 -70 -4 -114 -11z"/>
<path d="M12813 26081 c-55 -9 -69 -23 -94 -93 -28 -76 -54 -95 -202 -151 -65
-25 -127 -53 -137 -62 -41 -37 -18 -60 65 -64 54 -3 75 -14 75 -40 0 -42 -84
-87 -215 -115 -158 -34 -215 -56 -334 -131 -54 -34 -135 -67 -242 -99 -70 -20
-105 -46 -112 -85 -5 -21 -18 -37 -46 -53 -46 -26 -64 -56 -49 -81 21 -38 85
-13 212 80 66 49 110 57 122 21 3 -11 3 -64 0 -117 -8 -112 0 -145 40 -155 63
-16 117 76 130 219 12 143 51 172 297 222 105 21 179 41 191 51 10 9 31 40 47
68 37 65 64 90 114 103 23 6 64 31 93 55 89 76 152 70 195 -17 30 -60 26 -135
-13 -210 -35 -69 -36 -100 -4 -105 30 -4 59 36 86 117 20 58 22 87 23 252 0
208 -2 200 77 255 43 30 71 74 62 98 -12 32 -79 46 -212 45 -70 -1 -146 -5
-169 -8z"/>
<path d="M16553 26060 c-52 -12 -80 -36 -95 -82 -15 -42 -16 -43 -55 -40 -35
3 -43 0 -60 -25 -27 -38 -33 -59 -43 -155 -8 -88 -27 -118 -74 -118 -53 0
-121 -73 -114 -122 11 -77 173 -19 197 70 7 25 19 43 34 49 13 6 59 63 101
127 47 71 100 136 136 167 32 29 63 63 70 78 10 22 9 28 -10 43 -24 19 -36 20
-87 8z"/>
<path d="M24886 26048 c-28 -17 -47 -40 -72 -89 -63 -125 -106 -143 -344 -145
-152 0 -174 -3 -284 -32 -128 -34 -199 -67 -204 -95 -2 -10 5 -20 20 -26 40
-15 375 -23 498 -12 210 20 291 61 338 171 11 25 26 50 33 56 30 24 93 35 200
35 116 -1 139 6 139 40 0 28 -39 49 -92 49 -63 0 -96 14 -100 42 -5 34 -78 37
-132 6z"/>
<path d="M20360 25963 c-39 -20 -80 -84 -80 -124 0 -34 17 -39 150 -39 137 0
339 -30 535 -80 217 -55 373 -80 550 -89 95 -5 163 -13 185 -23 19 -8 79 -54
133 -101 120 -105 164 -132 254 -152 51 -12 92 -30 153 -71 95 -62 123 -66
128 -18 6 65 -156 201 -263 219 -58 10 -127 58 -235 161 -52 50 -108 100 -125
111 -60 41 -174 66 -470 103 -229 29 -460 69 -530 92 -44 15 -98 21 -205 25
-126 4 -149 2 -180 -14z"/>
<path d="M19875 25934 c-13 -13 -15 -36 -13 -124 l3 -108 -33 -43 c-63 -84
-66 -96 -70 -309 -4 -210 8 -394 27 -413 19 -19 44 5 58 52 7 24 19 109 28
189 14 135 31 235 42 255 3 5 19 -5 37 -21 41 -40 94 -54 190 -50 61 2 81 7
90 20 16 26 -26 64 -100 88 -34 12 -68 28 -76 37 -9 11 -15 62 -19 157 -4 118
-9 150 -28 194 -37 82 -96 115 -136 76z"/>
<path d="M23707 25666 c-90 -77 -216 -214 -254 -278 -72 -120 -84 -305 -23
-338 10 -6 40 -10 67 -10 30 0 59 -7 77 -19 63 -42 116 -156 116 -250 0 -90
27 -122 49 -60 15 43 14 107 -4 214 -8 50 -15 113 -15 141 0 58 -6 66 -89 110
-66 35 -86 73 -78 151 8 72 26 105 63 115 85 22 194 136 194 202 0 46 -10 76
-26 76 -7 0 -42 -24 -77 -54z"/>
<path d="M13668 25574 c-9 -19 -8 -69 6 -222 20 -235 18 -250 -52 -282 -43
-20 -104 -60 -240 -153 -98 -67 -141 -60 -186 32 -11 25 -27 47 -35 49 -25 8
-6 -77 28 -125 37 -53 38 -57 6 -94 -32 -38 -45 -88 -45 -171 0 -140 37 -222
125 -274 35 -20 49 -24 58 -15 17 17 -6 111 -54 226 -44 106 -44 119 2 175 41
49 157 148 201 171 45 23 125 25 156 3 46 -32 64 -101 42 -159 -6 -15 -38 -52
-71 -84 -54 -50 -62 -62 -66 -102 -4 -34 -1 -50 12 -62 32 -33 105 -13 105 29
0 23 28 72 66 113 55 61 65 98 71 255 5 157 -10 671 -22 699 -5 12 -19 17 -51
17 -38 0 -46 -4 -56 -26z"/>
<path d="M22411 25560 c-102 -26 -129 -39 -137 -63 -16 -50 58 -62 298 -47
181 11 356 2 443 -22 22 -6 85 -11 140 -12 115 -1 173 19 189 65 11 34 1 75
-21 84 -10 3 -202 8 -428 10 -379 4 -416 3 -484 -15z"/>
<path d="M15581 25359 c-53 -21 -63 -62 -31 -122 11 -20 20 -44 20 -52 0 -35
-43 -140 -85 -207 -55 -88 -70 -153 -90 -380 -18 -203 -29 -279 -50 -339 -19
-53 -9 -67 34 -45 70 37 117 109 170 267 21 63 48 132 59 154 25 49 31 96 41
335 9 199 19 242 67 287 16 14 24 32 22 45 -6 42 -107 78 -157 57z"/>
<path d="M21135 25321 c-3 -6 15 -24 40 -41 86 -59 77 -89 -36 -114 -35 -8
-149 -35 -254 -60 -244 -58 -379 -70 -609 -56 -227 15 -265 4 -196 -53 45 -38
127 -65 268 -87 70 -11 144 -27 165 -35 20 -8 55 -15 75 -15 54 0 161 -39 275
-98 53 -28 113 -54 134 -58 54 -10 63 -20 63 -77 0 -45 4 -54 40 -88 66 -63
172 -74 262 -28 59 30 47 79 -19 79 -89 0 -137 50 -139 144 -1 42 -6 63 -18
71 -9 7 -71 15 -138 19 -147 9 -186 23 -207 78 -20 56 1 83 76 99 66 13 198 7
258 -13 37 -12 41 -18 67 -87 31 -85 55 -113 149 -176 108 -72 229 -118 229
-87 0 19 -67 100 -180 219 -68 71 -130 146 -146 177 -26 50 -27 56 -15 95 14
49 32 59 72 40 108 -52 583 -556 607 -644 13 -49 46 -54 332 -54 292 -1 346 7
415 64 23 18 52 54 65 78 20 38 22 48 11 61 -20 23 -30 21 -105 -29 -44 -28
-80 -45 -99 -45 -67 0 -131 72 -222 250 -62 122 -63 117 25 139 129 34 201 82
179 122 -14 27 -115 26 -205 -2 -102 -32 -145 -29 -244 15 -171 76 -196 86
-232 86 -48 0 -65 -26 -41 -61 9 -13 80 -92 158 -174 158 -170 224 -251 260
-323 33 -66 33 -92 0 -92 -79 0 -209 104 -480 385 -250 259 -289 291 -381 311
-37 7 -77 22 -88 33 -12 11 -34 24 -49 30 -35 14 -114 14 -122 2z"/>
<path d="M14891 25151 c-11 -11 -22 -40 -26 -68 -3 -26 -8 -63 -11 -81 -5 -31
-35 -67 -112 -135 -26 -23 -32 -36 -32 -67 0 -31 6 -43 31 -63 22 -17 30 -30
26 -41 -10 -24 -84 -54 -162 -65 -107 -15 -173 -82 -231 -232 -42 -113 -69
-135 -189 -162 -133 -30 -181 -58 -222 -127 -78 -136 -149 -206 -232 -230 -41
-12 -71 8 -71 47 0 36 -34 95 -82 141 -63 61 -78 57 -78 -20 0 -117 -33 -211
-124 -363 -67 -110 -67 -173 -1 -189 55 -14 172 86 238 202 16 29 40 60 52 68
13 8 63 21 112 29 48 7 102 18 118 25 17 6 71 53 120 104 50 52 108 105 129
120 55 37 105 35 151 -5 54 -48 49 -78 -29 -191 -116 -166 -217 -318 -223
-334 -4 -11 45 -67 168 -190 96 -96 177 -174 181 -174 5 0 8 45 8 100 0 108
-17 170 -45 170 -31 0 -96 41 -115 73 -27 43 -25 60 10 100 32 37 85 57 151
57 67 0 79 12 50 51 -22 29 -24 42 -22 118 1 66 -4 105 -24 171 -31 108 -32
156 -2 196 63 87 209 252 233 262 36 17 61 7 68 -28 15 -79 61 -4 101 163 27
114 43 154 70 177 26 22 81 129 114 223 32 93 39 155 19 175 -20 20 -95 15
-117 -7z"/>
<path d="M11333 24960 c-43 -23 -94 -53 -113 -69 -55 -44 -78 -53 -170 -67
-48 -7 -103 -21 -122 -31 -20 -10 -59 -31 -89 -47 -37 -20 -77 -31 -128 -37
-45 -5 -81 -15 -92 -25 -28 -25 -24 -74 9 -120 39 -53 120 -126 135 -121 6 2
15 22 20 45 15 77 90 128 208 143 147 18 379 178 431 297 19 42 19 72 -1 72
-6 0 -45 -18 -88 -40z"/>
<path d="M24780 24951 c-30 -10 -77 -29 -105 -43 -51 -27 -148 -122 -198 -197
-34 -49 -91 -81 -146 -81 -47 0 -91 -18 -91 -37 0 -7 -7 -16 -16 -20 -24 -9
-43 23 -37 61 6 41 -23 101 -79 162 -64 70 -102 54 -103 -45 0 -73 19 -117 66
-147 34 -21 37 -27 33 -56 -7 -41 41 -141 70 -146 11 -3 29 9 47 31 20 24 49
42 99 61 39 14 80 26 90 26 56 0 303 164 428 284 94 90 120 129 101 152 -16
19 -91 17 -159 -5z"/>
<path d="M18757 24863 c-44 -43 165 -201 309 -233 62 -14 114 -6 114 19 0 32
-162 131 -312 190 -78 32 -99 36 -111 24z"/>
<path d="M11660 24839 c-19 -12 -78 -56 -131 -99 -52 -42 -130 -94 -173 -115
-223 -110 -632 -642 -653 -850 -7 -64 4 -79 44 -64 28 11 57 -2 73 -31 13 -25
62 -27 81 -3 10 11 14 48 15 127 0 100 3 117 28 169 90 187 514 647 597 647
42 0 189 172 189 222 0 24 -27 23 -70 -3z"/>
<path d="M25248 24806 c-49 -13 -67 -25 -190 -128 -42 -35 -93 -73 -115 -84
-23 -12 -39 -28 -41 -42 -6 -40 -97 -93 -257 -148 -130 -46 -226 -66 -295 -62
-61 3 -65 2 -68 -20 -5 -35 41 -89 88 -103 30 -9 49 -9 82 0 117 32 169 42
310 55 148 15 233 34 370 85 31 11 83 23 115 27 77 8 123 22 123 39 0 24 38
36 129 44 l86 7 -50 24 c-72 34 -179 38 -276 11 -178 -50 -219 -8 -108 113 29
32 73 66 105 82 52 25 58 26 158 19 110 -7 146 -2 146 20 0 27 -49 52 -125 64
-93 14 -127 13 -187 -3z"/>
<path d="M19520 24701 c-133 -52 -241 -174 -284 -320 -29 -100 -13 -176 43
-205 69 -36 96 -10 103 100 7 93 41 168 112 242 72 76 128 104 198 100 49 -3
53 -5 56 -30 2 -15 -6 -60 -17 -100 -53 -191 -47 -272 25 -344 52 -53 77 -60
135 -39 98 37 159 45 301 38 159 -7 248 9 290 54 l23 25 -24 19 c-29 24 -140
25 -346 4 -77 -8 -177 -15 -223 -15 -111 0 -127 15 -137 124 -4 42 -6 78 -4
80 2 1 99 -10 214 -25 116 -15 271 -35 345 -44 175 -22 343 -57 408 -85 41
-18 52 -27 52 -46 0 -12 6 -26 13 -31 6 -4 85 -10 174 -13 l161 -5 44 -33 c66
-50 106 -65 186 -70 71 -4 132 10 132 30 0 15 -155 83 -326 142 -208 71 -445
167 -494 200 -22 15 -37 31 -34 38 3 7 25 29 49 47 24 19 42 39 39 43 -3 4
-32 8 -65 8 -56 0 -62 -3 -92 -35 -18 -19 -52 -41 -76 -50 -95 -33 -175 -16
-458 99 -114 46 -236 91 -269 100 -82 21 -197 20 -254 -3z"/>
<path d="M23290 24553 c-18 -43 -46 -116 -61 -163 -41 -120 -137 -312 -202
-400 -70 -97 -82 -119 -68 -133 5 -5 61 -35 123 -66 91 -45 118 -64 139 -96
15 -22 37 -42 50 -45 34 -8 58 -48 74 -125 23 -108 20 -183 -10 -239 -14 -26
-25 -56 -25 -67 0 -45 94 0 130 62 23 41 25 56 28 201 4 167 -9 305 -35 370
-15 38 -16 39 -33 21 -10 -10 -30 -51 -45 -91 -16 -40 -32 -75 -35 -77 -4 -2
-57 47 -118 109 -133 134 -135 142 -66 216 65 70 78 67 165 -32 71 -82 89 -98
89 -81 0 4 -7 69 -15 143 -23 210 -17 332 15 337 26 4 54 -29 103 -120 26 -49
60 -105 76 -125 62 -80 93 -168 144 -412 36 -176 39 -179 119 -139 87 44 91
55 54 158 -13 36 -26 91 -30 122 -8 79 -28 127 -84 213 -27 40 -54 89 -61 107
-25 65 -37 83 -127 188 -102 120 -227 241 -248 241 -8 0 -28 -34 -46 -77z"/>
<path d="M25976 24559 c-36 -31 -82 -49 -127 -49 -14 0 -34 -9 -44 -20 -31
-34 -3 -50 108 -60 54 -5 110 -16 127 -25 32 -16 46 -51 36 -87 -9 -36 -64
-97 -108 -119 l-39 -20 -47 31 c-57 38 -105 53 -157 48 -37 -3 -40 -5 -43 -36
-4 -43 46 -95 109 -112 70 -19 193 -8 269 24 100 42 155 61 290 101 137 40
190 67 190 95 0 14 -9 20 -32 24 -18 3 -64 9 -103 15 -121 18 -303 121 -331
187 -18 44 -51 45 -98 3z"/>
<path d="M12533 24257 c3 -24 23 -79 44 -123 37 -79 37 -79 39 -219 1 -117 5
-149 23 -197 44 -114 88 -139 115 -65 16 43 56 296 56 355 0 39 -30 72 -103
115 -32 18 -53 39 -62 62 -17 39 -86 115 -105 115 -9 0 -11 -12 -7 -43z"/>
<path d="M21881 24290 c-183 -9 -331 -34 -331 -55 0 -18 18 -23 132 -35 94 -9
783 -50 853 -50 29 0 32 -5 72 -98 44 -99 93 -172 118 -172 8 0 22 11 31 25
23 36 4 86 -52 131 -35 29 -44 43 -44 69 0 40 26 64 76 71 89 12 104 16 119
30 8 9 15 26 15 39 0 19 -8 27 -37 36 -48 15 -704 21 -952 9z"/>
<path d="M11348 24190 c-69 -72 -204 -255 -234 -319 -41 -85 -55 -191 -57
-431 -1 -160 1 -221 11 -237 33 -58 52 0 63 186 10 169 17 208 48 247 11 14
23 42 27 63 10 54 44 115 129 231 119 163 151 238 121 285 -25 38 -54 31 -108
-25z"/>
<path d="M11736 24210 c-19 -17 -54 -68 -76 -114 -61 -119 -100 -169 -153
-194 -49 -23 -79 -56 -70 -78 3 -8 13 -14 22 -14 34 0 44 -19 57 -111 15 -98
33 -139 63 -139 45 0 79 83 87 214 3 50 10 106 16 124 6 19 43 71 84 116 101
114 116 157 68 201 -35 33 -56 31 -98 -5z"/>
<path d="M25428 24196 c-91 -55 -260 -196 -250 -209 126 -170 151 -186 283
-187 94 0 255 24 276 42 18 15 110 5 155 -16 44 -21 55 -48 35 -80 -32 -48
-164 -167 -211 -191 -80 -40 -213 -27 -328 31 -44 22 -60 25 -105 20 -64 -8
-81 0 -149 65 -61 60 -102 70 -151 40 -25 -16 -33 -28 -33 -49 0 -40 29 -62
92 -71 111 -15 221 -104 242 -194 6 -23 1 -34 -26 -59 -59 -55 -229 -128 -378
-163 -41 -10 -127 -20 -190 -24 -68 -3 -114 -10 -113 -16 1 -5 39 -18 85 -28
67 -14 113 -17 243 -13 171 5 266 20 383 62 100 36 106 46 97 179 l-7 105 27
10 c39 15 104 -7 124 -42 22 -38 53 -49 116 -42 79 10 123 -2 144 -37 10 -16
21 -26 25 -22 3 4 13 -3 22 -15 24 -34 33 -26 32 27 -2 56 24 106 93 184 65
74 113 101 182 101 106 1 96 -36 -49 -178 -82 -80 -95 -97 -92 -122 2 -23 13
-33 63 -57 32 -16 73 -30 90 -31 25 -1 31 3 33 24 2 14 18 41 36 60 18 19 40
47 48 61 22 35 48 125 48 165 0 18 3 35 8 38 12 7 265 -132 291 -161 21 -25
23 -33 19 -107 -4 -71 -8 -82 -31 -102 -15 -13 -44 -26 -65 -29 -75 -11 -156
-36 -184 -57 -38 -26 -139 -39 -231 -27 -62 8 -75 13 -97 39 -14 17 -33 30
-43 30 -29 0 -74 28 -80 50 -7 28 -34 25 -100 -10 -77 -41 -94 -39 -145 15
-48 51 -84 69 -120 60 -22 -5 -24 -10 -19 -43 11 -62 57 -97 198 -149 326
-119 392 -136 589 -149 106 -7 150 3 150 35 0 12 -12 27 -27 35 l-28 15 40 17
c31 13 72 18 180 19 83 2 173 9 220 19 107 22 218 23 250 2 40 -26 63 -19 118
37 29 29 82 68 119 87 38 19 68 37 68 40 -1 3 -37 34 -81 70 -86 70 -109 97
-109 130 0 11 19 60 41 108 60 127 72 168 53 187 -47 46 -171 -36 -229 -153
-32 -64 -31 -92 10 -269 36 -152 33 -159 -64 -149 -95 10 -148 36 -167 83 -8
21 -44 65 -78 98 -53 50 -66 70 -80 117 -26 93 -156 217 -321 308 -33 18 -68
40 -78 48 -16 15 -16 16 0 35 26 28 93 64 134 71 31 5 43 1 85 -29 79 -57 112
-69 204 -73 89 -4 136 7 147 34 11 28 -15 37 -126 45 -120 8 -138 14 -190 69
-23 24 -52 42 -81 50 -60 17 -166 18 -181 3 -22 -22 -90 -15 -157 17 -74 35
-113 37 -173 11 -27 -12 -88 -23 -160 -30 -117 -10 -206 -35 -251 -70 -73 -57
-178 -80 -186 -40 -2 10 32 54 82 107 94 98 122 146 107 185 -9 23 -29 37 -55
37 -7 0 -37 -15 -68 -34z"/>
<path d="M23936 24190 c-33 -10 -66 -38 -66 -56 0 -7 17 -18 38 -24 76 -25 81
-34 142 -285 47 -189 48 -205 12 -267 -38 -68 -52 -115 -54 -170 -1 -65 9 -90
35 -86 48 7 123 218 134 375 5 73 2 92 -25 180 -18 54 -41 136 -53 182 -32
124 -86 174 -163 151z"/>
<path d="M17742 24145 c-54 -68 -55 -233 -2 -317 37 -61 38 -82 0 -165 -34
-75 -38 -113 -12 -136 28 -26 164 -87 193 -87 34 0 79 51 79 89 0 15 -20 65
-44 112 -54 102 -71 163 -86 297 -22 202 -71 280 -128 207z"/>
<path d="M21630 23673 c1 -79 172 -384 271 -485 103 -103 138 -195 157 -409
12 -127 30 -169 71 -169 64 0 90 87 74 250 -6 60 -7 109 -2 114 5 6 75 -56
173 -153 91 -90 171 -161 178 -159 8 3 13 23 13 56 -1 102 -130 304 -204 318
-38 8 -61 37 -61 80 0 52 -23 64 -126 63 -87 -1 -141 13 -158 40 -13 20 10 45
61 67 30 13 52 28 49 33 -3 5 -36 14 -73 21 -132 23 -169 50 -241 179 -81 145
-182 230 -182 154z"/>
<path d="M15581 23661 c-35 -35 -43 -96 -45 -346 -2 -193 -6 -250 -19 -290
-20 -59 -22 -197 -6 -292 15 -84 43 -125 93 -135 51 -11 60 -19 97 -89 34 -63
62 -81 86 -56 23 23 10 59 -42 117 -60 67 -80 134 -79 265 0 89 4 109 32 178
31 77 43 169 23 181 -14 9 -29 112 -36 241 -7 137 -26 220 -55 235 -25 13 -27
13 -49 -9z"/>
<path d="M10434 23371 c-47 -29 -79 -78 -103 -158 -26 -89 -58 -163 -68 -163
-5 0 -14 14 -21 32 -23 62 -43 7 -62 -167 -19 -175 -41 -288 -73 -369 -29 -75
-30 -80 -16 -119 8 -25 21 -43 32 -45 48 -9 141 111 153 198 9 71 14 81 56
122 l40 39 -7 133 c-8 153 -3 168 81 266 58 67 83 122 84 177 0 69 -37 90 -96
54z"/>
<path d="M20148 23303 c-50 -58 -48 -107 11 -241 51 -116 96 -263 116 -376 20
-118 19 -158 -6 -217 l-21 -49 41 -83 c40 -80 52 -127 81 -303 21 -134 100
-281 216 -403 143 -152 343 -240 414 -183 22 18 22 19 6 50 -34 66 -230 190
-329 208 -21 3 -48 15 -60 25 l-22 19 23 19 c23 20 65 30 200 50 97 15 127 32
156 89 13 26 51 78 83 115 118 139 194 244 235 325 49 101 61 172 32 203 -57
63 -82 47 -150 -96 -73 -155 -136 -224 -148 -162 -3 12 -7 49 -10 83 -7 77
-14 94 -37 94 -28 0 -42 -36 -36 -94 7 -70 -9 -139 -50 -218 -68 -131 -138
-185 -205 -157 -40 17 -102 96 -128 166 -40 106 -43 146 -36 400 4 147 2 244
-3 248 -5 3 -12 -4 -16 -15 -11 -35 -41 -43 -64 -19 -48 52 -101 201 -101 286
0 67 -16 97 -75 147 -25 21 -54 53 -63 72 -18 38 -32 42 -54 17z"/>
<path d="M13713 23285 c-109 -55 -206 -194 -259 -372 -32 -107 -43 -289 -25
-383 14 -69 46 -150 59 -150 5 0 12 41 16 92 4 66 13 106 31 146 14 30 41 120
60 201 57 236 76 281 157 367 49 54 68 81 66 97 -4 32 -43 33 -105 2z"/>
<path d="M17032 23280 c-36 -22 -99 -140 -86 -161 8 -13 25 -11 249 31 160 30
230 36 251 22 27 -17 43 -89 59 -252 4 -36 13 -93 21 -127 8 -34 11 -69 8 -78
-10 -25 -87 -59 -227 -101 -70 -20 -124 -40 -121 -43 3 -3 69 -8 147 -11 132
-5 145 -7 188 -32 26 -15 70 -55 99 -88 29 -33 66 -70 82 -81 52 -37 138 -24
138 20 0 9 -32 48 -71 86 -39 39 -82 89 -95 111 -24 40 -24 46 -18 160 6 116
6 122 -25 209 -17 50 -37 126 -46 169 -8 43 -21 89 -30 102 -38 59 -144 84
-349 84 -124 0 -145 -3 -174 -20z"/>
<path d="M19368 23176 c-184 -67 -324 -282 -316 -486 2 -42 -4 -69 -26 -117
-36 -78 -28 -93 48 -93 57 0 81 13 89 48 5 21 -4 150 -18 283 l-7 56 74 13
c98 17 164 37 182 55 11 11 13 29 9 70 -5 51 -4 57 26 91 60 68 27 112 -61 80z"/>
<path d="M21824 22892 c-77 -56 -154 -170 -154 -229 0 -45 -31 -101 -70 -128
-52 -36 -83 -78 -124 -169 -50 -109 -84 -155 -231 -308 -73 -76 -144 -160
-159 -188 l-28 -51 24 -47 c24 -50 28 -98 14 -194 -7 -48 -6 -58 6 -58 36 0
68 64 97 197 34 155 114 333 149 333 20 0 68 -36 139 -103 l62 -60 11 29 c31
81 33 124 10 211 -22 82 -23 86 -7 165 17 89 40 129 78 139 13 4 58 7 99 8 96
1 115 -11 124 -78 7 -52 26 -77 51 -67 33 12 8 227 -35 291 -11 17 -25 38 -32
47 -13 18 -11 24 42 175 38 106 11 141 -66 85z"/>
<path d="M24067 22533 c-28 -7 -38 -48 -44 -176 -3 -64 -11 -124 -17 -133 -9
-11 -33 -16 -94 -18 -136 -3 -130 -44 20 -146 132 -90 175 -127 187 -160 11
-34 49 -48 90 -34 21 8 27 17 29 47 3 33 -2 43 -35 75 -21 20 -53 45 -71 54
-47 25 -55 56 -49 188 7 130 18 175 54 208 35 32 108 30 173 -4 44 -23 59 -26
128 -22 47 2 92 11 114 22 38 18 86 81 73 94 -8 8 -530 13 -558 5z"/>
<path d="M22949 22293 c-18 -21 -16 -122 6 -238 12 -64 15 -113 11 -170 -6
-74 -5 -84 21 -135 38 -76 104 -112 213 -117 88 -5 125 9 125 47 0 21 -6 25
-45 32 -106 18 -134 52 -196 232 -31 91 -31 129 1 154 27 21 33 42 13 42 -7 1
9 12 35 26 32 17 47 30 45 41 -4 20 -159 103 -192 103 -13 0 -30 -7 -37 -17z"/>
<path d="M18048 22263 c-33 -34 -67 -108 -68 -144 0 -15 9 -38 20 -52 24 -31
133 -87 168 -87 40 0 88 -40 123 -101 17 -31 42 -62 55 -68 14 -6 60 -8 122
-4 94 6 104 4 193 -27 89 -31 99 -32 188 -26 122 9 143 20 66 36 -114 24 -441
122 -507 152 -80 36 -113 67 -103 97 9 31 35 40 133 52 100 13 122 22 122 50
0 14 -12 25 -37 36 -57 24 -129 22 -195 -6 -51 -22 -62 -23 -97 -13 -55 17
-83 43 -96 88 -14 51 -48 58 -87 17z"/>
<path d="M20072 22268 c-98 -39 -191 -145 -192 -218 -1 -74 -58 -170 -93 -157
-36 14 -15 180 28 227 23 25 16 64 -12 68 -55 8 -151 -161 -183 -321 -11 -55
-23 -103 -26 -109 -4 -7 -72 -8 -198 -3 -299 10 -437 -13 -444 -77 -4 -37 -29
-31 333 -73 72 -8 146 -12 165 -9 23 4 50 0 74 -10 l38 -16 -4 -69 c-4 -84
-20 -106 -89 -120 -70 -15 -187 -14 -242 3 -25 7 -77 34 -115 59 -84 57 -340
183 -482 238 -123 49 -235 64 -259 35 -20 -24 8 -52 88 -88 77 -34 177 -107
246 -178 28 -29 83 -74 123 -102 95 -64 278 -155 345 -170 66 -16 305 -15 378
1 127 27 223 170 270 400 11 55 36 129 59 179 51 109 155 266 230 345 66 72
92 117 88 155 -3 23 -8 27 -38 29 -19 1 -59 -7 -88 -19z"/>
<path d="M23235 22190 c-14 -23 54 -168 131 -274 19 -28 40 -69 47 -93 22 -82
117 -111 325 -98 70 4 143 7 162 6 43 -1 87 -18 94 -36 2 -7 25 -25 50 -40 38
-22 54 -26 113 -23 l68 3 -63 42 c-74 50 -139 75 -287 113 -157 40 -219 70
-295 144 -104 100 -284 245 -322 259 -10 3 -20 2 -23 -3z"/>
<path d="M17503 22094 c-24 -38 -28 -121 -8 -190 43 -150 179 -358 322 -495
101 -96 154 -128 235 -139 48 -7 68 -15 85 -34 36 -42 83 -277 104 -520 12
-147 41 -254 89 -329 29 -47 67 -71 93 -61 46 17 81 -80 92 -251 7 -111 18
-152 46 -160 19 -6 23 -16 34 -80 10 -56 23 -77 47 -73 19 3 21 10 23 88 2 65
11 114 40 210 21 69 40 135 42 146 3 14 -26 74 -88 180 -166 285 -199 363
-199 472 0 77 17 118 103 254 60 95 74 133 57 153 -20 24 -54 2 -147 -93 -60
-62 -97 -92 -107 -89 -16 6 -29 48 -43 132 -7 46 -12 52 -63 86 -31 20 -103
80 -160 133 -68 63 -126 107 -166 125 -43 21 -80 50 -129 103 -114 123 -176
225 -206 341 -29 113 -61 143 -96 91z"/>
<path d="M22515 21804 c-103 -16 -139 -36 -143 -82 -5 -45 23 -56 122 -48 109
9 245 36 261 52 18 18 8 50 -23 74 -30 24 -84 25 -217 4z"/>
<path d="M23660 21616 c-9 -12 -7 -24 8 -58 20 -45 67 -92 220 -221 104 -87
187 -183 237 -274 51 -89 113 -133 191 -133 38 0 34 12 -24 74 -62 66 -128
171 -163 257 -17 41 -23 78 -24 149 -1 64 -8 109 -20 138 -25 62 -38 55 -75
-38 -25 -64 -65 -120 -85 -120 -20 0 -41 34 -71 112 -14 37 -38 81 -54 98 -24
26 -35 30 -78 30 -31 0 -54 -5 -62 -14z"/>
<path d="M20149 21578 c-1 -18 -1 -49 0 -69 3 -50 -25 -101 -99 -182 -114
-124 -233 -208 -382 -271 -44 -18 -50 -46 -16 -70 26 -19 162 -22 218 -6 51
16 188 118 237 178 28 35 45 67 49 94 5 30 20 56 54 93 66 73 77 111 51 170
-23 51 -65 95 -92 95 -14 0 -19 -8 -20 -32z"/>
<path d="M9660 21421 c-13 -25 -13 -97 0 -121 5 -10 24 -22 42 -25 102 -22
242 -197 219 -271 -32 -101 -7 -617 31 -640 27 -17 108 122 132 226 13 54 13
76 1 167 -8 57 -19 165 -26 240 l-13 136 -44 59 c-47 63 -175 181 -242 223
-48 30 -85 32 -100 6z"/>
<path d="M17361 21217 c-6 -8 -16 -61 -22 -118 -18 -180 -40 -249 -118 -368
-32 -49 -55 -97 -64 -136 -17 -72 -43 -125 -110 -223 -54 -79 -74 -155 -46
-173 34 -21 69 -9 115 39 95 99 188 284 204 407 12 91 32 146 81 222 22 34 47
83 55 109 19 62 18 167 -1 204 -24 46 -71 64 -94 37z"/>
<path d="M24760 20535 c-9 -11 -7 -31 8 -94 27 -104 42 -132 116 -208 89 -90
134 -84 107 16 -27 101 -116 244 -175 280 -40 25 -40 25 -56 6z"/>
<path d="M25223 20273 c-22 -8 -14 -58 14 -99 14 -21 43 -86 65 -144 54 -146
74 -188 119 -241 38 -45 71 -71 305 -244 60 -44 130 -101 157 -127 26 -26 56
-52 67 -58 35 -19 42 26 41 264 -2 273 -15 346 -65 346 -23 0 -94 -42 -108
-64 -15 -22 -8 -53 18 -77 39 -36 67 -98 68 -151 1 -25 -3 -50 -7 -54 -16 -16
-118 49 -193 125 -43 42 -110 117 -150 166 -41 50 -86 105 -100 123 -15 18
-48 63 -74 100 -45 64 -122 143 -138 141 -4 0 -13 -3 -19 -6z"/>
<path d="M25060 19689 c0 -5 5 -7 10 -4 6 3 10 8 10 11 0 2 -4 4 -10 4 -5 0
-10 -5 -10 -11z"/>
<path d="M16827 19448 c-37 -29 -41 -64 -45 -408 -5 -417 17 -882 42 -907 2
-3 14 0 25 6 54 29 94 287 95 601 0 229 -8 291 -51 425 -20 61 -26 104 -28
180 -3 131 -2 129 -38 103z"/>
<path d="M14951 18466 c-15 -18 -6 -56 61 -236 56 -152 140 -331 188 -403 38
-56 111 -110 143 -105 33 5 36 59 4 85 -33 26 -43 49 -52 116 -4 37 -20 84
-42 125 -45 86 -61 139 -73 236 -16 137 -66 196 -165 196 -33 0 -57 -5 -64
-14z"/>
<path d="M23530 18425 c-30 -7 -81 -25 -113 -39 -67 -30 -203 -56 -292 -56
-85 0 -273 -33 -363 -64 -107 -37 -181 -49 -220 -35 -18 6 -32 15 -32 20 0 4
20 31 45 59 25 28 45 54 45 58 0 16 -25 32 -51 32 -29 0 -59 -20 -140 -96 -58
-55 -120 -90 -207 -119 -70 -22 -177 -95 -277 -187 -168 -154 -239 -204 -467
-324 -89 -47 -174 -94 -189 -104 -44 -32 -176 -88 -379 -162 -107 -39 -230
-89 -273 -110 l-79 -40 7 -36 c11 -61 23 -67 133 -66 88 2 247 27 342 56 156
46 337 129 394 179 42 36 122 69 170 69 63 0 211 30 316 65 227 75 571 140
995 190 464 55 553 53 895 -15 241 -48 353 -67 453 -76 83 -7 100 3 49 30 -27
14 -82 85 -82 105 0 21 -68 79 -105 90 -22 6 -177 30 -345 53 l-305 43 -370
-1 c-311 -1 -399 -4 -554 -22 -101 -12 -186 -21 -188 -19 -6 7 74 65 126 91
29 15 87 35 129 46 79 19 539 80 608 80 22 0 58 7 81 15 58 20 292 43 523 51
184 6 198 5 240 -15 25 -11 58 -21 73 -21 15 0 40 -6 55 -14 15 -8 64 -24 110
-36 105 -28 142 -57 142 -110 0 -21 4 -50 10 -64 21 -55 63 -21 121 98 91 186
42 239 -273 305 -79 16 -210 46 -293 66 -177 43 -367 56 -465 30z"/>
<path d="M26221 18164 c0 -11 3 -14 6 -6 3 7 2 16 -1 19 -3 4 -6 -2 -5 -13z"/>
<path d="M17995 17374 c-47 -24 -83 -63 -132 -142 -56 -90 -92 -176 -93 -220
0 -19 7 -57 15 -85 29 -104 54 -568 40 -750 -5 -79 -11 -102 -27 -117 -30 -27
-20 -61 27 -88 33 -19 51 -22 104 -19 57 3 67 6 93 36 27 30 29 38 23 75 -11
67 -5 450 10 599 10 91 23 162 40 210 35 101 50 241 38 360 -10 90 -12 96 -44
126 -39 35 -52 37 -94 15z"/>
<path d="M22245 17174 c-516 -120 -774 -207 -932 -315 -115 -79 -203 -181
-203 -236 0 -30 3 -33 28 -33 18 0 49 16 87 45 124 97 345 204 705 342 292
112 405 161 430 188 l23 25 -39 -1 c-21 -1 -66 -7 -99 -15z"/>
<path d="M12736 17149 c-55 -43 -126 -224 -126 -319 0 -57 5 -70 77 -203 26
-48 26 -98 -1 -226 -37 -178 -45 -234 -61 -426 -13 -161 -13 -171 4 -190 27
-29 38 -72 66 -252 25 -163 44 -233 65 -233 18 0 48 80 61 159 13 85 5 164
-22 233 -28 72 -42 223 -35 383 7 165 17 233 53 377 26 99 27 110 14 165 -7
32 -17 78 -23 103 -5 26 -7 109 -3 201 4 86 3 173 0 193 -10 49 -35 62 -69 35z"/>
<path d="M22920 17020 c-304 -22 -778 -134 -965 -227 -66 -33 -144 -86 -145
-97 0 -13 161 -322 219 -420 70 -119 105 -156 148 -156 27 0 43 8 69 34 57 57
50 75 -85 241 -142 175 -162 246 -76 271 400 119 477 134 765 154 96 7 225 17
285 21 191 16 277 13 328 -10 64 -29 112 -27 185 10 74 36 83 57 53 123 -22
50 -18 49 -131 52 -306 10 -554 11 -650 4z"/>
<path d="M23127 16768 c-21 -16 -34 -128 -43 -353 -8 -175 -2 -235 22 -235 22
0 85 35 116 65 32 29 32 32 48 180 6 61 21 159 32 219 20 106 20 110 3 123
-24 17 -155 18 -178 1z"/>
<path d="M10522 16745 c-52 -44 -66 -87 -65 -205 1 -175 48 -374 125 -523 80
-153 158 -171 158 -35 0 50 -6 70 -34 121 -19 34 -66 155 -105 269 l-69 207
56 42 c94 70 112 104 70 133 -35 25 -101 20 -136 -9z"/>
<path d="M15060 16581 c-5 -11 -10 -26 -10 -34 0 -26 -39 -65 -88 -88 -63 -30
-125 -72 -197 -135 -76 -65 -125 -90 -197 -97 -94 -9 -218 -76 -218 -118 0
-26 35 -39 104 -39 90 0 165 19 258 66 229 115 418 293 418 394 0 57 -48 92
-70 51z"/>
<path d="M23421 16490 c-71 -115 -112 -247 -120 -385 -5 -89 -8 -100 -26 -104
-16 -3 -123 12 -240 34 -11 3 -38 27 -59 54 -60 76 -148 113 -396 167 -42 10
-88 12 -130 8 -109 -11 -126 -32 -63 -80 46 -35 179 -104 200 -104 9 0 24 -7
34 -16 16 -14 32 -18 124 -28 20 -2 46 -19 76 -50 42 -42 52 -48 123 -61 51
-10 140 -15 260 -15 l183 0 56 193 c62 211 75 265 77 317 4 65 0 89 -16 104
-28 28 -51 19 -83 -34z"/>
<path d="M13861 16333 c-94 -113 -159 -335 -167 -573 -5 -127 -3 -149 13 -180
23 -44 55 -51 71 -15 7 15 24 90 38 168 13 78 43 237 65 354 52 274 48 328
-20 246z"/>
<path d="M13415 16318 c-38 -34 -48 -122 -42 -363 6 -214 20 -309 73 -468 176
-535 471 -1068 738 -1332 109 -107 168 -142 265 -154 80 -10 95 -19 143 -81
39 -52 66 -60 106 -30 27 20 72 26 137 18 15 -2 21 4 23 24 7 58 -46 98 -130
98 -133 1 -365 150 -540 347 -80 90 -134 167 -203 288 -32 55 -88 147 -126
205 -46 71 -90 159 -137 275 -39 94 -87 205 -106 249 -68 146 -76 193 -86 481
-15 441 -19 465 -64 465 -14 0 -37 -10 -51 -22z"/>
<path d="M15037 16051 c-54 -28 -87 -54 -259 -209 -229 -207 -361 -352 -463
-512 -108 -168 -126 -236 -106 -409 36 -306 139 -450 388 -540 43 -16 189 -54
324 -85 197 -46 251 -55 272 -47 57 22 19 92 -79 143 -103 54 -125 82 -144
181 l-16 82 -11 -92 c-13 -112 -22 -127 -77 -120 -124 17 -331 179 -400 315
-68 133 23 428 210 679 85 114 168 197 288 287 61 46 119 92 128 102 57 64 65
203 14 236 -17 12 -29 10 -69 -11z"/>
<path d="M15359 15953 c-5 -16 -12 -35 -16 -43 -3 -8 -9 -112 -12 -230 -7
-202 -9 -219 -33 -275 -15 -33 -29 -79 -32 -102 -8 -59 10 -207 35 -289 18
-59 29 -77 76 -120 37 -35 62 -69 77 -106 12 -30 48 -93 79 -141 152 -233 143
-269 -72 -296 -112 -14 -156 -36 -156 -76 0 -50 74 -88 196 -101 43 -5 74 -1
126 14 82 25 138 69 177 142 23 43 27 60 22 96 -13 96 -112 268 -222 385 -131
140 -150 219 -169 729 -8 201 -19 382 -25 403 -13 44 -36 49 -51 10z"/>
<path d="M16160 13984 c-18 -47 -11 -171 31 -503 23 -183 21 -221 -20 -307
-55 -116 -106 -155 -233 -176 -108 -18 -344 -15 -462 7 -74 13 -124 16 -199
12 -84 -5 -109 -3 -158 13 -112 38 -196 97 -337 237 -73 73 -152 144 -177 158
-55 33 -89 30 -93 -6 -4 -36 89 -150 221 -273 208 -192 297 -249 424 -268 177
-25 257 -44 363 -83 191 -71 281 -78 430 -33 117 36 178 75 297 193 124 123
133 140 133 260 0 133 -64 466 -125 646 -48 144 -74 178 -95 123z"/>
<path d="M13460 13868 c0 -7 32 -56 70 -108 135 -183 147 -212 161 -379 29
-344 33 -366 79 -366 19 0 30 9 45 40 17 34 20 59 19 170 -2 226 -42 351 -153
482 -100 118 -221 206 -221 161z"/>
<path d="M25080 12800 c-135 -12 -205 -28 -365 -83 l-150 -52 -155 0 c-85 0
-216 4 -290 8 l-135 9 65 -67 c158 -161 317 -179 740 -85 350 78 517 94 685
64 96 -17 173 -13 231 11 19 8 34 21 34 29 0 19 -96 82 -173 113 -112 46 -317
69 -487 53z"/>
<path d="M23805 10641 c-22 -10 -56 -35 -75 -55 -78 -82 -67 -80 -425 -89
-350 -8 -388 -9 -395 -17 -3 -3 -30 -13 -61 -23 -103 -32 -159 -86 -177 -173
-20 -94 4 -105 144 -68 213 56 216 56 354 -26 85 -50 136 -67 165 -56 24 9 18
24 -27 66 l-42 38 42 42 c40 40 45 42 89 37 33 -3 115 -40 282 -125 266 -135
391 -187 471 -197 81 -10 154 -30 358 -97 101 -33 186 -57 190 -53 3 3 5 67 4
141 -3 168 6 202 69 269 59 62 61 86 15 130 -76 72 -305 183 -453 221 -206 52
-455 69 -528 35z m439 -225 c182 -27 224 -38 273 -70 58 -38 71 -109 28 -151
-21 -22 -33 -25 -103 -25 -162 0 -367 52 -536 136 -120 60 -183 120 -143 138
26 13 321 -5 481 -28z"/>
<path d="M13005 10274 c-16 -8 -53 -37 -82 -65 -71 -67 -104 -79 -247 -89 -66
-4 -133 -12 -147 -18 -51 -20 -119 -129 -119 -190 0 -41 -60 -129 -185 -267
-136 -152 -150 -173 -174 -267 -11 -42 -29 -94 -39 -115 -31 -60 -51 -139 -67
-262 -19 -144 -57 -258 -146 -439 -59 -119 -81 -154 -132 -206 -54 -54 -76
-68 -167 -105 -150 -61 -161 -74 -181 -204 -14 -94 -51 -187 -106 -266 -25
-35 -158 -174 -296 -310 -138 -135 -297 -291 -353 -346 -572 -563 -929 -907
-1044 -1005 -41 -35 -91 -80 -110 -100 -19 -19 -77 -71 -127 -114 -51 -43 -93
-81 -93 -85 0 -4 -48 -47 -106 -96 -58 -49 -109 -94 -112 -101 -15 -23 -277
-241 -337 -279 -16 -10 -74 -54 -127 -97 -53 -43 -100 -78 -104 -78 -3 0 -57
-40 -119 -90 -62 -49 -116 -90 -119 -90 -4 0 -51 -35 -104 -78 -53 -43 -110
-86 -127 -97 -16 -10 -74 -54 -127 -97 -53 -43 -100 -78 -105 -78 -4 0 -28
-16 -53 -36 -25 -20 -54 -40 -65 -45 -11 -5 -40 -23 -65 -39 -25 -16 -58 -36
-75 -45 -16 -8 -48 -26 -70 -40 -22 -14 -47 -28 -55 -32 -8 -3 -22 -11 -30
-18 -8 -7 -40 -26 -70 -42 -30 -17 -71 -40 -90 -51 -19 -12 -51 -31 -70 -42
-19 -11 -53 -32 -75 -45 -22 -14 -49 -30 -60 -35 -11 -5 -38 -21 -60 -35 -22
-13 -56 -34 -75 -45 -19 -11 -53 -32 -75 -45 -22 -14 -49 -30 -60 -35 -11 -5
-38 -21 -60 -35 -22 -13 -56 -34 -75 -45 -19 -11 -48 -29 -65 -39 -35 -21
-102 -60 -130 -75 -12 -6 -51 -35 -87 -63 -36 -29 -69 -53 -73 -53 -3 0 -38
-24 -75 -53 -38 -28 -108 -79 -154 -112 -47 -33 -117 -84 -155 -113 -38 -28
-72 -52 -76 -52 -3 0 -37 -25 -75 -55 -38 -30 -72 -55 -75 -55 -4 0 -37 -22
-73 -50 -196 -146 -242 -180 -248 -180 -4 0 -37 -25 -75 -55 -37 -30 -71 -55
-75 -55 -4 0 -34 -20 -65 -45 -32 -25 -60 -45 -64 -45 -4 0 -33 -20 -65 -45
-32 -25 -61 -45 -65 -45 -4 0 -32 -20 -64 -45 -31 -25 -60 -45 -64 -45 -5 0
-31 -18 -183 -130 -27 -19 -59 -41 -74 -49 -14 -8 -46 -31 -71 -52 -26 -22
-50 -39 -55 -39 -4 0 -34 -20 -65 -45 -32 -25 -60 -45 -64 -45 -4 0 -33 -20
-65 -45 -32 -25 -61 -45 -65 -45 -4 0 -32 -20 -64 -45 -31 -25 -60 -45 -64
-45 -3 0 -35 -21 -71 -47 -35 -27 -86 -64 -112 -83 -50 -36 -167 -103 -289
-166 -38 -19 -128 -66 -200 -104 -71 -38 -161 -85 -200 -105 -38 -20 -142 -74
-230 -120 -88 -46 -392 -199 -675 -340 -283 -141 -522 -260 -530 -265 -8 -5
-30 -17 -47 -25 -18 -8 -48 -22 -65 -30 -18 -8 -40 -20 -48 -25 -8 -5 -78 -39
-155 -76 -77 -37 -153 -77 -170 -89 -16 -12 -69 -45 -116 -73 -130 -78 -164
-113 -210 -216 -21 -48 -39 -92 -39 -97 0 -5 42 -9 94 -9 91 0 94 1 112 27 58
89 154 166 302 243 46 24 89 48 95 54 7 7 179 94 382 194 204 101 377 187 385
192 8 6 30 17 48 25 17 8 47 22 65 30 17 8 39 19 47 24 8 6 110 57 225 114
116 58 248 125 295 150 47 25 139 73 205 107 66 34 156 81 200 104 44 24 145
77 225 118 80 42 174 92 210 112 36 20 72 39 80 42 8 4 40 26 72 50 31 24 59
44 63 44 4 0 33 20 65 45 32 25 61 45 65 45 4 0 32 20 64 45 31 25 60 45 64
45 5 0 31 18 183 130 27 19 59 41 74 49 14 8 46 31 71 52 26 22 50 39 55 39 4
0 34 20 65 45 32 25 60 45 64 45 4 0 33 20 65 45 32 25 61 45 65 45 4 0 32 20
64 45 31 25 60 45 64 45 5 0 31 18 183 130 27 19 59 41 74 49 14 8 50 34 80
59 30 24 62 47 70 50 8 3 47 31 87 61 40 31 110 83 157 116 47 33 117 84 155
112 38 29 72 53 76 53 3 0 37 25 75 55 38 30 72 55 75 55 4 0 37 23 73 50 37
28 108 79 157 115 50 35 119 86 154 112 36 26 72 52 82 58 43 25 167 98 197
115 17 11 47 29 65 40 17 10 64 37 102 60 39 23 85 50 103 60 17 11 47 29 65
40 17 10 64 37 102 60 78 45 119 70 167 100 18 11 47 27 63 35 17 9 48 27 70
40 22 14 49 30 60 35 11 6 40 24 65 40 25 16 59 36 75 45 17 8 48 26 70 40 22
14 47 28 55 32 8 3 33 20 55 38 22 18 51 38 65 45 14 7 68 48 120 89 52 42
109 85 125 96 17 10 71 52 121 92 50 40 94 73 98 73 4 0 51 35 104 78 53 43
111 87 127 98 17 10 76 55 132 99 57 44 129 99 160 122 77 55 238 190 339 283
44 41 143 131 219 200 76 69 173 157 215 195 42 39 141 129 220 200 159 144
378 361 484 480 38 42 96 95 128 118 32 22 58 44 58 49 0 4 21 23 48 43 26 20
47 41 47 47 0 13 97 91 147 118 21 11 45 35 54 53 9 17 98 113 198 212 100 99
242 242 316 317 73 75 137 135 142 132 14 -9 9 -39 -31 -160 -85 -257 -81
-428 21 -869 12 -51 33 -109 49 -135 15 -25 38 -68 50 -95 12 -28 34 -68 49
-90 41 -61 194 -349 286 -540 97 -200 193 -426 279 -656 65 -174 106 -253 179
-348 62 -80 171 -249 336 -521 157 -259 338 -533 451 -686 40 -54 119 -169
175 -254 56 -85 138 -198 183 -250 44 -52 119 -140 166 -195 47 -54 93 -116
103 -137 21 -46 50 -56 91 -32 47 28 55 57 30 107 -78 151 -445 701 -624 932
-121 157 -283 413 -499 788 -264 459 -378 675 -612 1160 -95 197 -189 383
-210 414 -20 30 -76 139 -124 242 -228 483 -288 670 -277 860 5 104 20 153 88
303 65 144 88 205 114 307 25 94 32 175 16 185 -4 3 -23 -6 -41 -19 -37 -27
-94 -49 -113 -42 -6 2 8 17 31 33 24 16 60 43 81 61 20 17 50 33 66 35 41 4
70 50 213 338 138 276 166 354 193 542 34 241 137 506 253 653 147 184 177
230 191 297 8 42 43 58 175 79 85 13 141 29 185 50 53 25 72 30 125 27 l62 -3
-63 -69 c-96 -104 -130 -126 -187 -119 -76 8 -132 -42 -234 -209 -51 -83 -79
-163 -79 -223 0 -175 308 -804 531 -1083 190 -238 625 -651 1020 -969 294
-235 811 -605 1375 -982 410 -275 567 -372 722 -451 43 -21 107 -63 143 -92
127 -104 254 -186 700 -453 409 -245 771 -475 1145 -729 321 -218 442 -313
552 -436 54 -60 103 -110 108 -110 6 1 46 34 90 75 59 55 75 75 60 75 -44 1
-107 43 -212 141 -145 137 -477 374 -938 669 -237 152 -688 423 -970 585 -129
73 -341 214 -400 265 -76 66 -164 124 -310 205 -313 175 -765 464 -1027 657
-69 51 -218 160 -330 242 -537 395 -869 669 -1187 981 -311 305 -465 508 -571
755 -39 92 -37 115 18 290 50 156 72 261 72 342 1 127 85 425 176 619 30 63
54 120 54 127 0 15 -33 32 -64 32 -14 0 -55 -16 -92 -35 -36 -19 -72 -35 -79
-35 -7 0 -23 12 -35 27 -18 24 -21 36 -15 80 6 47 4 53 -12 53 -10 0 -31 -7
-48 -16z m-1491 -2198 c-3 -7 -16 -18 -30 -24 -13 -7 -24 -16 -24 -22 0 -6 -4
-9 -10 -5 -21 13 25 57 67 65 1 0 0 -6 -3 -14z"/>
<path d="M24153 9031 c-24 -23 -46 -31 -104 -41 -133 -21 -199 -51 -199 -91 0
-26 32 -32 123 -23 115 10 138 7 164 -24 l22 -26 36 37 c28 29 46 38 86 43 84
11 102 74 37 129 -23 20 -41 25 -82 25 -45 0 -58 -5 -83 -29z"/>
<path d="M19888 6840 c-116 -11 -163 -28 -299 -106 -63 -36 -139 -79 -169 -94
-89 -45 -262 -245 -336 -389 -37 -71 -30 -82 53 -79 74 1 118 -14 150 -55 34
-43 39 -39 35 22 -4 50 1 68 32 135 60 131 95 170 199 222 49 25 106 57 126
70 92 60 236 97 426 109 179 11 445 -24 459 -61 7 -17 1 -20 -85 -49 -80 -27
-144 -62 -204 -110 -50 -41 -104 -68 -174 -89 -93 -28 -94 -27 -86 54 l7 70
-26 0 c-33 0 -66 -33 -66 -66 0 -31 13 -57 57 -111 52 -63 54 -105 10 -168
-69 -96 -89 -145 -108 -259 -10 -60 -25 -132 -34 -161 -29 -100 -17 -108 54
-37 43 43 49 56 59 113 21 118 118 270 291 460 110 119 248 240 267 232 44
-17 -15 -171 -121 -318 -107 -148 -228 -339 -302 -479 -41 -77 -87 -158 -102
-180 -31 -47 -107 -180 -176 -311 -92 -175 -211 -342 -370 -520 -44 -50 -87
-99 -95 -110 -15 -20 -15 -20 15 0 67 43 254 147 311 171 59 26 62 30 148 160
109 167 189 304 329 564 129 240 202 361 304 496 111 150 207 351 294 618 58
178 53 205 -42 225 -122 26 -671 47 -831 31z"/>
<path d="M20753 5873 c-11 -37 -10 -498 0 -546 7 -32 12 -38 30 -35 51 7 84
160 73 343 -7 115 -29 229 -47 252 -19 23 -48 15 -56 -14z"/>
<path d="M21330 5601 c-5 -11 -10 -69 -10 -130 l0 -110 41 14 c23 8 44 15 46
15 7 0 -45 -59 -183 -206 l-113 -122 24 -88 c31 -116 39 -138 123 -334 39 -91
89 -219 111 -285 22 -66 52 -143 67 -170 40 -72 118 -144 210 -193 130 -70
230 -184 203 -233 -11 -21 -37 -15 -116 25 -67 33 -93 34 -93 2 0 -51 65 -147
224 -330 104 -120 141 -175 205 -303 153 -304 247 -726 537 -2413 42 -239 78
-450 81 -467 l6 -33 107 0 106 0 -52 288 c-153 842 -187 1030 -229 1275 -25
147 -66 363 -91 480 -79 367 -121 586 -149 767 -43 290 -69 368 -214 659 -144
286 -211 475 -266 746 -32 156 -81 285 -210 547 -128 258 -136 282 -144 410
-4 59 -10 111 -14 115 -5 4 -18 -6 -31 -22 l-24 -30 -11 41 c-12 44 -28 63
-78 88 -41 21 -50 20 -63 -3z"/>
<path d="M19334 4918 c-78 -58 -294 -317 -345 -414 -45 -84 4 -96 109 -27 80
53 177 153 204 210 18 38 37 58 96 96 84 55 90 75 39 125 -39 38 -62 40 -103
10z"/>
<path d="M8263 4367 c-39 -29 -103 -70 -142 -92 -39 -22 -71 -43 -71 -47 0 -3
-39 -64 -86 -135 -110 -165 -171 -266 -226 -378 -54 -109 -122 -212 -212 -320
-84 -100 -102 -131 -85 -151 16 -19 93 -18 136 3 110 52 284 289 511 694 76
135 256 480 250 478 -1 0 -35 -24 -75 -52z"/>
<path d="M18475 4040 c-3 -5 -1 -10 4 -10 6 0 11 5 11 10 0 6 -2 10 -4 10 -3
0 -8 -4 -11 -10z"/>
<path d="M19615 3960 c-74 -15 -199 -71 -460 -204 -473 -242 -690 -382 -893
-580 -110 -107 -126 -139 -130 -263 -4 -108 3 -193 17 -193 5 0 16 29 25 65
42 168 82 227 241 350 118 91 188 136 326 209 141 75 160 91 184 149 32 79 41
92 80 114 22 12 83 32 135 44 118 27 215 61 304 108 69 36 71 36 190 35 104 0
133 -4 206 -28 178 -58 500 -259 500 -312 0 -18 -37 -77 -108 -174 -76 -103
-132 -161 -227 -235 -105 -81 -166 -148 -142 -153 25 -5 136 63 246 150 51 40
120 95 154 122 68 54 149 96 185 96 37 0 58 -16 116 -89 31 -39 70 -75 91 -85
33 -16 38 -16 61 -2 52 35 21 113 -116 288 -87 111 -369 392 -453 452 -84 59
-130 79 -248 110 -106 28 -225 39 -284 26z"/>
<path d="M18089 3706 l-116 -11 -284 -195 c-156 -107 -394 -269 -529 -360
-135 -92 -335 -227 -445 -302 -231 -156 -375 -249 -785 -506 -656 -412 -886
-565 -909 -610 -40 -79 140 -41 362 76 302 159 989 595 1244 789 161 123 359
252 593 388 548 319 626 372 803 543 78 75 164 152 191 170 57 37 66 36 -125
18z"/>
<path d="M13230 3080 c0 -69 27 -149 70 -208 45 -62 85 -149 120 -258 107
-332 522 -1436 856 -2276 l39 -98 113 0 c61 0 112 2 112 4 0 13 -186 509 -265
706 -109 274 -177 452 -285 750 -251 691 -426 1077 -576 1270 -68 88 -149 170
-167 170 -14 0 -17 -10 -17 -60z"/>
<path d="M7643 2975 c-44 -19 -43 -50 5 -109 95 -118 230 -188 687 -356 77
-29 250 -100 385 -157 361 -156 475 -191 580 -181 58 6 100 37 100 76 0 78
-241 192 -1170 552 -351 136 -505 190 -538 190 -9 -1 -32 -7 -49 -15z"/>
<path d="M19866 2362 c-18 -29 -28 -459 -22 -962 5 -496 12 -679 36 -985 14
-179 13 -175 56 -175 34 0 35 1 30 32 -6 35 -17 343 -41 1108 -23 733 -39
1012 -59 982z"/>
<path d="M26093 2020 c-30 -12 -30 -47 1 -88 28 -39 47 -151 72 -422 20 -228
40 -367 63 -454 28 -101 49 -279 71 -596 17 -238 11 -220 76 -220 l55 0 -6 63
c-3 34 -12 193 -21 352 -22 435 -47 700 -100 1065 -29 208 -46 274 -76 295
-24 16 -99 19 -135 5z"/>
<path d="M24677 1513 c-16 -15 -4 -37 45 -90 113 -118 361 -293 417 -293 42 0
121 -43 201 -109 88 -72 135 -89 180 -66 41 21 56 55 41 93 -18 42 -50 56
-235 101 -240 58 -289 84 -407 212 -111 121 -160 159 -204 159 -17 0 -35 -3
-38 -7z"/>
<path d="M7919 1041 c-50 -40 -22 -116 116 -312 81 -115 236 -359 285 -446
l24 -43 118 0 c65 0 118 3 118 7 0 3 -28 52 -62 107 -210 344 -427 639 -504
686 -39 25 -65 25 -95 1z"/>
<path d="M28834 848 c-17 -27 -28 -340 -16 -459 6 -64 15 -124 18 -133 5 -13
23 -16 101 -16 l96 0 -7 57 c-3 32 -10 119 -16 193 -13 181 -44 296 -92 347
-23 25 -72 31 -84 11z"/>
</g>
</svg>
