<svg version="1.1" id="Layer_1" xmlns="http://www.w3.org/2000/svg" xmlns:xlink="http://www.w3.org/1999/xlink" x="0px" y="0px"
	 width="100%" viewBox="0 0 1024 992" enable-background="new 0 0 1024 992" xml:space="preserve">
<path fill="#000000" opacity="1.000000" stroke="none" 
	d="
M1003.437500,993.000000 
	C1001.355225,984.943115 997.232910,978.545349 990.296021,974.033508 
	C983.560242,969.652588 977.552429,964.503479 972.093140,958.538635 
	C968.159851,954.241272 962.909546,951.409973 956.995728,950.437256 
	C954.630798,950.048340 952.342896,949.609985 950.579102,947.980713 
	C940.738342,938.890991 928.979431,933.017944 916.742310,928.085205 
	C910.042114,925.384399 903.672913,922.045166 897.803589,918.036804 
	C882.545227,907.616516 865.153137,901.571777 848.794739,893.434082 
	C836.734009,887.434509 823.670837,883.322144 811.992065,876.712036 
	C793.920959,866.484009 775.166565,856.923889 760.055725,842.339722 
	C753.571228,836.081421 748.239319,828.452515 743.609558,820.562012 
	C740.890259,815.927551 738.037415,811.672119 733.375000,808.554382 
	C728.453979,805.263794 728.615784,799.288147 727.931091,794.168579 
	C727.560669,791.398987 733.152527,789.048035 737.773865,789.287476 
	C743.832947,789.601501 749.257446,792.574585 755.268127,793.178528 
	C765.883423,794.245178 776.515686,795.242798 787.165100,794.528564 
	C795.048218,793.999878 798.948547,787.640503 803.106079,782.036804 
	C810.032288,772.701599 810.632080,760.687805 816.151123,750.703491 
	C817.383911,748.473328 816.641235,745.481995 816.177795,742.825134 
	C815.240051,737.449829 816.417969,732.525513 819.923828,728.332764 
	C824.079895,723.362488 828.608032,718.983093 834.178101,715.302979 
	C841.695312,710.336487 847.147156,702.961670 851.771423,695.140442 
	C852.922729,693.193176 851.965149,691.662903 851.127014,690.022827 
	C844.990601,678.015137 846.054504,668.432617 855.933472,659.070679 
	C863.074158,652.303589 865.747314,644.473999 865.794861,635.003845 
	C865.824768,629.045288 866.773865,623.088196 867.386169,617.138184 
	C867.524231,615.796387 867.833191,614.491943 866.981384,613.291870 
	C861.823547,606.024902 867.522034,595.028564 874.228333,591.617371 
	C880.008118,588.677551 885.642822,585.506165 891.627197,582.906860 
	C905.045410,577.078369 907.142212,569.968506 905.306763,557.084595 
	C903.579651,544.961121 896.028259,536.305420 887.942871,528.015503 
	C879.697998,519.561890 874.594116,510.086884 875.542603,497.715576 
	C876.163818,489.612274 874.033936,481.419067 874.079285,473.405304 
	C874.146973,461.447052 873.722168,449.148773 882.246033,438.538818 
	C886.663879,433.039764 890.157349,427.181976 897.561829,424.817902 
	C896.359436,421.813324 897.134399,419.406555 898.189514,416.673553 
	C900.189026,411.494659 899.793701,405.931854 899.053711,400.411407 
	C897.801514,391.070007 896.999268,381.666748 895.666809,372.338257 
	C894.994690,367.632782 894.527649,362.666412 890.574585,359.128723 
	C890.241272,358.830414 889.910278,358.216400 889.982666,357.823578 
	C891.654236,348.754303 888.528931,339.207001 892.920166,330.359131 
	C894.221802,327.736450 895.421997,326.310028 898.527100,326.983154 
	C904.129700,328.197662 907.558167,323.563507 911.972473,321.602753 
	C913.006165,321.143616 912.667969,319.469391 912.401611,318.331177 
	C911.295776,313.606262 912.252808,308.660767 910.828247,303.961060 
	C910.603821,303.220337 910.619873,302.164154 910.990051,301.522278 
	C916.093994,292.673737 919.989563,283.012268 927.867920,276.005829 
	C930.249451,273.888000 933.602539,274.880585 936.293152,273.330170 
	C944.580750,268.554749 952.125488,262.863861 958.794312,256.028320 
	C960.647644,254.128708 962.369751,252.066864 963.919617,249.912247 
	C967.693787,244.665619 968.900330,239.004944 965.710388,233.047699 
	C964.363586,230.532471 964.422302,228.404160 966.080139,226.124969 
	C972.476257,217.331238 973.617676,207.166367 973.799194,196.707901 
	C973.868286,192.729385 974.351074,188.750244 974.791138,184.787598 
	C975.719971,176.422638 971.323059,171.064651 965.745972,165.373413 
	C960.287598,159.803284 953.098694,156.316711 948.648987,149.458588 
	C945.339600,144.357803 943.384521,139.213089 942.877380,133.124802 
	C941.730164,134.588409 942.520874,136.001495 942.288940,137.306854 
	C941.795288,140.085342 943.900879,143.966812 940.411743,145.419907 
	C936.014160,147.251358 931.097534,148.565750 926.418152,146.110870 
	C924.045410,144.866119 921.513794,144.087036 919.166199,142.967133 
	C912.597717,139.833603 910.328186,133.539642 908.805115,126.954910 
	C908.584412,126.000526 908.569885,124.937965 908.722534,123.966728 
	C911.369202,107.122192 902.413757,94.274834 893.976440,81.284019 
	C891.949829,78.163658 889.049072,76.181213 885.397705,74.808807 
	C878.805176,72.330925 875.050415,66.112854 869.874817,61.736866 
	C860.376221,53.705631 850.032776,47.398609 837.679810,45.262981 
	C833.945557,44.617374 830.304260,44.253262 826.831299,41.987881 
	C828.677307,45.309116 827.527771,47.948391 826.278076,50.957188 
	C824.251038,55.837479 825.514282,61.081268 825.743225,66.218773 
	C826.150391,75.356674 828.574585,84.591614 823.278625,93.427216 
	C819.533997,99.674629 813.818604,101.371384 807.468872,102.168892 
	C804.309998,102.565643 801.772827,100.985817 799.768738,98.383957 
	C796.168823,93.710129 793.672546,88.490852 791.624878,83.018211 
	C790.221680,79.268089 794.173828,76.808144 793.754944,73.007660 
	C792.422607,80.613052 785.453247,82.170113 780.610718,85.973854 
	C779.429810,86.901405 778.090271,88.023056 776.556458,87.184669 
	C774.721313,86.181580 774.443054,84.220749 774.768250,82.348251 
	C775.422302,78.582268 776.198914,74.834961 777.023621,71.101723 
	C778.780884,63.146770 776.445984,55.599815 774.737915,48.003757 
	C774.380737,46.415642 773.494751,44.926876 771.603210,44.093407 
	C771.209839,44.563293 770.722961,44.992050 770.423096,45.525875 
	C765.357727,54.543095 762.035095,55.661724 752.688904,51.224625 
	C749.685547,49.798763 746.729736,48.214794 743.937012,46.416100 
	C739.195740,43.362293 738.704590,41.395760 741.708313,36.589661 
	C743.309570,34.027653 742.960510,31.769026 741.476868,29.627918 
	C740.247009,27.852959 738.880920,25.603491 735.451477,27.309958 
	C741.764771,33.865116 735.068909,40.565441 736.109253,47.232639 
	C736.288086,48.378513 735.261169,49.874004 734.176880,49.853970 
	C729.068848,49.759586 724.776611,51.629978 721.561523,55.076290 
	C719.779968,54.105366 719.897766,53.037746 719.816772,52.068092 
	C719.175415,44.386574 719.156677,44.522778 711.836060,43.337612 
	C708.873413,42.857986 705.857422,41.407619 704.544189,38.659023 
	C703.045227,35.521576 700.628052,33.896023 697.855042,32.286674 
	C692.958923,29.445183 688.448975,26.297474 685.131042,21.361189 
	C681.910034,16.569012 678.010132,12.163046 672.261108,9.883383 
	C669.848816,8.926825 668.092834,6.825366 666.246826,4.497554 
	C669.754150,2.309862 672.592163,3.651749 675.075195,5.035037 
	C681.263428,8.482450 686.741150,13.009407 690.269348,19.167397 
	C692.742188,23.483313 696.162842,26.329935 700.312378,28.507010 
	C703.274475,30.061060 706.263000,31.503542 708.719604,33.825176 
	C711.214844,36.183353 714.178223,35.911438 717.192017,35.339542 
	C721.699219,34.484261 724.782043,35.796444 725.325500,40.790440 
	C725.596863,43.283981 726.831299,44.750229 729.314148,45.131119 
	C734.692688,37.030437 734.738342,36.772190 729.769592,29.419849 
	C728.278015,27.212805 727.997314,25.159933 729.684692,23.012045 
	C731.499634,20.701851 733.678284,20.363113 736.329163,21.610508 
	C740.134583,23.401176 743.542725,25.760147 746.745422,28.441822 
	C749.622070,30.850571 750.151428,33.274368 746.713501,35.700172 
	C743.040527,38.291710 744.034485,40.608372 747.280334,42.591919 
	C749.122253,43.717510 751.052673,44.731167 753.030457,45.595692 
	C760.786743,48.986069 761.446350,48.778294 766.588745,41.876892 
	C771.044800,35.896442 775.886353,36.298515 778.702148,43.742306 
	C782.146240,52.846893 785.012756,62.295372 782.526489,72.338158 
	C782.225647,73.553459 781.519165,74.852013 782.287354,76.255486 
	C784.742004,77.288559 785.779297,76.024933 786.722107,73.880356 
	C789.232910,68.169334 790.646484,62.296940 790.764587,56.019108 
	C790.823853,52.870243 790.267944,48.463451 794.407654,47.703430 
	C798.437500,46.963585 798.948792,51.447033 800.276917,54.074547 
	C804.338196,62.109367 801.353760,70.448448 800.750671,78.628738 
	C800.493103,82.122261 800.285217,85.597977 800.394287,89.078476 
	C800.489136,92.103958 801.612976,94.832054 804.943237,95.426140 
	C808.470093,96.055275 811.308533,95.242332 814.295349,92.399063 
	C821.155273,85.868828 821.104126,77.957085 820.939270,69.568855 
	C820.762878,60.593159 820.461853,51.593304 821.587524,42.623463 
	C822.167480,38.002331 824.351929,36.459724 828.876099,37.157715 
	C841.572327,39.116497 853.209229,43.313419 863.738037,50.960052 
	C868.797607,54.634605 874.805664,57.050003 880.502563,59.789528 
	C889.623108,64.175468 895.193970,71.940727 900.249573,80.175423 
	C904.761902,87.525169 909.227539,94.916885 913.352966,102.486664 
	C916.792603,108.798065 916.035156,115.672485 914.722351,122.404633 
	C913.986938,126.176132 914.692566,129.696228 915.865112,133.180115 
	C916.702515,135.668304 918.385071,137.631805 921.009094,138.214142 
	C923.648438,138.799896 926.056946,139.674530 928.354065,141.135925 
	C930.122375,142.260834 932.256042,142.178177 934.093201,141.132401 
	C936.072754,140.005508 935.694824,137.977631 935.399170,136.191238 
	C933.933472,127.336113 935.491577,118.246460 932.942627,109.407883 
	C932.060974,106.350922 933.083130,102.538712 937.437683,101.766006 
	C941.922546,100.970169 943.314148,104.022423 943.909973,107.562126 
	C944.293884,109.842987 944.345337,112.200745 944.336365,114.523232 
	C944.294434,125.385796 948.145142,135.309479 951.785095,145.258530 
	C953.146301,148.979279 955.732178,151.542099 959.864990,152.715881 
	C964.935181,154.155930 969.419739,157.058578 974.708008,158.356659 
	C978.709167,159.338776 982.355835,162.752609 981.974548,167.972153 
	C980.896179,182.735840 981.915344,197.616562 979.420349,212.303940 
	C978.739441,216.312088 977.657043,220.112305 975.130371,223.346970 
	C972.231445,227.058090 971.594360,230.766281 974.678528,234.705231 
	C975.597778,235.879364 976.772583,237.297089 975.900146,238.780960 
	C973.119690,243.509628 972.814331,248.884094 971.467407,253.996841 
	C970.355530,258.217041 967.205383,260.984619 963.424194,263.120483 
	C955.110168,267.816772 947.277527,272.916168 943.085876,282.218170 
	C941.551331,285.623535 938.393250,288.356079 934.967285,290.161865 
	C928.919556,293.349609 924.339600,298.173553 919.926331,303.153015 
	C915.559570,308.079926 915.834717,313.771088 918.112427,319.544830 
	C919.898804,324.073090 919.175537,325.939178 914.584167,327.410187 
	C910.790588,328.625580 906.952942,329.850830 903.040161,330.507629 
	C898.623901,331.248901 896.658081,333.815430 896.336060,337.907623 
	C895.414612,349.619415 896.191284,361.195923 899.873657,372.422180 
	C901.183716,376.416168 901.492432,380.561920 902.397095,384.588318 
	C904.871338,395.600403 903.736084,407.022919 906.566345,417.968628 
	C907.463928,421.439911 902.550476,429.595001 897.875122,432.188232 
	C892.822021,434.991058 888.878235,439.004608 884.927063,443.069672 
	C882.584045,445.480194 882.205994,447.684631 884.749634,450.345917 
	C886.803345,452.494659 888.493469,455.014709 890.172546,457.487061 
	C890.919067,458.586304 891.274658,460.005798 890.038208,461.144348 
	C888.889709,462.201782 887.925842,461.450897 886.954712,460.732697 
	C883.083313,457.869537 882.671936,459.967377 881.889954,463.595337 
	C879.230713,475.933136 881.329590,488.518280 879.438965,500.882721 
	C878.101135,509.632050 884.182800,515.471497 888.742554,521.681274 
	C891.878540,525.952026 895.530457,529.936462 899.420349,533.543518 
	C910.797852,544.093628 911.453796,557.712219 909.791504,571.475525 
	C908.719666,580.350464 901.430298,585.197449 893.622864,588.276123 
	C887.698364,590.612305 882.023926,593.250488 876.667542,596.673584 
	C873.535217,598.675354 872.324463,601.365723 872.267395,605.035767 
	C872.070801,617.686523 872.172913,630.373169 871.186829,642.969910 
	C870.475952,652.051086 865.271606,659.508972 858.673218,665.546692 
	C851.695557,671.931458 849.915894,676.278992 854.690308,684.230591 
	C859.020203,691.441895 857.926331,697.252197 853.160156,703.316528 
	C849.767090,707.633911 846.535889,712.079285 843.271667,716.496582 
	C842.288818,717.826660 840.817078,718.064331 839.416870,718.588013 
	C829.140076,722.431580 820.408142,732.587097 821.537292,741.532776 
	C822.382874,748.231384 822.120972,753.457703 817.989258,759.262451 
	C815.491821,762.771179 814.499390,767.944641 813.994568,772.918701 
	C813.380188,778.972412 808.178345,783.189331 804.664673,787.934875 
	C801.822266,791.773926 797.915039,794.821411 794.506653,798.246399 
	C793.283569,799.475403 791.937988,800.343689 790.131287,800.312622 
	C776.156799,800.072144 762.162170,800.094543 748.395630,797.133667 
	C744.995789,796.402405 742.062073,794.041992 738.384766,794.266479 
	C735.428955,794.446960 733.167175,794.502075 734.712463,798.932190 
	C735.861328,802.225891 737.217102,804.888611 739.818359,807.161133 
	C746.218872,812.753052 749.352905,820.713989 754.192444,827.445496 
	C754.654175,828.087891 754.783936,829.275269 755.345947,829.493530 
	C764.890259,833.200195 770.008667,842.331238 778.079285,847.879883 
	C798.474548,861.902100 820.231812,873.246338 843.042603,882.806763 
	C856.847229,888.592651 870.199524,895.453979 883.793823,901.748596 
	C886.345886,902.930298 889.041504,903.851074 891.743225,904.646240 
	C894.227478,905.377502 896.498291,906.430420 897.970032,908.545166 
	C901.475159,913.581726 906.682495,916.322815 912.013306,918.579346 
	C927.067932,924.951782 942.054443,931.363342 955.299561,941.206360 
	C957.393066,942.762085 960.016479,943.647705 962.465881,944.673584 
	C969.625610,947.672241 976.193115,951.414978 980.825500,957.941956 
	C982.469971,960.259033 984.773743,961.957092 987.112854,963.595337 
	C991.476196,966.651306 995.770020,969.808044 1000.052795,972.976990 
	C1006.496338,977.744751 1009.809021,984.183716 1010.067444,992.588745 
	C1007.958313,993.000000 1005.916687,993.000000 1003.437500,993.000000
	M43.466118,993.000000 
	C50.880062,987.672729 59.730545,984.189941 68.121147,979.836304 
	C84.533226,971.320740 101.113670,963.128052 117.486862,954.539490 
	C135.403458,945.141357 151.205475,932.501709 167.591049,920.818787 
	C197.022400,899.834045 226.326569,878.750427 258.032471,861.175171 
	C270.390991,854.324524 281.005493,844.684509 292.186890,836.029297 
	C322.957977,812.210388 349.801941,784.115051 377.586212,757.044678 
	C382.359650,752.393982 386.351440,747.539246 387.134277,740.616089 
	C387.407837,738.196777 388.756775,736.132935 391.225677,735.365662 
	C402.402405,731.892334 405.366089,722.125366 407.495728,712.618530 
	C409.894684,701.909302 413.475128,692.530396 420.445312,683.572449 
	C425.791443,676.701599 428.971924,669.799133 439.253998,669.107117 
	C443.757904,668.804016 447.037354,663.721008 446.795868,657.660156 
	C446.420227,648.232239 445.720337,639.443848 439.161987,631.511536 
	C435.294586,626.833923 434.713135,619.803955 431.615570,614.236267 
	C428.794830,609.166016 426.644318,603.841919 420.587158,601.296997 
	C417.602417,600.043030 415.631897,596.811035 414.095673,593.864685 
	C408.949890,583.995544 401.830902,575.258240 397.632050,564.844604 
	C396.062286,560.951416 393.223389,557.797363 390.765076,554.439880 
	C386.749054,548.954712 383.672272,543.009521 380.936493,536.762024 
	C377.165405,528.150330 371.005219,521.078552 364.448700,514.404297 
	C363.281006,513.215637 362.108612,512.030701 360.911041,510.872314 
	C349.690979,500.019379 344.657745,486.577209 344.044220,471.182831 
	C343.586792,459.704620 341.830750,448.585999 337.045593,437.855652 
	C334.130280,431.318298 332.628326,424.145020 332.160004,416.682098 
	C331.711029,409.527405 329.003754,402.454010 326.606750,395.723816 
	C323.487518,386.965851 323.646454,378.117218 322.888062,369.252380 
	C321.404938,351.916382 324.834106,334.726562 324.656311,317.419403 
	C324.525879,304.720154 321.112091,292.827179 315.703857,281.480347 
	C314.166504,278.254883 313.206055,275.733856 315.811096,272.403320 
	C318.537079,268.918213 318.736542,264.427460 318.844482,260.007324 
	C318.981018,254.417816 319.226929,248.981750 322.600464,243.837845 
	C325.798889,238.960968 326.534882,232.881317 326.624298,227.029694 
	C326.807312,215.053055 329.802917,204.770309 339.623840,196.577789 
	C350.431610,187.562103 355.480865,174.508469 359.599487,161.533112 
	C362.195648,153.354111 368.614075,150.140869 375.056183,148.135254 
	C387.483337,144.266357 397.130737,136.503738 407.528168,129.361252 
	C418.630554,121.734474 427.155823,111.034065 439.275879,104.647102 
	C446.650116,100.761078 451.679138,94.569237 451.916840,85.140945 
	C452.245056,72.122795 460.647461,70.979790 472.995026,74.454437 
	C483.275879,77.347511 493.366943,79.602966 504.048798,79.882874 
	C511.270081,80.072090 517.305481,78.083992 523.072693,73.854866 
	C527.563110,70.561951 530.127747,66.682907 530.686523,61.121853 
	C531.442871,53.594765 531.903381,53.290310 539.414673,52.258877 
	C541.553345,51.965195 543.739990,51.688450 545.881165,51.811836 
	C550.900452,52.101089 555.423584,51.029213 559.519653,48.005466 
	C563.501770,45.065807 567.333130,45.345726 571.422668,48.317944 
	C578.918762,53.765877 581.568237,53.297092 587.517090,46.468765 
	C589.735168,43.922768 592.044739,42.873272 594.225342,46.588116 
	C594.558655,47.155876 594.915344,47.784828 595.426575,48.160370 
	C597.808350,49.909977 600.464905,52.664665 603.345642,50.985832 
	C606.275024,49.278633 604.020996,45.955494 603.236572,43.719742 
	C601.478210,38.707928 598.921387,33.982410 596.935425,29.041510 
	C596.016907,26.756237 595.374451,24.269144 595.132996,21.821632 
	C594.640564,16.830746 597.319275,14.639976 601.977051,16.341394 
	C606.169739,17.872942 609.604187,15.892250 612.906738,14.257706 
	C618.031006,11.721539 621.726929,13.124330 625.256836,17.032652 
	C632.694641,25.267643 637.806396,34.982601 643.086731,44.596985 
	C645.009888,48.098553 646.878296,51.630898 648.724365,55.173840 
	C650.060730,57.738419 651.798889,58.060379 653.869019,56.117153 
	C656.053711,54.066387 658.135864,51.906696 660.272278,49.804199 
	C663.011414,47.108616 665.829163,44.553860 669.504517,43.108753 
	C677.022034,40.152935 678.214661,38.091530 677.570312,29.909706 
	C677.462524,28.540432 676.390442,27.003429 678.664551,25.240343 
	C681.146301,29.925573 684.186279,34.207561 683.512390,39.712456 
	C682.934204,44.436047 678.853516,45.739529 675.105225,47.292419 
	C668.921265,49.854370 663.551636,53.798405 658.991455,58.557980 
	C652.796265,65.024109 646.391541,64.108086 642.911133,55.713608 
	C640.557007,50.035637 636.591309,45.177322 634.650085,39.283772 
	C634.357605,38.395653 633.571228,37.119709 632.856812,37.005966 
	C625.502380,35.835068 624.602478,29.220716 621.890991,24.193253 
	C618.982971,18.801567 618.300903,18.352737 612.599304,21.117321 
	C608.515503,23.097490 604.179443,22.211636 599.297485,22.528862 
	C601.098694,26.913322 602.692932,30.607763 605.491760,33.703426 
	C606.826233,35.179451 608.188293,36.650501 609.349915,38.259487 
	C614.685974,45.650478 614.070435,50.474731 607.086548,56.551723 
	C605.016052,58.353378 602.513184,58.994144 600.123596,57.724407 
	C596.708069,55.909504 593.689331,56.829414 590.137085,57.434479 
	C583.338745,58.592445 576.207336,59.451214 569.614624,55.935707 
	C566.116577,54.070415 562.907532,54.017742 559.231628,55.969856 
	C554.151855,58.667515 548.471802,59.435883 542.722473,59.008423 
	C538.761230,58.713898 537.021851,59.974152 537.224976,64.335327 
	C537.675171,73.999519 537.092773,74.514626 528.011902,77.386658 
	C524.812134,78.398659 521.718323,79.710045 519.744690,82.642471 
	C517.425415,86.088501 513.663391,86.573418 510.117523,87.207535 
	C506.850494,87.791779 503.752869,90.754715 500.039093,87.115608 
	C497.737640,84.860382 494.065704,88.138100 490.883087,86.800423 
	C481.983002,83.059616 472.712494,80.857224 462.988342,80.916496 
	C462.177185,80.921440 461.365967,80.917145 460.545471,80.917145 
	C461.178009,87.688530 457.482483,92.851692 454.343567,97.962975 
	C450.385162,104.408562 444.698456,109.303795 438.170959,113.289680 
	C432.795959,116.571823 427.392151,119.971535 424.511566,126.060318 
	C423.717834,127.738014 422.090637,128.985306 420.287476,129.394241 
	C412.266327,131.213333 406.517426,136.929550 400.587677,141.767288 
	C393.329987,147.688385 385.545929,152.019348 376.216827,155.114410 
	C379.433716,157.544647 377.647430,159.399704 375.479462,160.395767 
	C366.221130,164.649460 362.935425,172.856598 359.006134,181.572174 
	C354.869965,190.746552 349.883270,200.111038 341.131836,206.377075 
	C338.153870,208.509308 336.415253,211.558273 336.377625,215.314850 
	C336.347229,218.353836 335.927338,221.208786 334.577972,224.017624 
	C333.340302,226.594009 334.226257,229.302460 335.378448,231.734833 
	C336.680939,234.484543 336.459167,236.921738 334.395477,239.095657 
	C327.309448,246.560120 324.345184,255.260574 326.207794,265.504547 
	C326.410522,266.619354 326.567078,268.092041 326.025696,268.938873 
	C320.300507,277.894104 325.207581,285.795563 328.315308,293.884918 
	C328.434235,294.194458 328.705231,294.468933 328.747681,294.781189 
	C330.258301,305.888214 335.977051,316.884491 332.874329,328.002899 
	C330.663361,335.925690 330.266907,343.608734 330.034424,351.529114 
	C329.809937,359.176666 329.893127,366.835388 329.735931,374.480225 
	C329.627258,379.765656 331.833282,385.188538 333.478058,390.400726 
	C336.548218,400.129852 337.708832,410.188599 339.493927,420.160797 
	C340.527191,425.932953 343.132294,431.454132 345.299591,436.982605 
	C346.829468,440.884979 347.321838,445.035431 348.511139,448.942200 
	C351.748901,459.577942 351.483887,470.554260 353.036285,481.317383 
	C354.200439,489.388947 358.695068,497.013733 364.719147,503.016083 
	C373.051971,511.318848 379.784271,520.485718 384.654449,531.346802 
	C388.651245,540.260071 394.455536,548.325256 401.675140,555.164978 
	C402.264008,555.722839 402.902802,556.417603 403.108521,557.161987 
	C406.371368,568.969299 414.622009,578.111694 419.951477,588.808838 
	C421.083313,591.080688 422.452850,593.256104 424.737335,594.440979 
	C431.011810,597.695068 434.849762,603.190186 437.662109,609.246521 
	C440.430145,615.207336 444.587250,620.367188 446.169098,627.123352 
	C447.282196,631.877319 451.145477,636.008057 453.904938,640.337891 
	C454.435059,641.169678 455.488647,641.847595 455.045410,642.880981 
	C452.482483,648.856812 454.883545,655.006775 454.316986,661.062134 
	C453.671631,667.959534 450.284149,671.852173 443.608856,673.492615 
	C439.751038,674.440735 435.990967,675.801575 432.045197,676.480530 
	C431.308960,676.607239 430.436066,677.180176 430.031342,677.808228 
	C423.042877,688.651978 415.265533,698.912537 414.009277,712.673889 
	C413.105652,722.572632 407.060944,730.902954 402.150665,739.397400 
	C400.874451,741.605286 397.623260,741.366150 396.253723,743.649170 
	C397.448456,744.085205 398.841095,742.073547 399.820343,743.838318 
	C400.679016,745.385742 399.912384,746.865967 398.818115,747.908997 
	C396.773254,749.857849 394.770569,752.033508 392.339142,753.362427 
	C382.449524,758.767700 376.358246,768.208252 368.408081,775.649353 
	C365.621826,778.257202 362.568054,780.526733 359.827271,783.188843 
	C341.927917,800.574341 324.160431,818.127869 305.010834,834.148193 
	C279.521759,855.472229 251.452576,872.983032 222.930740,889.962158 
	C206.535507,899.722290 191.587479,911.907288 175.944839,922.939575 
	C160.838364,933.593628 146.092178,944.835876 130.427933,954.601013 
	C113.056847,965.430115 94.369041,974.003418 76.087250,983.241882 
	C70.158257,986.238037 63.929260,988.674072 58.208069,992.734985 
	C53.310745,993.000000 48.621487,993.000000 43.466118,993.000000 
z"/>
</svg>