<?xml version="1.0" standalone="no"?>
<!DOCTYPE svg PUBLIC "-//W3C//DTD SVG 20010904//EN"
 "http://www.w3.org/TR/2001/REC-SVG-20010904/DTD/svg10.dtd">
<svg version="1.0" xmlns="http://www.w3.org/2000/svg"
 width="650.000000pt" height="796.000000pt" viewBox="0 0 650.000000 796.000000"
 preserveAspectRatio="xMidYMid meet">

<g transform="translate(0.000000,796.000000) scale(0.100000,-0.100000)"
fill="#000000" stroke="none">
<path d="M2346 7938 c-3 -13 -6 -42 -6 -65 l0 -43 -53 0 c-60 0 -179 -31 -240
-62 -55 -27 -115 -30 -123 -5 -9 30 63 84 149 111 21 7 23 44 2 53 -25 9 -101
-17 -145 -49 -54 -40 -91 -106 -99 -175 -5 -50 -9 -58 -38 -73 -63 -34 -65
-37 -61 -119 l3 -75 -47 -26 c-44 -23 -106 -89 -109 -114 -7 -56 -7 -92 1
-101 24 -29 -47 -62 -147 -70 -130 -10 -152 -15 -172 -41 -10 -13 -24 -24 -30
-24 -14 0 -31 -33 -31 -62 0 -13 -5 -29 -11 -35 -7 -7 -10 -36 -7 -77 3 -47 0
-67 -9 -70 -7 -3 -13 -21 -13 -40 0 -19 -5 -38 -10 -41 -5 -3 -10 -17 -10 -30
0 -13 -4 -27 -10 -30 -5 -3 -10 -17 -10 -30 0 -13 -4 -26 -9 -29 -15 -10 -19
-86 -10 -189 8 -94 15 -119 41 -170 6 -12 5 -31 -3 -54 -6 -19 -9 -50 -6 -68
3 -18 1 -37 -5 -43 -16 -16 -5 -171 15 -212 10 -18 20 -51 23 -72 4 -21 13
-43 20 -49 8 -6 14 -18 14 -26 0 -8 20 -34 45 -59 25 -24 45 -47 45 -52 0 -5
-9 -17 -20 -27 -15 -13 -20 -31 -20 -66 0 -26 5 -51 10 -54 6 -3 10 -14 10
-24 0 -10 11 -30 24 -44 14 -15 26 -37 28 -49 2 -13 12 -27 24 -32 17 -8 20
-18 20 -56 -1 -26 4 -58 11 -71 6 -13 20 -45 31 -70 11 -25 27 -51 36 -58 9
-8 16 -19 16 -26 0 -8 10 -22 23 -32 13 -10 22 -23 20 -30 -2 -6 10 -87 27
-180 24 -129 36 -172 51 -185 12 -10 15 -19 9 -23 -15 -9 -12 -55 7 -132 12
-47 17 -110 18 -206 l0 -139 34 -30 c30 -26 39 -29 86 -26 l52 3 49 -165 c26
-91 56 -185 66 -209 22 -52 18 -71 -16 -71 -45 0 -180 -49 -243 -87 -67 -41
-243 -206 -243 -228 0 -8 -8 -21 -17 -31 -26 -26 -50 -108 -67 -232 -21 -147
-24 -390 -6 -459 l13 -52 -54 -53 c-92 -92 -113 -130 -117 -214 l-4 -72 -49
-21 c-27 -12 -49 -27 -49 -34 0 -7 -28 -23 -63 -36 -75 -28 -179 -92 -267
-164 -65 -53 -190 -193 -190 -212 0 -6 -24 -22 -53 -37 -51 -25 -200 -136
-263 -197 -18 -16 -49 -40 -70 -54 -22 -13 -63 -49 -91 -80 -44 -46 -53 -62
-53 -91 0 -20 4 -36 9 -36 5 0 33 26 61 58 29 31 82 78 118 105 36 26 70 53
76 60 34 41 211 169 267 195 93 43 246 99 444 162 l170 55 71 70 72 70 35 -30
c20 -17 61 -44 92 -58 l55 -28 1 -187 c0 -247 20 -339 63 -303 14 12 30 196
31 364 0 98 0 98 24 92 13 -3 36 -9 52 -12 21 -4 28 -10 25 -22 -14 -48 -46
-184 -55 -236 -15 -82 -49 -412 -53 -510 l-3 -80 30 0 c29 0 30 1 27 44 -7
108 43 493 95 728 3 13 13 23 22 23 9 0 22 5 29 12 9 9 16 8 30 -5 22 -20 90
-23 98 -4 3 10 24 10 107 0 56 -6 168 -15 248 -19 122 -6 151 -4 177 8 30 16
31 16 34 -11 2 -20 8 -26 28 -26 22 0 26 5 32 48 3 27 14 60 23 74 14 21 22
24 47 19 16 -3 42 -15 58 -26 15 -11 32 -20 37 -20 4 0 14 -15 21 -32 8 -18
18 -43 23 -56 6 -15 16 -22 27 -20 14 3 17 14 16 68 -1 36 1 50 3 33 3 -20 12
-37 25 -44 39 -21 120 -103 157 -159 35 -52 69 -143 91 -240 12 -57 12 -63 0
-55 -5 3 -10 13 -10 22 0 8 -8 27 -19 41 -10 15 -22 43 -26 62 -9 43 -22 60
-47 60 -24 0 -35 -27 -20 -51 7 -10 12 -24 12 -30 0 -10 25 -71 51 -121 5 -10
9 -25 9 -33 0 -9 6 -26 14 -38 13 -20 31 -93 28 -109 -1 -3 7 -46 18 -95 10
-48 21 -111 24 -138 3 -28 10 -63 15 -78 14 -36 61 -349 68 -450 3 -42 10 -80
14 -83 5 -3 9 -15 9 -27 0 -41 37 -142 53 -145 8 -2 18 1 21 7 4 5 2 72 -3
148 -11 176 4 780 23 935 18 139 53 283 96 393 40 101 52 230 26 269 -23 36
-76 44 -120 18 -19 -11 -36 -18 -39 -16 -13 13 18 91 51 131 l37 45 57 -6 c89
-9 129 -30 192 -101 43 -49 65 -66 92 -71 53 -10 74 14 73 86 -1 31 9 100 21
153 17 74 26 96 41 100 10 3 19 12 19 21 0 9 6 32 14 51 14 32 16 33 40 22 14
-7 26 -17 26 -23 0 -6 15 -28 34 -49 41 -46 60 -44 135 16 l51 41 36 -36 c31
-31 35 -41 31 -69 -3 -17 4 -84 15 -147 13 -77 18 -138 15 -185 -5 -67 7 -159
23 -180 4 -5 11 -29 15 -52 4 -24 11 -45 16 -49 5 -3 9 -14 9 -24 0 -11 9 -34
20 -52 11 -18 20 -42 20 -54 0 -11 4 -24 8 -30 5 -5 17 -40 27 -79 10 -38 22
-77 26 -85 21 -43 49 -111 49 -121 0 -7 11 -35 24 -63 13 -28 43 -107 66 -176
23 -69 46 -129 50 -135 5 -5 16 -37 25 -70 20 -71 56 -176 65 -190 3 -5 12
-30 20 -55 7 -25 22 -65 32 -88 11 -24 21 -64 23 -88 4 -49 11 -64 29 -64 7 0
21 -25 32 -56 19 -58 37 -75 56 -56 8 8 3 36 -17 99 -15 48 -32 92 -36 97 -5
6 -9 17 -9 26 0 9 -9 34 -19 56 -21 43 -69 177 -107 299 -14 44 -31 94 -39
110 -7 17 -21 53 -30 80 -10 28 -21 59 -25 70 -5 11 -16 43 -25 70 -18 51 -28
78 -45 118 -27 64 -73 195 -120 344 -12 40 -29 78 -36 84 -8 6 -14 21 -14 33
0 12 -4 26 -9 31 -22 24 -33 207 -13 227 14 14 16 140 3 153 -7 8 -51 190 -51
212 0 1 14 3 31 3 25 0 32 6 45 35 7 19 14 49 15 67 0 30 1 31 10 10 7 -19 15
-23 46 -20 31 2 39 7 41 26 2 12 7 22 11 22 14 0 313 -100 339 -114 37 -19
163 -46 247 -53 39 -3 75 -9 80 -13 6 -5 46 -4 90 0 154 17 132 30 241 -137
54 -82 127 -195 164 -253 36 -58 111 -164 166 -237 184 -245 424 -611 527
-806 24 -45 62 -112 85 -149 23 -37 48 -84 56 -103 8 -19 22 -35 30 -35 30 0
18 66 -29 160 -53 105 -200 359 -256 442 -22 32 -39 60 -39 63 0 2 -44 69 -98
147 -109 159 -120 176 -210 297 -35 47 -133 190 -217 316 -84 127 -167 248
-184 270 l-30 40 47 15 c34 11 47 20 47 34 0 25 -27 41 -51 31 -50 -23 -150
-33 -304 -31 l-165 2 -120 42 c-95 33 -110 40 -70 35 80 -11 97 -9 109 10 9
15 6 22 -16 42 -20 17 -44 24 -100 30 -40 3 -118 18 -173 32 -143 36 -187 31
-295 -36 -47 -29 -94 -61 -106 -72 -20 -19 -21 -19 -60 11 -21 16 -42 30 -46
30 -4 0 -29 -16 -54 -35 -26 -20 -48 -34 -50 -32 -2 2 1 19 6 38 24 81 -1 129
-65 129 -74 0 -125 -38 -162 -121 -9 -21 -20 -39 -25 -39 -22 0 -88 -202 -88
-268 l0 -24 -32 22 c-74 49 -160 81 -235 88 l-76 7 67 85 c88 112 278 318 294
319 7 1 15 8 18 16 4 8 12 15 19 15 6 0 20 10 31 21 10 12 35 32 54 44 42 27
150 121 167 145 8 11 15 76 19 171 4 103 11 163 20 181 8 16 16 28 18 28 2 0
16 -20 30 -44 32 -54 92 -106 124 -106 45 0 34 27 -43 104 l-77 77 3 107 c4
103 3 107 -17 110 -16 2 -29 -9 -53 -44 -17 -26 -31 -53 -31 -60 0 -6 -14 -17
-31 -24 -17 -7 -47 -29 -67 -47 -115 -109 -394 -238 -586 -272 -136 -25 -295
-4 -499 63 -167 55 -280 107 -401 186 -93 60 -126 69 -126 35 0 -39 242 -182
420 -248 291 -108 503 -131 705 -77 192 51 409 159 515 257 l57 53 7 -55 c6
-54 -4 -181 -25 -302 -8 -42 -18 -68 -35 -84 -13 -12 -24 -29 -24 -37 0 -21
-92 -102 -116 -102 -12 0 -32 -10 -46 -22 -14 -13 -36 -30 -49 -38 -63 -39
-389 -401 -389 -431 0 -5 -5 -9 -11 -9 -24 0 -438 226 -559 305 -217 142 -270
203 -288 335 -15 103 -62 194 -125 240 -33 25 -47 42 -47 59 0 33 -83 205
-113 235 -19 19 -21 26 -11 30 16 6 19 42 3 51 -6 4 -35 40 -65 81 -52 70 -76
86 -100 66 -5 -5 -62 -22 -127 -37 -186 -45 -257 -91 -217 -140 9 -11 1 -16
-44 -25 -41 -8 -62 -19 -81 -41 -46 -55 -31 -116 58 -234 61 -82 117 -186 117
-218 0 -16 -5 -14 -36 9 -63 48 -190 41 -171 -9 5 -12 18 -16 55 -14 70 3 99
-28 128 -135 12 -47 12 -47 -15 -50 -18 -2 -26 -9 -26 -22 0 -14 17 -25 68
-45 47 -18 72 -34 80 -51 18 -37 139 -124 250 -180 113 -57 162 -70 184 -47
14 13 19 13 49 -5 57 -34 262 -97 399 -124 229 -44 278 -51 475 -71 l75 -7
-85 -7 c-87 -6 -196 -44 -260 -89 -27 -19 -42 -20 -252 -18 -123 1 -309 1
-413 -1 l-191 -3 -106 54 c-113 58 -256 155 -294 201 -13 16 -24 40 -24 53 0
17 -10 31 -33 44 -18 11 -46 40 -61 65 -28 44 -48 55 -61 35 -10 -17 44 -222
76 -288 36 -73 93 -124 204 -179 171 -87 278 -105 475 -80 69 9 168 19 220 23
l95 6 -35 -27 c-83 -63 -100 -65 -365 -36 -248 28 -416 58 -534 97 -129 43
-241 100 -241 123 0 10 -22 36 -50 58 -27 22 -47 43 -44 46 3 3 0 21 -7 40 -7
19 -9 49 -5 69 13 72 130 211 191 226 l30 8 0 90 0 89 -32 -1 c-18 -1 -31 1
-28 5 2 5 1 31 -4 60 -4 28 -5 54 -1 56 4 2 8 46 8 97 2 118 16 233 34 278 16
43 48 92 65 103 7 4 13 14 13 21 0 18 114 126 181 170 71 47 177 85 257 93 68
6 85 21 64 54 -7 10 -12 26 -12 34 0 9 -18 71 -39 138 -22 67 -49 156 -61 197
-42 147 -45 155 -62 158 -9 2 -30 -6 -46 -18 -22 -17 -33 -19 -54 -11 -40 15
-52 58 -38 139 10 51 10 81 1 121 -16 74 -15 76 20 46 37 -31 73 -30 77 2 2
16 -5 26 -27 38 -65 33 -92 113 -79 230 11 103 14 114 32 90 31 -42 37 -14 41
198 2 114 7 212 11 218 9 15 24 -9 24 -39 0 -44 70 -238 103 -287 44 -64 132
-147 185 -174 78 -40 165 -54 307 -48 144 6 216 22 314 70 95 47 164 114 208
205 l38 76 0 130 c0 72 -4 150 -9 173 l-9 43 46 20 c25 11 79 23 121 26 l75 7
31 -33 c22 -23 28 -36 20 -44 -16 -16 -12 -68 11 -151 29 -106 52 -154 112
-234 120 -159 244 -221 442 -220 191 0 325 48 419 150 98 105 137 214 165 459
5 47 9 55 31 61 35 10 90 11 91 2 6 -67 3 -182 -5 -195 -8 -13 -7 -21 2 -30
17 -17 15 -25 -9 -31 -17 -5 -20 -11 -14 -35 3 -17 2 -39 -3 -49 -27 -51 -34
-72 -28 -82 4 -6 3 -11 -2 -11 -4 0 -19 -14 -31 -31 -22 -29 -24 -44 -28 -178
-6 -212 -22 -358 -73 -649 -18 -100 -30 -189 -26 -197 4 -11 20 -15 54 -15 27
0 103 -9 168 -20 112 -19 147 -27 317 -79 37 -12 75 -21 85 -21 10 0 22 -4 28
-9 13 -12 130 -51 153 -51 10 0 21 -7 25 -15 3 -8 16 -15 28 -15 54 0 190 -93
234 -160 23 -34 49 -147 38 -159 -3 -3 -21 11 -42 31 -46 43 -137 78 -205 78
-49 1 -54 3 -80 41 -42 61 -79 72 -217 67 -125 -5 -175 -20 -223 -66 -41 -39
-90 -120 -83 -137 7 -19 50 -19 66 0 7 8 31 20 53 26 53 14 87 37 87 59 0 15
11 20 55 25 65 9 113 1 175 -27 l45 -20 -39 -12 c-58 -17 -67 -38 -32 -75 16
-17 45 -36 64 -42 47 -16 86 12 90 64 3 37 4 37 47 37 89 0 194 -63 195 -116
0 -12 7 -28 16 -35 12 -10 14 -23 10 -53 -4 -22 -11 -45 -15 -51 -5 -5 -11
-22 -15 -37 -12 -52 -49 -95 -91 -108 -22 -7 -58 -18 -80 -26 -23 -8 -55 -14
-72 -14 -45 0 -132 24 -178 49 -48 26 -57 26 -78 3 -35 -38 -8 -91 32 -65 21
14 54 -5 128 -74 31 -29 61 -53 67 -54 9 0 124 -129 203 -229 l23 -28 -40 5
c-104 14 -87 -88 24 -147 30 -16 53 -7 71 26 6 11 21 19 35 19 47 0 34 32 -55
140 -75 92 -83 105 -63 105 17 0 83 -60 243 -220 121 -121 216 -220 210 -220
-5 0 -24 14 -41 31 -35 34 -64 34 -64 0 0 -21 333 -331 356 -331 7 0 17 6 21
13 4 6 17 12 28 12 39 0 26 35 -47 122 -91 111 -267 287 -473 475 -204 187
-213 194 -234 181 -23 -15 -80 4 -116 38 -17 16 -35 29 -40 29 -6 0 -18 12
-28 25 -18 24 -17 25 3 25 12 0 34 7 51 15 16 9 49 19 74 24 38 7 53 4 102
-19 32 -15 83 -36 113 -45 30 -10 77 -29 103 -42 64 -30 77 -29 150 11 106 58
185 79 285 74 102 -5 171 -33 249 -100 26 -22 61 -47 78 -54 16 -7 67 -38 113
-68 46 -31 85 -56 88 -56 2 0 4 16 4 35 0 29 -6 40 -42 65 -22 16 -47 30 -53
30 -7 0 -18 6 -24 14 -7 8 -31 24 -54 36 -23 12 -55 34 -72 50 -29 27 -56 44
-139 90 -46 25 -130 38 -140 21 -4 -6 -33 -11 -66 -11 -78 0 -155 -21 -240
-66 l-69 -36 -43 20 c-24 11 -54 23 -68 27 -47 12 -150 58 -150 66 0 3 13 26
30 50 16 24 30 51 30 59 0 9 4 20 9 25 4 6 16 49 26 97 21 100 17 241 -9 302
-48 115 -170 197 -396 267 -41 12 -79 26 -84 31 -6 4 -21 8 -33 8 -13 0 -36 6
-51 14 -15 7 -62 21 -105 31 -43 10 -80 22 -83 27 -3 4 -20 8 -38 8 -17 0 -36
4 -42 9 -5 6 -67 15 -139 22 -71 7 -131 13 -133 15 -2 1 11 82 29 180 17 99
33 193 34 209 2 17 8 75 14 130 5 55 13 168 17 250 3 83 10 158 15 167 5 9 21
23 37 30 21 10 29 24 37 60 5 25 13 50 18 54 4 4 7 24 7 44 0 20 5 41 10 46
13 13 33 287 24 328 -5 23 0 33 25 57 31 28 42 71 21 84 -5 3 -10 26 -10 51 0
24 -5 53 -12 64 -9 14 -9 24 -1 42 7 13 15 42 18 65 4 23 12 44 19 46 17 7 30
195 15 214 -7 8 -8 13 -1 13 5 0 17 12 27 26 13 21 15 31 6 48 -14 27 -31 117
-31 165 0 37 -20 61 -83 97 -17 10 -17 11 3 36 11 14 20 32 20 39 0 8 6 7 18
-4 42 -39 81 -4 43 37 -15 15 -19 26 -12 31 19 11 12 53 -15 84 -14 17 -31 31
-37 31 -7 0 -20 11 -29 25 -14 19 -16 29 -8 50 6 14 10 45 10 67 l0 41 24 -23
c26 -23 56 -22 56 3 0 21 -44 57 -82 68 -39 10 -48 27 -48 92 0 76 -63 124
-193 148 -75 14 -99 24 -115 50 -9 14 -9 25 -2 39 15 28 11 99 -8 149 -13 34
-28 51 -62 71 -94 54 -175 74 -186 45 -4 -8 -18 -15 -33 -15 -34 0 -54 33 -49
80 l3 33 32 -33 c35 -35 63 -35 63 1 0 11 -16 40 -35 63 -19 24 -35 48 -35 55
0 6 -11 17 -25 23 -21 10 -30 8 -54 -10 -25 -18 -33 -19 -70 -10 -28 7 -41 16
-41 28 0 23 -26 44 -45 36 -8 -3 -15 -14 -15 -25 0 -11 -8 -22 -17 -24 -81
-23 -125 -29 -156 -23 -37 7 -67 39 -47 51 17 11 11 43 -12 59 -32 23 -120 21
-141 -2 -10 -10 -17 -26 -17 -35 0 -26 -35 -20 -48 8 -10 22 -18 25 -60 25
l-49 0 1 58 c1 51 -1 57 -20 60 -28 4 -51 -24 -38 -46 16 -29 5 -79 -19 -86
-11 -3 -26 -1 -33 5 -6 5 -22 8 -34 7 -19 -2 -25 3 -30 27 -9 41 -26 70 -67
116 -30 33 -42 39 -74 39 -48 0 -49 -11 -3 -46 29 -22 74 -88 74 -108 0 -10
-39 7 -44 20 -3 8 -12 14 -20 14 -7 0 -27 7 -42 15 -39 20 -128 20 -144 0 -9
-11 -22 -14 -41 -10 -17 4 -40 0 -58 -9 -19 -10 -32 -12 -36 -6 -3 6 -18 10
-33 10 -23 0 -24 2 -10 13 13 9 15 23 11 60 -5 43 -8 47 -33 47 -20 0 -29 -6
-34 -22z m389 -139 c5 -5 17 -9 26 -9 9 0 19 -7 23 -15 3 -8 1 -15 -5 -15 -13
0 -109 49 -109 55 0 8 53 -6 65 -16z m-181 -25 c7 -8 31 -17 56 -19 25 -1 59
-10 75 -19 17 -8 58 -17 90 -18 35 -2 64 -9 70 -16 6 -7 30 -15 53 -17 24 -1
46 -5 49 -9 20 -20 136 12 141 38 4 21 52 22 52 1 0 -24 45 -48 78 -40 22 4
31 2 35 -9 8 -21 36 -20 59 1 17 15 20 15 41 -5 31 -29 101 -43 252 -48 72 -3
132 -8 135 -12 3 -4 12 -25 19 -47 8 -22 29 -61 48 -86 l35 -47 85 4 c79 3 84
2 92 -19 5 -12 6 -28 3 -36 -3 -7 5 -21 18 -31 19 -14 20 -20 10 -36 -10 -16
-5 -30 32 -94 49 -82 72 -96 193 -119 85 -16 139 -41 153 -70 10 -21 9 -27 -3
-34 -16 -9 -20 -42 -6 -51 14 -9 23 -85 22 -179 -1 -67 2 -89 13 -93 8 -3 12
-13 8 -26 -3 -13 1 -26 11 -33 10 -7 15 -25 15 -46 -1 -50 4 -123 10 -133 3
-5 6 -25 8 -44 4 -42 20 -63 30 -38 6 16 8 16 25 0 25 -23 24 -37 -1 -22 -15
10 -22 10 -32 0 -19 -19 2 -67 29 -66 18 0 24 -8 33 -48 13 -65 13 -66 -12
-70 -17 -2 -25 -13 -31 -41 -11 -47 -4 -67 25 -67 18 0 20 -2 8 -10 -9 -6 -15
-28 -17 -60 -1 -32 -8 -59 -18 -70 -9 -10 -15 -24 -14 -32 2 -14 -6 -41 -22
-71 -6 -10 -7 -27 -4 -38 4 -11 1 -26 -5 -34 -12 -15 4 -129 22 -152 15 -19
-12 -26 -32 -8 -10 9 -52 22 -97 29 -50 7 -73 15 -64 20 9 6 12 23 9 57 -4 41
-2 48 15 53 16 4 19 10 13 38 -3 18 -15 45 -26 59 -19 27 -19 27 0 32 25 6 26
41 2 65 -9 9 -39 35 -65 56 -41 34 -52 38 -67 28 -16 -10 -23 -7 -45 20 -14
17 -39 57 -55 89 -24 47 -27 58 -15 63 21 8 19 30 -5 51 -11 10 -20 26 -20 35
0 25 -27 46 -119 89 -24 12 -59 34 -77 51 -19 16 -39 30 -45 30 -5 0 -21 12
-34 26 l-24 25 -16 -25 c-10 -14 -26 -26 -37 -26 -17 0 -18 3 -8 15 20 24 5
42 -42 48 -23 4 -55 9 -70 13 -40 9 -50 -22 -17 -49 l24 -20 -30 7 c-44 11
-102 52 -119 85 -11 20 -25 31 -51 35 -19 4 -39 4 -44 1 -6 -3 -12 -1 -16 5
-8 13 -52 13 -60 1 -3 -6 -28 -7 -55 -4 -42 5 -51 3 -56 -12 -5 -11 -1 -22 10
-30 29 -22 -59 -49 -137 -43 -78 6 -93 1 -115 -42 -18 -36 -64 -66 -83 -54 -6
3 -17 22 -25 40 -16 38 -33 42 -69 18 -26 -17 -112 -22 -175 -9 -27 5 -48 1
-89 -18 -72 -34 -100 -23 -132 50 -10 24 -24 43 -31 43 -19 -1 -100 -39 -120
-57 -24 -22 -23 -54 2 -60 58 -15 -19 -73 -102 -77 -30 -1 -59 -6 -66 -10 -17
-10 -15 -35 3 -42 21 -9 19 -22 -11 -61 -19 -25 -29 -32 -37 -24 -20 20 -34
12 -65 -38 -25 -41 -38 -52 -74 -61 -24 -7 -49 -14 -55 -16 -18 -5 -16 -43 2
-50 24 -10 17 -23 -20 -38 -36 -16 -44 -33 -22 -55 10 -10 7 -16 -12 -30 -18
-14 -22 -24 -18 -43 4 -15 1 -32 -8 -44 -14 -18 -14 -18 -15 9 0 33 -27 48
-45 24 -7 -10 -17 -17 -23 -17 -16 0 -49 -60 -56 -102 -4 -20 -13 -39 -21 -42
-8 -3 -14 -17 -13 -33 1 -15 -5 -61 -11 -101 -7 -41 -11 -83 -8 -94 3 -10 1
-33 -5 -50 -8 -23 -8 -36 1 -49 6 -10 11 -27 11 -37 0 -9 8 -24 17 -33 10 -8
27 -50 37 -93 19 -73 19 -79 3 -88 -9 -5 -17 -18 -17 -28 0 -23 0 -23 -34 -10
-14 5 -26 16 -26 24 0 8 -11 23 -24 34 -18 14 -23 25 -19 42 4 14 1 27 -8 34
-25 19 -39 82 -27 123 9 33 7 38 -14 55 -12 9 -29 18 -35 18 -7 0 -13 10 -13
23 0 12 -9 30 -20 40 -11 9 -17 23 -14 32 4 8 2 21 -4 28 -16 20 -16 50 2 89
22 52 20 64 -14 90 -17 12 -30 30 -30 41 0 10 -9 21 -19 24 -12 3 -17 11 -14
19 6 16 -23 84 -36 84 -12 0 -35 117 -33 160 2 19 5 75 7 124 3 61 10 101 22
124 16 30 16 35 2 45 -8 7 -18 20 -22 30 -3 9 -16 17 -29 17 -21 0 -21 1 -3
14 13 9 16 18 10 32 -4 10 -7 25 -6 32 1 8 -3 19 -9 27 -7 8 -7 15 -1 19 5 3
9 38 8 77 0 57 3 73 16 81 9 5 17 15 17 22 0 8 7 16 15 20 8 3 15 16 15 30 0
19 4 23 20 19 23 -6 39 22 21 40 -6 6 -11 21 -11 34 0 13 -7 26 -15 29 -20 8
-19 48 1 65 8 7 13 21 11 30 -3 10 1 23 9 30 8 6 18 26 22 43 7 25 14 32 38
34 16 2 38 12 49 21 15 14 39 18 99 19 l79 1 49 50 c27 28 58 51 69 51 28 0
36 30 13 47 -10 8 -17 22 -16 31 2 9 -3 21 -12 28 -14 10 -14 13 4 29 16 14
34 18 74 16 56 -2 68 5 81 49 15 53 30 79 48 84 14 3 18 11 14 26 -3 13 2 27
15 39 11 11 19 27 17 37 -1 11 1 27 6 37 4 9 4 24 1 33 -3 9 3 29 15 45 16 23
25 28 45 23 17 -4 40 2 72 19 88 48 251 83 267 57 9 -14 139 -10 167 5 32 18
49 18 62 -1z m-751 -237 c-3 -5 -10 -4 -15 1 -6 6 -7 16 -3 22 6 9 9 9 16 -1
4 -7 5 -17 2 -22z m2321 -169 c3 -13 6 -39 6 -58 -1 -33 -2 -32 -20 20 -11 30
-19 56 -20 58 0 1 6 2 14 2 7 0 16 -10 20 -22z m446 -779 c0 -6 -4 -7 -10 -4
-5 3 -10 11 -10 16 0 6 5 7 10 4 6 -3 10 -11 10 -16z m-1070 -187 c61 -29 199
-44 224 -23 15 13 26 5 26 -20 0 -10 23 -42 51 -73 52 -57 152 -116 196 -116
15 0 23 -6 23 -17 0 -55 113 -223 160 -238 11 -4 20 -14 20 -24 0 -10 9 -44
21 -77 18 -50 50 -194 43 -194 -1 0 -44 20 -96 45 -75 36 -111 47 -183 56
-108 14 -284 6 -378 -16 -100 -23 -218 -87 -275 -150 l-47 -51 -41 21 c-34 18
-38 24 -26 32 25 15 7 45 -25 41 -21 -2 -28 -8 -27 -25 0 -18 -4 -21 -25 -17
-42 9 -250 -14 -284 -31 -26 -13 -33 -13 -46 -1 -28 25 -98 55 -188 82 -78 24
-105 27 -238 28 -127 1 -239 -8 -390 -30 -16 -2 -81 -33 -144 -68 -98 -56
-122 -65 -183 -71 -38 -4 -72 -4 -76 -1 -5 6 29 163 55 255 2 9 10 1 21 -20
17 -35 69 -68 108 -69 27 0 58 34 50 56 -5 12 -14 15 -35 11 -16 -3 -31 -4
-33 -1 -8 7 40 133 61 163 10 14 35 56 55 93 31 56 49 75 106 113 72 48 127
111 137 158 4 20 11 27 30 27 69 0 133 57 133 121 0 20 5 39 12 41 7 3 30 -15
53 -39 37 -38 47 -43 87 -43 27 0 63 9 91 23 32 17 50 21 62 14 9 -5 56 -7
103 -5 78 3 88 1 111 -19 48 -45 154 -18 180 45 11 27 14 28 74 24 78 -5 134
10 182 48 21 17 42 30 47 30 6 0 21 9 34 19 l25 20 52 -50 c29 -28 77 -63 107
-77z m460 -127 c31 -5 40 -11 40 -27 0 -15 -4 -18 -22 -13 -33 10 -110 61
-139 91 -20 22 -16 21 28 -9 29 -19 70 -38 93 -42z m0 -646 c35 -5 80 -18 100
-27 53 -25 120 -99 154 -172 28 -60 30 -74 30 -170 0 -115 -14 -173 -67 -273
-53 -101 -158 -165 -311 -189 -62 -9 -88 -8 -162 6 -175 34 -273 107 -333 249
-24 57 -34 72 -50 71 -16 0 -24 9 -31 35 -13 48 -13 48 10 54 14 4 21 17 26
57 4 32 14 59 25 69 11 8 19 21 19 28 0 19 107 129 143 146 95 44 130 58 164
65 28 6 38 13 38 27 0 11 5 23 10 27 15 11 161 9 235 -3z m303 -108 c-3 -14
-6 -27 -7 -28 -1 -1 -20 22 -43 52 l-42 53 50 -25 c44 -23 48 -28 42 -52z
m-1743 4 c11 -28 35 -33 48 -9 11 20 40 8 155 -69 66 -45 86 -63 82 -76 -3
-10 2 -37 10 -61 8 -23 15 -60 15 -82 0 -21 7 -53 16 -70 22 -42 14 -128 -17
-193 -13 -27 -49 -77 -81 -109 -55 -57 -59 -59 -72 -40 -14 19 -16 18 -82 -16
-37 -19 -69 -42 -71 -51 -3 -10 -12 -14 -27 -12 -13 3 -42 -5 -66 -17 -45 -23
-67 -23 -176 -2 -54 11 -122 41 -164 74 -15 12 -33 17 -46 14 -29 -8 -102 73
-146 162 -27 54 -29 66 -19 85 9 17 10 39 2 87 -36 219 11 310 187 368 78 25
84 25 93 9 18 -31 148 -19 156 15 5 16 16 18 99 18 92 0 95 -1 104 -25z m1834
-3 c9 -14 -6 -52 -20 -52 -20 0 -26 17 -12 40 14 21 24 25 32 12z m-1212 -46
c5 -23 3 -24 -89 -28 -74 -4 -103 -10 -143 -31 -46 -24 -50 -24 -50 -8 0 10
-7 24 -15 31 -14 12 -11 15 22 28 56 21 109 29 194 31 73 1 77 0 81 -23z
m-1252 11 c0 -2 -11 -18 -24 -35 -20 -28 -25 -30 -30 -15 -4 10 -3 19 2 21 5
1 18 9 28 17 20 15 24 17 24 12z m1454 -51 c-3 -8 -16 -22 -29 -30 -15 -10
-26 -30 -30 -53 -11 -62 -16 -73 -33 -73 -12 0 -13 3 -4 12 19 19 14 73 -9
102 -17 22 -18 26 -4 26 8 0 18 7 21 15 4 10 20 15 50 15 34 0 42 -3 38 -14z
m958 -42 c-5 -29 -7 -28 -16 8 -5 21 -3 26 7 22 9 -3 12 -14 9 -30z m-2612 -3
c-5 -11 -15 -23 -20 -26 -6 -3 -10 -15 -10 -26 0 -14 -7 -19 -30 -19 -16 0
-30 4 -30 9 0 5 -3 22 -6 39 -7 34 2 39 69 41 34 1 37 -1 27 -18z m90 -13 c0
-7 -5 -20 -10 -28 -9 -13 -11 -13 -19 0 -6 9 -6 19 1 27 13 17 28 17 28 1z
m32 -99 c-4 -26 -6 -29 -14 -15 -6 11 -6 22 2 32 17 19 17 19 12 -17z m-125
-104 c0 -53 -1 -94 -2 -93 -2 2 -12 37 -23 78 -11 41 -24 83 -27 93 -6 14 -2
17 22 17 l29 0 1 -95z m-91 -213 c6 -4 16 -17 23 -29 6 -13 19 -23 29 -24 13
0 12 -2 -5 -9 -18 -7 -22 -20 -28 -85 -4 -42 -9 -74 -11 -72 -5 4 -44 200 -44
217 0 12 20 13 36 2z m435 -1539 c26 -37 29 -45 13 -39 -10 4 -58 10 -107 13
-54 4 -91 11 -98 19 -13 16 -10 17 76 38 84 20 81 21 116 -31z m3012 -54 c-8
-8 -16 -8 -30 0 -16 9 -14 10 12 11 21 0 26 -3 18 -11z m-3005 -46 c41 -11 62
-21 62 -31 0 -8 14 -37 31 -64 25 -42 69 -138 69 -153 0 -2 -19 2 -41 10 -121
43 -344 -13 -344 -85 0 -37 28 -36 102 1 72 37 151 48 207 29 20 -6 36 -15 36
-18 0 -4 -42 -7 -93 -7 -117 -1 -196 -28 -264 -91 -25 -24 -47 -43 -49 -41 -1
1 -14 27 -29 57 -15 29 -49 83 -76 119 -34 44 -49 74 -49 95 -1 17 -7 42 -15
56 -23 41 -18 57 9 30 28 -25 56 -21 56 8 0 15 21 28 84 56 140 60 172 63 304
29z m235 -383 c-5 -19 -6 -19 -34 3 -15 12 -28 32 -28 45 l-1 23 34 -26 c24
-18 32 -31 29 -45z m-128 -4 c45 -19 117 -87 153 -144 16 -26 56 -90 90 -144
48 -76 58 -98 46 -102 -31 -12 -7 -42 86 -107 52 -36 97 -74 98 -83 4 -21 -31
-62 -70 -82 -24 -13 -35 -11 -110 12 -145 46 -205 83 -377 234 -226 198 -264
249 -237 314 36 86 219 144 321 102z m223 -131 c-3 -3 -9 2 -12 12 -6 14 -5
15 5 6 7 -7 10 -15 7 -18z m-466 -227 c44 -44 72 -76 62 -70 -11 5 -63 31
-118 56 -88 42 -97 49 -92 69 3 12 6 44 6 71 l0 50 31 -49 c17 -26 67 -84 111
-127z m868 -248 c14 -10 91 -52 173 -95 81 -43 146 -80 144 -82 -7 -6 -204 22
-372 53 -126 24 -122 21 -82 58 37 34 53 72 44 106 -5 20 -4 20 31 -1 21 -13
48 -30 62 -39z m1189 6 c-1 -21 -3 -24 -6 -11 -3 11 -9 24 -14 30 -14 14 -11
25 6 19 9 -4 15 -18 14 -38z m1807 -98 l29 -33 -32 29 c-18 17 -33 31 -33 33
0 8 8 1 36 -29z m-4108 -146 c79 -58 199 -128 262 -154 42 -17 42 -18 10 -12
-54 9 -178 61 -250 104 -94 55 -133 98 -155 169 -6 18 1 15 30 -18 20 -22 67
-62 103 -89z m-448 -12 c23 -23 24 -33 10 -61 -15 -27 -65 -50 -234 -104 -92
-30 -172 -63 -210 -87 -68 -43 -146 -82 -152 -76 -2 3 27 34 64 71 114 113
255 205 377 245 111 37 119 38 145 12z m2028 -9 c11 -7 11 -9 -1 -14 -9 -3
-21 1 -27 9 -10 11 -10 14 1 14 8 0 20 -4 27 -9z m-51 -47 c21 -6 21 -8 7 -46
-8 -22 -14 -53 -14 -69 0 -33 -6 -36 -31 -13 -9 8 -68 25 -131 38 l-113 22 75
31 c103 43 153 51 207 37z m-427 -124 c0 -11 -2 -20 -3 -20 -2 0 -12 9 -22 20
-18 19 -17 20 3 20 15 0 22 -6 22 -20z m260 -64 c36 -3 71 -2 79 3 10 6 22 5
35 -5 11 -8 30 -14 41 -14 22 -1 55 -22 55 -36 0 -5 20 -39 44 -77 l45 -67
-20 -58 c-63 -183 -87 -351 -98 -694 -4 -137 -10 -251 -13 -254 -5 -5 -20 74
-31 166 -3 19 -12 69 -20 110 -9 41 -25 131 -37 200 -12 69 -28 138 -36 153
-22 45 -18 54 24 53 l37 -1 -3 90 c-1 49 -7 94 -12 99 -6 6 -10 22 -10 38 0
78 -80 205 -170 269 l-55 40 40 -5 c22 -3 69 -8 105 -10z m334 -21 c3 -13 3
-44 0 -69 l-7 -45 -34 57 -34 57 21 17 c26 21 46 14 54 -17z"/>
</g>
</svg>
