<svg version="1.1" id="Layer_1" xmlns="http://www.w3.org/2000/svg" xmlns:xlink="http://www.w3.org/1999/xlink" x="0px" y="0px"
	 width="100%" viewBox="0 0 352 496" enable-background="new 0 0 352 496" xml:space="preserve">
<path fill="#000000" opacity="1.000000" stroke="none" 
	d="
M353.000000,230.000000 
	C353.000000,231.714355 353.000000,233.428711 352.814453,235.792969 
	C348.478699,238.873062 346.594849,242.166046 348.309204,247.049927 
	C348.673035,248.086319 348.416229,249.366562 348.339905,250.527527 
	C347.431091,264.356476 346.225952,278.127899 341.891602,291.434265 
	C340.983978,294.220612 340.284485,296.610657 337.093231,297.769897 
	C334.585510,298.680878 333.496704,301.197601 333.435944,303.851501 
	C333.059784,320.273132 332.442535,336.719330 330.158112,352.962585 
	C328.860596,362.188538 328.216553,371.538483 325.918121,380.673584 
	C323.898590,388.700104 321.610626,396.646210 319.555115,404.644745 
	C315.277893,421.288635 310.940948,437.663300 301.332581,452.382416 
	C294.568634,462.744141 285.943115,470.964386 276.327942,478.227783 
	C264.829895,486.913513 251.382187,491.971710 238.000000,497.000000 
	C217.979111,497.000000 197.958206,497.000000 177.222687,496.760742 
	C175.604324,496.125366 174.724899,495.656769 173.793167,495.344025 
	C160.240509,490.795563 146.839783,485.936615 134.561493,478.398254 
	C121.628830,470.458130 110.221786,460.560272 99.327126,450.176453 
	C94.533958,445.608093 90.831207,439.571198 87.713295,433.633942 
	C80.117355,419.169464 76.911034,403.085175 72.021957,387.636017 
	C70.756401,383.636963 68.970444,382.355042 65.048523,382.356812 
	C56.785591,382.360535 52.953125,378.032318 52.568066,369.618347 
	C52.314793,364.083984 54.290466,358.692261 53.523720,353.241516 
	C52.327095,344.734772 50.635445,336.255463 49.008663,327.868225 
	C47.256477,318.834412 45.190060,309.795807 43.506252,300.704559 
	C42.216869,293.742859 40.839191,286.848907 35.992512,281.198578 
	C31.698509,276.192505 28.782522,269.975372 28.199280,263.783997 
	C27.582302,257.234497 23.656973,253.044769 20.984095,247.901154 
	C17.463654,241.126480 13.315726,234.383774 19.627285,226.921494 
	C20.688622,225.666656 20.071007,224.417068 18.841461,223.497360 
	C15.198510,220.772461 12.846073,217.185806 10.583041,213.213959 
	C8.600120,209.733719 8.696224,205.845276 6.934357,202.507416 
	C2.835245,194.741699 2.715584,186.441193 4.305260,178.220062 
	C6.340558,167.694336 4.609572,157.797104 1.000000,148.000000 
	C1.000000,141.312363 1.000000,134.624710 1.286927,127.276855 
	C6.146534,117.252762 9.387834,107.543205 9.641997,96.985664 
	C9.944470,84.421356 17.015257,74.659477 30.430264,75.439896 
	C35.096802,75.711365 40.034836,75.003242 44.630554,73.418556 
	C47.686771,72.364723 49.685150,70.990906 48.815639,66.881279 
	C47.049030,58.531612 53.077065,49.736534 60.578247,46.436028 
	C62.108986,45.762505 63.719357,45.101536 64.653618,43.653801 
	C69.535034,36.089588 73.082512,27.970131 74.648636,19.051762 
	C75.226845,15.759078 76.401039,12.023593 80.311539,12.960232 
	C86.042839,14.332990 87.732841,11.267968 88.454308,7.006822 
	C89.190865,2.656597 91.321724,1.283923 95.580421,1.532845 
	C99.360413,1.753786 103.243690,2.155661 107.000000,1.000000 
	C107.000000,1.000000 107.500000,1.000000 108.020889,1.226826 
	C113.736053,4.883128 119.798149,4.432830 125.331673,3.943241 
	C131.847214,3.366763 138.364822,4.534118 144.931763,2.863202 
	C150.736710,1.386166 156.960907,1.556823 163.000000,1.000000 
	C163.000000,1.000000 163.500000,1.000000 164.015198,1.216931 
	C166.534546,3.795048 169.692001,4.150825 172.186417,5.792783 
	C178.296021,9.814465 185.736938,10.647607 192.696152,10.074272 
	C200.087204,9.465362 207.153122,7.751785 213.131088,14.171441 
	C213.679306,13.552737 214.204895,13.145719 214.488724,12.610495 
	C217.351410,7.212174 227.681656,5.607559 231.953720,9.856477 
	C233.313599,11.209002 233.723145,12.849918 233.159409,14.422142 
	C231.585114,18.812771 234.643265,19.654743 237.604462,20.396311 
	C239.886353,20.967762 242.151962,20.358999 244.460464,19.792244 
	C250.885818,18.214777 257.400269,17.565784 263.944061,19.302315 
	C266.512360,19.983877 268.836823,19.452536 271.049774,17.971497 
	C273.147400,16.567659 275.394440,16.335119 277.585480,17.849873 
	C279.987518,19.510523 279.558289,21.907934 278.954834,24.165749 
	C278.360291,26.390326 277.283386,28.485676 276.684235,30.709419 
	C275.957825,33.405441 276.271698,35.975349 278.375885,38.117004 
	C279.540009,39.301849 281.062866,40.118988 282.383789,39.204079 
	C287.726715,35.503376 292.958252,37.264793 297.810394,39.746178 
	C301.669678,41.719814 306.526489,42.644993 308.606750,47.208710 
	C311.065155,52.602043 312.176178,58.221085 310.971649,64.160522 
	C310.011444,68.895050 312.093414,72.125511 316.841614,72.496651 
	C320.536652,72.785469 324.018616,73.784920 327.534332,74.683067 
	C337.965118,77.347824 340.389923,80.333031 341.449249,90.970329 
	C341.609772,92.582146 341.910980,94.501190 342.885742,95.653091 
	C346.432953,99.844933 347.020477,105.186386 346.041107,109.671082 
	C344.490082,116.773590 347.366913,120.292473 353.000000,123.000000 
	C353.000000,127.024544 353.000000,131.049088 352.747131,135.741089 
	C351.761993,137.480057 351.087433,138.596878 350.287689,139.615402 
	C346.290680,144.705841 346.275360,144.701324 351.365784,148.906555 
	C351.868500,149.321869 352.453308,149.637894 353.000000,150.000000 
	C353.000000,168.020889 353.000000,186.041794 352.934357,204.891693 
	C349.318878,213.833221 350.376282,221.920853 353.000000,230.000000 
M183.063049,147.575195 
	C183.478516,147.057236 184.094711,146.601746 184.278351,146.011627 
	C186.087372,140.198578 189.875702,139.097656 195.500137,140.420212 
	C198.617722,141.153305 202.089188,141.031723 205.356369,139.822144 
	C207.578491,138.999466 209.250305,138.260422 208.809418,135.319077 
	C208.374649,132.418549 210.351059,131.667328 212.866898,131.632187 
	C216.106003,131.586929 219.402969,131.239731 222.544693,131.090805 
	C227.495331,130.856171 233.918854,130.100189 237.239334,134.905228 
	C243.897369,144.539993 253.328140,146.097427 263.750854,145.718491 
	C268.688568,145.538986 272.751434,145.459137 275.554810,151.278351 
	C279.214355,158.874802 284.614319,165.147980 294.952179,162.772919 
	C298.559753,161.944107 304.155884,167.275085 303.078430,170.135696 
	C300.248230,177.649841 306.093719,181.664795 309.231049,186.770264 
	C309.963562,187.962234 311.373138,187.982788 312.820740,187.937927 
	C316.659851,187.818970 326.660980,195.108582 327.852753,198.814377 
	C328.194183,199.876053 328.547577,201.394226 328.057373,202.180588 
	C326.267212,205.052139 327.364746,207.601120 328.405945,210.232330 
	C329.431000,212.822861 329.565033,215.027618 327.739868,217.659119 
	C323.928345,223.154617 326.359863,228.381790 332.818451,229.513123 
	C335.098236,229.912476 337.392578,230.245392 339.652618,230.735992 
	C342.049683,231.256332 342.917725,230.034775 342.437866,228.029968 
	C341.281403,223.198135 340.849609,218.561462 341.828156,213.484665 
	C342.794525,208.471130 343.880310,203.445007 346.030182,199.004059 
	C348.270142,194.377045 348.416016,190.034866 346.944916,185.592667 
	C344.787415,179.077759 345.608002,175.752640 351.306732,172.201004 
	C350.924072,170.044601 350.597595,167.772049 350.102600,165.536819 
	C349.602997,163.280579 348.486847,161.167877 348.638794,158.759094 
	C348.811951,156.014816 347.984161,154.315369 345.028717,153.106674 
	C340.197449,151.130829 339.054474,140.815521 343.196960,137.871658 
	C346.839783,135.282898 347.039551,131.752899 346.416321,128.087753 
	C345.850311,124.758995 343.135590,123.128151 340.028137,122.551949 
	C337.698273,122.119949 335.343170,121.573303 335.769592,118.786629 
	C337.383057,108.242836 332.691284,98.090118 334.057312,87.569801 
	C334.327362,85.489983 333.015564,83.985466 330.943451,82.953575 
	C325.802673,80.393532 320.316101,79.355064 314.738953,78.332588 
	C310.072601,77.477081 305.558502,76.307396 302.363770,71.882591 
	C299.181641,67.475250 301.554169,64.502342 303.397583,60.759178 
	C307.027069,53.389442 303.236328,47.169941 294.949127,46.387409 
	C289.594421,45.881783 284.229645,45.019951 278.838013,46.245842 
	C277.263245,46.603889 276.009888,45.915413 274.901367,44.665768 
	C271.566864,40.906757 268.196564,37.071529 267.113312,32.077190 
	C266.229004,28.000263 263.893860,27.230156 260.298584,27.369566 
	C251.309692,27.718107 241.932098,28.049814 233.681046,24.963640 
	C227.514191,22.657043 221.251678,23.452549 215.181091,21.523230 
	C211.429565,20.330940 207.530701,20.753551 205.163773,16.667061 
	C204.195618,14.995546 202.782547,15.868200 201.479996,17.090727 
	C194.356186,23.776854 179.191849,22.346252 173.769791,14.575206 
	C168.524109,7.056961 160.446884,5.698477 153.012802,11.175421 
	C151.517654,12.276958 149.599365,13.032624 148.441986,11.913159 
	C145.887589,9.442435 143.609100,9.864367 140.885498,11.308164 
	C139.967453,11.794820 138.801590,11.857295 137.536377,11.612731 
	C132.795547,10.696332 127.873047,10.539175 123.243309,9.274770 
	C117.537102,7.716372 111.972542,10.623793 106.205315,8.868284 
	C102.176620,7.641977 98.221252,8.272207 95.319321,12.927294 
	C93.956306,15.113764 92.327621,18.225451 89.493881,19.299408 
	C86.448555,20.453552 85.658051,22.629091 85.381729,25.455441 
	C84.675102,32.683144 83.012161,39.511421 77.644241,44.951263 
	C76.544975,46.065262 75.708252,47.805595 75.493423,49.359905 
	C74.674057,55.288025 71.243958,56.829468 65.683311,56.509834 
	C59.520081,56.155563 58.236649,58.393478 60.701199,64.078499 
	C61.150955,65.115967 62.131439,65.910461 62.704391,66.910271 
	C63.705051,68.656418 63.341164,70.744118 61.492840,70.977791 
	C57.272358,71.511360 55.008877,74.737022 52.936523,77.387917 
	C48.951580,82.485329 43.371105,81.927429 38.428406,82.084389 
	C30.218809,82.345093 23.105333,85.999664 20.038845,93.582802 
	C19.058186,96.007874 18.697489,98.650719 16.961828,100.793945 
	C16.177711,101.762192 16.201096,103.294029 17.196960,104.004631 
	C19.868919,105.911201 19.032310,109.223251 20.557749,111.579971 
	C21.899464,113.652847 20.959095,114.922768 18.991354,116.434639 
	C14.952095,119.538109 11.212868,123.761330 10.678912,128.637680 
	C9.896813,135.780197 8.392524,143.562851 11.637332,150.257172 
	C14.683974,156.542648 16.093136,162.131332 13.561837,168.899460 
	C12.466408,171.828400 14.004375,175.660995 13.219115,178.801285 
	C9.912451,192.024704 15.265809,202.969833 21.693638,213.726379 
	C22.610641,215.260925 22.425356,217.389206 24.256237,218.426285 
	C29.166107,221.207428 28.819296,225.194672 26.803337,229.563721 
	C25.891136,231.540665 24.773935,233.593811 25.756628,235.770050 
	C28.382681,241.585617 29.024080,248.632812 35.738419,251.980545 
	C37.019535,252.619293 37.545502,254.043854 37.150658,255.444092 
	C34.577404,264.569580 39.717567,271.466156 43.761620,278.690643 
	C44.769722,280.491577 45.436523,283.626617 48.123169,282.047882 
	C50.142838,280.861084 53.138390,278.494232 52.264992,275.871490 
	C50.574913,270.796356 50.673981,265.230286 46.982285,260.565216 
	C44.879105,257.907501 43.299667,254.039886 43.913250,249.972641 
	C45.667904,238.341537 45.234306,226.442581 50.361771,215.255020 
	C53.026596,209.440659 55.567818,204.759674 62.289051,203.839081 
	C63.695171,203.646484 63.973114,202.574951 64.773232,201.843277 
	C68.600243,198.343658 64.600990,190.620071 71.991440,189.766251 
	C69.889427,183.060776 69.978661,182.793350 75.868668,181.350723 
	C80.392776,180.242630 83.580330,177.581970 85.598602,173.476334 
	C86.874542,170.880783 88.252731,169.290161 91.746178,169.925766 
	C94.767700,170.475510 97.478050,166.137833 96.312149,163.422516 
	C94.203484,158.511551 95.552864,156.603287 100.951462,156.861465 
	C106.021568,157.103928 110.726250,156.446411 114.107483,152.023697 
	C109.353455,147.145065 109.690636,144.547729 115.231293,141.373413 
	C117.099083,140.303329 119.140556,139.539932 121.082901,138.595734 
	C124.764145,136.806259 126.857521,138.048874 128.371307,141.761490 
	C131.407776,149.208542 134.286850,150.254562 141.434799,146.656113 
	C144.847672,144.937988 148.428970,143.610458 151.953339,145.137039 
	C157.776733,147.659454 163.019302,146.239471 168.167313,143.683731 
	C171.399292,142.079208 173.327087,142.395737 174.694168,146.016449 
	C176.226120,150.073807 179.022537,150.784836 183.063049,147.575195 
M107.184486,321.671570 
	C90.895958,317.791809 80.967484,306.723206 74.503426,292.120758 
	C71.478622,285.287628 69.589539,277.977936 67.309517,270.709686 
	C66.485451,282.286011 64.204651,293.707916 65.847977,305.256836 
	C66.334030,308.672668 66.762245,311.455505 62.036861,311.170746 
	C59.968201,311.046112 59.727638,312.336365 59.279385,313.912842 
	C57.784657,319.169556 57.943901,324.542877 58.758820,329.753815 
	C59.481197,334.372955 61.575008,338.686340 66.174355,341.015961 
	C68.514809,342.201416 70.145027,343.899719 68.916908,346.551178 
	C67.720375,349.134460 65.439392,348.468109 63.298714,347.635162 
	C60.925800,346.711792 58.807575,347.240875 59.607250,350.095825 
	C61.178490,355.705414 59.766750,360.938873 58.647739,366.288483 
	C57.935284,369.694489 59.052170,372.764832 61.659618,374.773529 
	C64.029396,376.599182 66.584473,375.478455 69.024994,373.922272 
	C72.583878,371.653046 74.910789,372.578217 76.135307,376.679138 
	C77.985489,382.875458 79.517776,389.166656 81.364418,395.364105 
	C84.338783,405.346252 86.338684,415.817169 90.761147,425.126343 
	C98.912941,442.285645 112.964676,454.687225 127.957886,465.904510 
	C142.811768,477.017487 159.772339,483.794250 177.359055,489.055786 
	C192.545135,493.599091 207.897049,496.586639 223.887482,493.058594 
	C248.068649,487.723328 268.975983,476.055420 288.100098,460.745026 
	C289.229279,459.841003 289.583801,458.577545 290.247284,457.447357 
	C293.991821,451.068909 298.339264,445.130829 301.279633,438.161682 
	C303.128998,433.778320 306.981934,430.022675 308.229797,425.169495 
	C311.197174,413.628845 315.519165,402.434875 317.351685,390.610260 
	C321.408691,364.432159 327.369995,338.492645 326.761902,311.728210 
	C326.644867,306.575836 325.327118,300.665894 328.822449,296.307709 
	C334.732971,288.938110 335.202942,279.826019 337.944275,271.464050 
	C339.851074,265.647644 338.524078,259.490021 338.622284,253.484055 
	C338.662720,251.010376 338.494019,248.319885 335.229340,248.586105 
	C332.299957,248.824982 327.743591,248.369064 327.687897,252.476776 
	C327.614288,257.905518 325.764221,262.890350 325.289246,268.179047 
	C323.729828,285.541473 316.411438,300.196503 301.269501,309.111023 
	C286.174591,317.997955 269.194275,318.066803 252.377808,314.736816 
	C238.404449,311.969879 229.132980,302.359589 221.611572,291.121735 
	C214.394211,280.338135 209.976959,268.509155 211.048996,255.135559 
	C211.381821,250.983459 208.427063,248.941544 204.914062,248.586044 
	C198.390121,247.925842 192.051178,249.130508 186.087540,252.030273 
	C183.750061,253.166870 182.895477,254.918060 183.781006,257.335938 
	C185.902969,263.129913 185.138077,269.154846 185.406372,275.111938 
	C186.285294,294.627411 174.993042,310.032776 157.344025,317.472198 
	C141.370560,324.205322 124.824203,324.877686 107.184486,321.671570 
M294.079895,175.199524 
	C293.514160,173.469452 293.108429,171.886749 290.794403,171.341049 
	C279.266785,168.622665 271.156342,161.465332 265.531158,151.173965 
	C260.018005,151.369766 254.451294,152.138382 249.093689,150.944458 
	C242.354340,149.442612 236.341202,146.368439 231.654663,140.948151 
	C228.834259,137.686203 225.827637,135.435165 221.178085,139.124573 
	C213.307907,145.369522 204.371826,148.923950 193.973099,147.476028 
	C191.648590,147.152374 190.607178,149.165482 189.433197,150.830978 
	C185.988144,155.718414 178.208755,158.787689 174.178864,155.596451 
	C169.060059,151.542892 163.727890,152.484528 158.247726,152.417435 
	C152.215408,152.343582 146.348770,151.724823 140.383911,154.564880 
	C135.420258,156.928223 129.965286,155.884995 125.877914,151.204376 
	C124.772507,149.938553 123.904907,147.985779 121.420448,148.154205 
	C121.139008,148.623444 120.521347,149.171906 120.530914,149.709167 
	C120.687057,158.479492 115.389488,162.103241 107.663391,163.393845 
	C105.789131,163.706924 104.932579,164.690414 104.168671,166.411484 
	C101.860161,171.612473 98.675728,176.063141 93.895134,179.542191 
	C89.053719,183.065536 84.027222,186.005356 80.326469,191.549072 
	C74.418831,200.398697 72.935577,211.975037 63.155540,218.605347 
	C60.679768,220.283783 59.176083,220.195221 56.689724,219.383163 
	C55.131214,225.347534 53.583706,230.925018 52.233444,236.549850 
	C51.213116,240.800247 52.357769,241.996536 56.651329,241.545807 
	C63.008648,240.878418 68.873856,238.990143 74.366837,235.532578 
	C80.372849,231.752106 86.228905,226.971786 93.654579,226.779144 
	C100.840790,226.592697 107.823448,225.136581 114.885826,224.333145 
	C134.725922,222.076035 153.678543,224.210526 171.416931,233.732712 
	C174.064789,235.154129 176.180344,235.018143 178.893478,234.502197 
	C190.105682,232.369965 201.359451,230.084869 212.777145,233.337662 
	C214.559830,233.845520 216.123001,233.767700 217.994965,232.880020 
	C233.138870,225.698898 247.044556,215.622864 264.928986,215.123688 
	C280.434967,214.690933 295.801514,213.492661 310.084015,221.400940 
	C312.132599,222.535263 314.148834,224.409149 317.096527,223.563614 
	C317.743835,214.430176 312.886932,206.699722 310.959412,198.285004 
	C310.809967,197.632629 309.823578,197.119461 309.151886,196.647308 
	C301.784668,191.468842 297.218414,184.304031 294.079895,175.199524 
M101.416519,312.068573 
	C103.447083,313.205048 105.452118,314.338135 107.830933,314.695740 
	C117.227242,316.108398 126.278389,317.517090 136.187790,316.160522 
	C149.219681,314.376526 159.624283,309.127716 168.326401,300.186371 
	C174.969559,293.360626 179.873062,284.732391 176.943359,274.943115 
	C174.609482,267.144684 174.486740,258.985138 171.732498,251.328156 
	C170.996902,249.283112 170.146561,247.927612 168.437546,246.714020 
	C160.332657,240.958572 152.338699,235.042908 142.017853,233.832886 
	C136.391449,233.173248 130.711533,232.706650 125.184891,234.021866 
	C119.804070,235.302368 114.028801,236.292068 108.922638,236.212112 
	C101.827446,236.101013 96.161804,238.695099 90.255882,241.184174 
	C86.613960,242.719086 83.410095,245.596298 81.922607,249.459244 
	C78.659042,257.934540 76.751572,266.828156 79.572380,275.661560 
	C81.151917,280.607910 78.895599,285.665710 81.643738,290.516846 
	C86.490944,299.073486 92.400307,306.438629 101.416519,312.068573 
M316.617126,262.410431 
	C316.266815,259.121246 315.978180,255.824112 315.554993,252.544327 
	C314.103546,241.294800 303.322327,229.111069 292.387238,226.372864 
	C278.661224,222.935791 265.126068,224.199738 251.633545,227.889893 
	C242.706497,230.331375 234.960434,233.465256 228.556442,241.359268 
	C220.817413,250.898895 218.369492,260.894073 221.767639,271.688568 
	C224.557755,280.551514 230.298843,288.405334 237.221710,294.945129 
	C250.194565,307.200165 265.751587,310.310394 282.811737,306.979889 
	C298.906372,303.837830 309.486389,294.629272 313.912506,278.425018 
	C315.283722,273.404846 315.448334,268.293274 316.617126,262.410431 
M178.289749,243.011002 
	C177.874634,244.583786 178.039536,245.940445 179.909836,246.926041 
	C183.724991,244.848862 187.950058,243.450607 192.376144,242.943130 
	C195.651901,242.567566 198.983246,242.686981 202.288544,242.554062 
	C203.693085,242.497589 205.090927,242.156204 205.080872,240.432892 
	C205.072662,239.024231 203.871506,238.480759 202.636398,238.479568 
	C194.421921,238.471634 186.087219,237.811676 178.289749,243.011002 
M49.486755,299.194763 
	C50.665913,300.965149 49.403057,303.948608 52.204441,305.058197 
	C55.706234,298.167969 54.318165,292.887848 48.795349,292.607178 
	C49.005657,294.567535 49.211586,296.487091 49.486755,299.194763 
M59.612453,249.862518 
	C58.736824,245.370224 55.937260,247.728561 53.751690,248.292343 
	C52.053104,248.730515 51.381233,249.943909 51.967232,251.706299 
	C52.472649,253.226334 52.515572,255.142517 54.642441,255.401855 
	C56.460388,255.623550 57.200191,254.431366 57.725128,252.863235 
	C58.023632,251.971512 58.760632,251.226562 59.612453,249.862518 
M59.953426,266.680695 
	C60.852619,264.712646 61.309280,262.759399 58.654495,261.881653 
	C57.620480,261.539795 56.521832,262.454651 56.634178,263.494263 
	C56.816189,265.178467 56.227810,267.855591 59.953426,266.680695 
z"/>
</svg>